G04 #@! TF.GenerationSoftware,KiCad,Pcbnew,(5.1.9)-1*
G04 #@! TF.CreationDate,2021-04-10T16:29:16+02:00*
G04 #@! TF.ProjectId,eerste_versie,65657273-7465-45f7-9665-727369652e6b,rev?*
G04 #@! TF.SameCoordinates,Original*
G04 #@! TF.FileFunction,Paste,Top*
G04 #@! TF.FilePolarity,Positive*
%FSLAX46Y46*%
G04 Gerber Fmt 4.6, Leading zero omitted, Abs format (unit mm)*
G04 Created by KiCad (PCBNEW (5.1.9)-1) date 2021-04-10 16:29:16*
%MOMM*%
%LPD*%
G01*
G04 APERTURE LIST*
%ADD10C,0.000100*%
%ADD11R,0.998220X0.797560*%
%ADD12R,0.998220X0.599440*%
%ADD13R,0.698500X1.498600*%
%ADD14R,0.400000X1.350000*%
%ADD15R,1.500000X1.900000*%
%ADD16R,2.300000X1.500000*%
%ADD17R,1.500000X2.300000*%
%ADD18R,3.800000X2.000000*%
%ADD19R,1.500000X2.000000*%
%ADD20R,1.330000X1.330000*%
%ADD21R,0.900000X2.000000*%
%ADD22R,2.000000X0.900000*%
G04 APERTURE END LIST*
D10*
G36*
X138628000Y-134940000D02*
G01*
X137428000Y-134940000D01*
X137428000Y-136840000D01*
X138628000Y-136840000D01*
X138652860Y-136839349D01*
X138677651Y-136837398D01*
X138702306Y-136834152D01*
X138726758Y-136829620D01*
X138750939Y-136823815D01*
X138774783Y-136816752D01*
X138798225Y-136808451D01*
X138821200Y-136798934D01*
X138843645Y-136788228D01*
X138865500Y-136776362D01*
X138886704Y-136763369D01*
X138907198Y-136749283D01*
X138926927Y-136734144D01*
X138945837Y-136717994D01*
X138963876Y-136700876D01*
X138980994Y-136682837D01*
X138997144Y-136663927D01*
X139012283Y-136644198D01*
X139026369Y-136623704D01*
X139039362Y-136602500D01*
X139051228Y-136580645D01*
X139061934Y-136558200D01*
X139071451Y-136535225D01*
X139079752Y-136511783D01*
X139086815Y-136487939D01*
X139092620Y-136463758D01*
X139097152Y-136439306D01*
X139100398Y-136414651D01*
X139102349Y-136389860D01*
X139103000Y-136365000D01*
X139103000Y-135415000D01*
X139102349Y-135390140D01*
X139100398Y-135365349D01*
X139097152Y-135340694D01*
X139092620Y-135316242D01*
X139086815Y-135292061D01*
X139079752Y-135268217D01*
X139071451Y-135244775D01*
X139061934Y-135221800D01*
X139051228Y-135199355D01*
X139039362Y-135177500D01*
X139026369Y-135156296D01*
X139012283Y-135135802D01*
X138997144Y-135116073D01*
X138980994Y-135097163D01*
X138963876Y-135079124D01*
X138945837Y-135062006D01*
X138926927Y-135045856D01*
X138907198Y-135030717D01*
X138886704Y-135016631D01*
X138865500Y-135003638D01*
X138843645Y-134991772D01*
X138821200Y-134981066D01*
X138798225Y-134971549D01*
X138774783Y-134963248D01*
X138750939Y-134956185D01*
X138726758Y-134950380D01*
X138702306Y-134945848D01*
X138677651Y-134942602D01*
X138652860Y-134940651D01*
X138628000Y-134940000D01*
G37*
X138628000Y-134940000D02*
X137428000Y-134940000D01*
X137428000Y-136840000D01*
X138628000Y-136840000D01*
X138652860Y-136839349D01*
X138677651Y-136837398D01*
X138702306Y-136834152D01*
X138726758Y-136829620D01*
X138750939Y-136823815D01*
X138774783Y-136816752D01*
X138798225Y-136808451D01*
X138821200Y-136798934D01*
X138843645Y-136788228D01*
X138865500Y-136776362D01*
X138886704Y-136763369D01*
X138907198Y-136749283D01*
X138926927Y-136734144D01*
X138945837Y-136717994D01*
X138963876Y-136700876D01*
X138980994Y-136682837D01*
X138997144Y-136663927D01*
X139012283Y-136644198D01*
X139026369Y-136623704D01*
X139039362Y-136602500D01*
X139051228Y-136580645D01*
X139061934Y-136558200D01*
X139071451Y-136535225D01*
X139079752Y-136511783D01*
X139086815Y-136487939D01*
X139092620Y-136463758D01*
X139097152Y-136439306D01*
X139100398Y-136414651D01*
X139102349Y-136389860D01*
X139103000Y-136365000D01*
X139103000Y-135415000D01*
X139102349Y-135390140D01*
X139100398Y-135365349D01*
X139097152Y-135340694D01*
X139092620Y-135316242D01*
X139086815Y-135292061D01*
X139079752Y-135268217D01*
X139071451Y-135244775D01*
X139061934Y-135221800D01*
X139051228Y-135199355D01*
X139039362Y-135177500D01*
X139026369Y-135156296D01*
X139012283Y-135135802D01*
X138997144Y-135116073D01*
X138980994Y-135097163D01*
X138963876Y-135079124D01*
X138945837Y-135062006D01*
X138926927Y-135045856D01*
X138907198Y-135030717D01*
X138886704Y-135016631D01*
X138865500Y-135003638D01*
X138843645Y-134991772D01*
X138821200Y-134981066D01*
X138798225Y-134971549D01*
X138774783Y-134963248D01*
X138750939Y-134956185D01*
X138726758Y-134950380D01*
X138702306Y-134945848D01*
X138677651Y-134942602D01*
X138652860Y-134940651D01*
X138628000Y-134940000D01*
G36*
X131628000Y-134940000D02*
G01*
X132828000Y-134940000D01*
X132828000Y-136840000D01*
X131628000Y-136840000D01*
X131603140Y-136839349D01*
X131578349Y-136837398D01*
X131553694Y-136834152D01*
X131529242Y-136829620D01*
X131505061Y-136823815D01*
X131481217Y-136816752D01*
X131457775Y-136808451D01*
X131434800Y-136798934D01*
X131412355Y-136788228D01*
X131390500Y-136776362D01*
X131369296Y-136763369D01*
X131348802Y-136749283D01*
X131329073Y-136734144D01*
X131310163Y-136717994D01*
X131292124Y-136700876D01*
X131275006Y-136682837D01*
X131258856Y-136663927D01*
X131243717Y-136644198D01*
X131229631Y-136623704D01*
X131216638Y-136602500D01*
X131204772Y-136580645D01*
X131194066Y-136558200D01*
X131184549Y-136535225D01*
X131176248Y-136511783D01*
X131169185Y-136487939D01*
X131163380Y-136463758D01*
X131158848Y-136439306D01*
X131155602Y-136414651D01*
X131153651Y-136389860D01*
X131153000Y-136365000D01*
X131153000Y-135415000D01*
X131153651Y-135390140D01*
X131155602Y-135365349D01*
X131158848Y-135340694D01*
X131163380Y-135316242D01*
X131169185Y-135292061D01*
X131176248Y-135268217D01*
X131184549Y-135244775D01*
X131194066Y-135221800D01*
X131204772Y-135199355D01*
X131216638Y-135177500D01*
X131229631Y-135156296D01*
X131243717Y-135135802D01*
X131258856Y-135116073D01*
X131275006Y-135097163D01*
X131292124Y-135079124D01*
X131310163Y-135062006D01*
X131329073Y-135045856D01*
X131348802Y-135030717D01*
X131369296Y-135016631D01*
X131390500Y-135003638D01*
X131412355Y-134991772D01*
X131434800Y-134981066D01*
X131457775Y-134971549D01*
X131481217Y-134963248D01*
X131505061Y-134956185D01*
X131529242Y-134950380D01*
X131553694Y-134945848D01*
X131578349Y-134942602D01*
X131603140Y-134940651D01*
X131628000Y-134940000D01*
G37*
X131628000Y-134940000D02*
X132828000Y-134940000D01*
X132828000Y-136840000D01*
X131628000Y-136840000D01*
X131603140Y-136839349D01*
X131578349Y-136837398D01*
X131553694Y-136834152D01*
X131529242Y-136829620D01*
X131505061Y-136823815D01*
X131481217Y-136816752D01*
X131457775Y-136808451D01*
X131434800Y-136798934D01*
X131412355Y-136788228D01*
X131390500Y-136776362D01*
X131369296Y-136763369D01*
X131348802Y-136749283D01*
X131329073Y-136734144D01*
X131310163Y-136717994D01*
X131292124Y-136700876D01*
X131275006Y-136682837D01*
X131258856Y-136663927D01*
X131243717Y-136644198D01*
X131229631Y-136623704D01*
X131216638Y-136602500D01*
X131204772Y-136580645D01*
X131194066Y-136558200D01*
X131184549Y-136535225D01*
X131176248Y-136511783D01*
X131169185Y-136487939D01*
X131163380Y-136463758D01*
X131158848Y-136439306D01*
X131155602Y-136414651D01*
X131153651Y-136389860D01*
X131153000Y-136365000D01*
X131153000Y-135415000D01*
X131153651Y-135390140D01*
X131155602Y-135365349D01*
X131158848Y-135340694D01*
X131163380Y-135316242D01*
X131169185Y-135292061D01*
X131176248Y-135268217D01*
X131184549Y-135244775D01*
X131194066Y-135221800D01*
X131204772Y-135199355D01*
X131216638Y-135177500D01*
X131229631Y-135156296D01*
X131243717Y-135135802D01*
X131258856Y-135116073D01*
X131275006Y-135097163D01*
X131292124Y-135079124D01*
X131310163Y-135062006D01*
X131329073Y-135045856D01*
X131348802Y-135030717D01*
X131369296Y-135016631D01*
X131390500Y-135003638D01*
X131412355Y-134991772D01*
X131434800Y-134981066D01*
X131457775Y-134971549D01*
X131481217Y-134963248D01*
X131505061Y-134956185D01*
X131529242Y-134950380D01*
X131553694Y-134945848D01*
X131578349Y-134942602D01*
X131603140Y-134940651D01*
X131628000Y-134940000D01*
D11*
X122651520Y-135742680D03*
D12*
X122651520Y-137840720D03*
D11*
X129951480Y-135742680D03*
D12*
X129951480Y-137840720D03*
D13*
X124053600Y-135094980D03*
X127050800Y-135094980D03*
X128549400Y-135094980D03*
G36*
G01*
X153032000Y-117659999D02*
X153032000Y-118560001D01*
G75*
G02*
X152782001Y-118810000I-249999J0D01*
G01*
X152081999Y-118810000D01*
G75*
G02*
X151832000Y-118560001I0J249999D01*
G01*
X151832000Y-117659999D01*
G75*
G02*
X152081999Y-117410000I249999J0D01*
G01*
X152782001Y-117410000D01*
G75*
G02*
X153032000Y-117659999I0J-249999D01*
G01*
G37*
G36*
G01*
X155032000Y-117659999D02*
X155032000Y-118560001D01*
G75*
G02*
X154782001Y-118810000I-249999J0D01*
G01*
X154081999Y-118810000D01*
G75*
G02*
X153832000Y-118560001I0J249999D01*
G01*
X153832000Y-117659999D01*
G75*
G02*
X154081999Y-117410000I249999J0D01*
G01*
X154782001Y-117410000D01*
G75*
G02*
X155032000Y-117659999I0J-249999D01*
G01*
G37*
G36*
G01*
X125255000Y-114115000D02*
X126205000Y-114115000D01*
G75*
G02*
X126455000Y-114365000I0J-250000D01*
G01*
X126455000Y-115040000D01*
G75*
G02*
X126205000Y-115290000I-250000J0D01*
G01*
X125255000Y-115290000D01*
G75*
G02*
X125005000Y-115040000I0J250000D01*
G01*
X125005000Y-114365000D01*
G75*
G02*
X125255000Y-114115000I250000J0D01*
G01*
G37*
G36*
G01*
X125255000Y-112040000D02*
X126205000Y-112040000D01*
G75*
G02*
X126455000Y-112290000I0J-250000D01*
G01*
X126455000Y-112965000D01*
G75*
G02*
X126205000Y-113215000I-250000J0D01*
G01*
X125255000Y-113215000D01*
G75*
G02*
X125005000Y-112965000I0J250000D01*
G01*
X125005000Y-112290000D01*
G75*
G02*
X125255000Y-112040000I250000J0D01*
G01*
G37*
G36*
G01*
X123538000Y-113215000D02*
X122588000Y-113215000D01*
G75*
G02*
X122338000Y-112965000I0J250000D01*
G01*
X122338000Y-112290000D01*
G75*
G02*
X122588000Y-112040000I250000J0D01*
G01*
X123538000Y-112040000D01*
G75*
G02*
X123788000Y-112290000I0J-250000D01*
G01*
X123788000Y-112965000D01*
G75*
G02*
X123538000Y-113215000I-250000J0D01*
G01*
G37*
G36*
G01*
X123538000Y-115290000D02*
X122588000Y-115290000D01*
G75*
G02*
X122338000Y-115040000I0J250000D01*
G01*
X122338000Y-114365000D01*
G75*
G02*
X122588000Y-114115000I250000J0D01*
G01*
X123538000Y-114115000D01*
G75*
G02*
X123788000Y-114365000I0J-250000D01*
G01*
X123788000Y-115040000D01*
G75*
G02*
X123538000Y-115290000I-250000J0D01*
G01*
G37*
D14*
X136428000Y-133215000D03*
X135778000Y-133215000D03*
X135128000Y-133215000D03*
X134478000Y-133215000D03*
X133828000Y-133215000D03*
D15*
X136128000Y-135890000D03*
X134128000Y-135890000D03*
D16*
X128445000Y-130810000D03*
X121745000Y-130810000D03*
D17*
X154559000Y-123396000D03*
X154559000Y-130096000D03*
G36*
G01*
X136506000Y-127184999D02*
X136506000Y-128085001D01*
G75*
G02*
X136256001Y-128335000I-249999J0D01*
G01*
X135555999Y-128335000D01*
G75*
G02*
X135306000Y-128085001I0J249999D01*
G01*
X135306000Y-127184999D01*
G75*
G02*
X135555999Y-126935000I249999J0D01*
G01*
X136256001Y-126935000D01*
G75*
G02*
X136506000Y-127184999I0J-249999D01*
G01*
G37*
G36*
G01*
X138506000Y-127184999D02*
X138506000Y-128085001D01*
G75*
G02*
X138256001Y-128335000I-249999J0D01*
G01*
X137555999Y-128335000D01*
G75*
G02*
X137306000Y-128085001I0J249999D01*
G01*
X137306000Y-127184999D01*
G75*
G02*
X137555999Y-126935000I249999J0D01*
G01*
X138256001Y-126935000D01*
G75*
G02*
X138506000Y-127184999I0J-249999D01*
G01*
G37*
G36*
G01*
X137356000Y-130625001D02*
X137356000Y-129724999D01*
G75*
G02*
X137605999Y-129475000I249999J0D01*
G01*
X138256001Y-129475000D01*
G75*
G02*
X138506000Y-129724999I0J-249999D01*
G01*
X138506000Y-130625001D01*
G75*
G02*
X138256001Y-130875000I-249999J0D01*
G01*
X137605999Y-130875000D01*
G75*
G02*
X137356000Y-130625001I0J249999D01*
G01*
G37*
G36*
G01*
X135306000Y-130625001D02*
X135306000Y-129724999D01*
G75*
G02*
X135555999Y-129475000I249999J0D01*
G01*
X136206001Y-129475000D01*
G75*
G02*
X136456000Y-129724999I0J-249999D01*
G01*
X136456000Y-130625001D01*
G75*
G02*
X136206001Y-130875000I-249999J0D01*
G01*
X135555999Y-130875000D01*
G75*
G02*
X135306000Y-130625001I0J249999D01*
G01*
G37*
G36*
G01*
X126720000Y-110015000D02*
X126720000Y-110965000D01*
G75*
G02*
X126470000Y-111215000I-250000J0D01*
G01*
X125795000Y-111215000D01*
G75*
G02*
X125545000Y-110965000I0J250000D01*
G01*
X125545000Y-110015000D01*
G75*
G02*
X125795000Y-109765000I250000J0D01*
G01*
X126470000Y-109765000D01*
G75*
G02*
X126720000Y-110015000I0J-250000D01*
G01*
G37*
G36*
G01*
X124645000Y-110015000D02*
X124645000Y-110965000D01*
G75*
G02*
X124395000Y-111215000I-250000J0D01*
G01*
X123720000Y-111215000D01*
G75*
G02*
X123470000Y-110965000I0J250000D01*
G01*
X123470000Y-110015000D01*
G75*
G02*
X123720000Y-109765000I250000J0D01*
G01*
X124395000Y-109765000D01*
G75*
G02*
X124645000Y-110015000I0J-250000D01*
G01*
G37*
G36*
G01*
X153000000Y-120199999D02*
X153000000Y-121100001D01*
G75*
G02*
X152750001Y-121350000I-249999J0D01*
G01*
X152049999Y-121350000D01*
G75*
G02*
X151800000Y-121100001I0J249999D01*
G01*
X151800000Y-120199999D01*
G75*
G02*
X152049999Y-119950000I249999J0D01*
G01*
X152750001Y-119950000D01*
G75*
G02*
X153000000Y-120199999I0J-249999D01*
G01*
G37*
G36*
G01*
X155000000Y-120199999D02*
X155000000Y-121100001D01*
G75*
G02*
X154750001Y-121350000I-249999J0D01*
G01*
X154049999Y-121350000D01*
G75*
G02*
X153800000Y-121100001I0J249999D01*
G01*
X153800000Y-120199999D01*
G75*
G02*
X154049999Y-119950000I249999J0D01*
G01*
X154750001Y-119950000D01*
G75*
G02*
X155000000Y-120199999I0J-249999D01*
G01*
G37*
G36*
G01*
X128049000Y-107489500D02*
X128999000Y-107489500D01*
G75*
G02*
X129249000Y-107739500I0J-250000D01*
G01*
X129249000Y-108414500D01*
G75*
G02*
X128999000Y-108664500I-250000J0D01*
G01*
X128049000Y-108664500D01*
G75*
G02*
X127799000Y-108414500I0J250000D01*
G01*
X127799000Y-107739500D01*
G75*
G02*
X128049000Y-107489500I250000J0D01*
G01*
G37*
G36*
G01*
X128049000Y-105414500D02*
X128999000Y-105414500D01*
G75*
G02*
X129249000Y-105664500I0J-250000D01*
G01*
X129249000Y-106339500D01*
G75*
G02*
X128999000Y-106589500I-250000J0D01*
G01*
X128049000Y-106589500D01*
G75*
G02*
X127799000Y-106339500I0J250000D01*
G01*
X127799000Y-105664500D01*
G75*
G02*
X128049000Y-105414500I250000J0D01*
G01*
G37*
G36*
G01*
X130455000Y-128110000D02*
X130455000Y-127160000D01*
G75*
G02*
X130705000Y-126910000I250000J0D01*
G01*
X131380000Y-126910000D01*
G75*
G02*
X131630000Y-127160000I0J-250000D01*
G01*
X131630000Y-128110000D01*
G75*
G02*
X131380000Y-128360000I-250000J0D01*
G01*
X130705000Y-128360000D01*
G75*
G02*
X130455000Y-128110000I0J250000D01*
G01*
G37*
G36*
G01*
X132530000Y-128110000D02*
X132530000Y-127160000D01*
G75*
G02*
X132780000Y-126910000I250000J0D01*
G01*
X133455000Y-126910000D01*
G75*
G02*
X133705000Y-127160000I0J-250000D01*
G01*
X133705000Y-128110000D01*
G75*
G02*
X133455000Y-128360000I-250000J0D01*
G01*
X132780000Y-128360000D01*
G75*
G02*
X132530000Y-128110000I0J250000D01*
G01*
G37*
D18*
X125730000Y-118110000D03*
D19*
X125730000Y-124410000D03*
X128030000Y-124410000D03*
X123430000Y-124410000D03*
D20*
X140925000Y-116015000D03*
X137255000Y-116015000D03*
X139090000Y-116015000D03*
X140925000Y-112345000D03*
X137255000Y-112345000D03*
X139090000Y-112345000D03*
X140925000Y-114180000D03*
X137255000Y-114180000D03*
X139090000Y-114180000D03*
D21*
X134375000Y-124190000D03*
X135645000Y-124190000D03*
X136915000Y-124190000D03*
X138185000Y-124190000D03*
X139455000Y-124190000D03*
X145805000Y-124190000D03*
X144535000Y-124190000D03*
X143265000Y-124190000D03*
X141995000Y-124190000D03*
X140725000Y-124190000D03*
D22*
X148590000Y-106680000D03*
X148590000Y-107950000D03*
X148590000Y-109220000D03*
X148590000Y-110490000D03*
X148590000Y-111760000D03*
X148590000Y-113030000D03*
X148590000Y-114300000D03*
X148590000Y-115570000D03*
X148590000Y-116840000D03*
X148590000Y-118110000D03*
X148590000Y-119380000D03*
X148590000Y-120650000D03*
X148590000Y-121920000D03*
X148590000Y-123190000D03*
X131590000Y-106680000D03*
X131590000Y-107950000D03*
X131590000Y-109220000D03*
X131590000Y-110490000D03*
X131590000Y-111760000D03*
X131590000Y-113030000D03*
X131590000Y-114300000D03*
X131590000Y-115570000D03*
X131590000Y-116840000D03*
X131590000Y-118110000D03*
X131590000Y-119380000D03*
X131590000Y-120650000D03*
X131590000Y-121920000D03*
X131590000Y-123190000D03*
G36*
G01*
X129101001Y-113265000D02*
X128200999Y-113265000D01*
G75*
G02*
X127951000Y-113015001I0J249999D01*
G01*
X127951000Y-112314999D01*
G75*
G02*
X128200999Y-112065000I249999J0D01*
G01*
X129101001Y-112065000D01*
G75*
G02*
X129351000Y-112314999I0J-249999D01*
G01*
X129351000Y-113015001D01*
G75*
G02*
X129101001Y-113265000I-249999J0D01*
G01*
G37*
G36*
G01*
X129101001Y-115265000D02*
X128200999Y-115265000D01*
G75*
G02*
X127951000Y-115015001I0J249999D01*
G01*
X127951000Y-114314999D01*
G75*
G02*
X128200999Y-114065000I249999J0D01*
G01*
X129101001Y-114065000D01*
G75*
G02*
X129351000Y-114314999I0J-249999D01*
G01*
X129351000Y-115015001D01*
G75*
G02*
X129101001Y-115265000I-249999J0D01*
G01*
G37*
M02*
