G04 #@! TF.GenerationSoftware,KiCad,Pcbnew,(5.1.9)-1*
G04 #@! TF.CreationDate,2021-04-12T15:06:02+02:00*
G04 #@! TF.ProjectId,eerste_versie,65657273-7465-45f7-9665-727369652e6b,rev?*
G04 #@! TF.SameCoordinates,Original*
G04 #@! TF.FileFunction,Copper,L1,Top*
G04 #@! TF.FilePolarity,Positive*
%FSLAX46Y46*%
G04 Gerber Fmt 4.6, Leading zero omitted, Abs format (unit mm)*
G04 Created by KiCad (PCBNEW (5.1.9)-1) date 2021-04-12 15:06:02*
%MOMM*%
%LPD*%
G01*
G04 APERTURE LIST*
G04 #@! TA.AperFunction,EtchedComponent*
%ADD10C,0.000100*%
G04 #@! TD*
G04 #@! TA.AperFunction,SMDPad,CuDef*
%ADD11R,0.998220X0.797560*%
G04 #@! TD*
G04 #@! TA.AperFunction,SMDPad,CuDef*
%ADD12R,0.998220X0.599440*%
G04 #@! TD*
G04 #@! TA.AperFunction,SMDPad,CuDef*
%ADD13R,0.698500X1.498600*%
G04 #@! TD*
G04 #@! TA.AperFunction,ComponentPad*
%ADD14R,2.600000X2.600000*%
G04 #@! TD*
G04 #@! TA.AperFunction,ComponentPad*
%ADD15C,2.600000*%
G04 #@! TD*
G04 #@! TA.AperFunction,ComponentPad*
%ADD16R,1.700000X1.700000*%
G04 #@! TD*
G04 #@! TA.AperFunction,ComponentPad*
%ADD17O,1.700000X1.700000*%
G04 #@! TD*
G04 #@! TA.AperFunction,ComponentPad*
%ADD18C,1.700000*%
G04 #@! TD*
G04 #@! TA.AperFunction,SMDPad,CuDef*
%ADD19R,0.400000X1.350000*%
G04 #@! TD*
G04 #@! TA.AperFunction,ComponentPad*
%ADD20C,1.450000*%
G04 #@! TD*
G04 #@! TA.AperFunction,SMDPad,CuDef*
%ADD21R,1.500000X1.900000*%
G04 #@! TD*
G04 #@! TA.AperFunction,ComponentPad*
%ADD22O,0.950000X1.900000*%
G04 #@! TD*
G04 #@! TA.AperFunction,SMDPad,CuDef*
%ADD23R,2.300000X1.500000*%
G04 #@! TD*
G04 #@! TA.AperFunction,SMDPad,CuDef*
%ADD24R,1.500000X2.300000*%
G04 #@! TD*
G04 #@! TA.AperFunction,ComponentPad*
%ADD25C,2.000000*%
G04 #@! TD*
G04 #@! TA.AperFunction,SMDPad,CuDef*
%ADD26R,3.800000X2.000000*%
G04 #@! TD*
G04 #@! TA.AperFunction,SMDPad,CuDef*
%ADD27R,1.500000X2.000000*%
G04 #@! TD*
G04 #@! TA.AperFunction,SMDPad,CuDef*
%ADD28R,2.000000X0.900000*%
G04 #@! TD*
G04 #@! TA.AperFunction,SMDPad,CuDef*
%ADD29R,0.900000X2.000000*%
G04 #@! TD*
G04 #@! TA.AperFunction,SMDPad,CuDef*
%ADD30R,1.330000X1.330000*%
G04 #@! TD*
G04 #@! TA.AperFunction,ComponentPad*
%ADD31C,1.000000*%
G04 #@! TD*
G04 #@! TA.AperFunction,ViaPad*
%ADD32C,0.800000*%
G04 #@! TD*
G04 #@! TA.AperFunction,Conductor*
%ADD33C,0.400000*%
G04 #@! TD*
G04 #@! TA.AperFunction,Conductor*
%ADD34C,0.254000*%
G04 #@! TD*
G04 #@! TA.AperFunction,Conductor*
%ADD35C,0.635000*%
G04 #@! TD*
G04 #@! TA.AperFunction,Conductor*
%ADD36C,0.100000*%
G04 #@! TD*
G04 APERTURE END LIST*
D10*
G36*
X131653400Y-135905200D02*
G01*
X132853400Y-135905200D01*
X132853400Y-137805200D01*
X131653400Y-137805200D01*
X131628540Y-137804549D01*
X131603749Y-137802598D01*
X131579094Y-137799352D01*
X131554642Y-137794820D01*
X131530461Y-137789015D01*
X131506617Y-137781952D01*
X131483175Y-137773651D01*
X131460200Y-137764134D01*
X131437755Y-137753428D01*
X131415900Y-137741562D01*
X131394696Y-137728569D01*
X131374202Y-137714483D01*
X131354473Y-137699344D01*
X131335563Y-137683194D01*
X131317524Y-137666076D01*
X131300406Y-137648037D01*
X131284256Y-137629127D01*
X131269117Y-137609398D01*
X131255031Y-137588904D01*
X131242038Y-137567700D01*
X131230172Y-137545845D01*
X131219466Y-137523400D01*
X131209949Y-137500425D01*
X131201648Y-137476983D01*
X131194585Y-137453139D01*
X131188780Y-137428958D01*
X131184248Y-137404506D01*
X131181002Y-137379851D01*
X131179051Y-137355060D01*
X131178400Y-137330200D01*
X131178400Y-136380200D01*
X131179051Y-136355340D01*
X131181002Y-136330549D01*
X131184248Y-136305894D01*
X131188780Y-136281442D01*
X131194585Y-136257261D01*
X131201648Y-136233417D01*
X131209949Y-136209975D01*
X131219466Y-136187000D01*
X131230172Y-136164555D01*
X131242038Y-136142700D01*
X131255031Y-136121496D01*
X131269117Y-136101002D01*
X131284256Y-136081273D01*
X131300406Y-136062363D01*
X131317524Y-136044324D01*
X131335563Y-136027206D01*
X131354473Y-136011056D01*
X131374202Y-135995917D01*
X131394696Y-135981831D01*
X131415900Y-135968838D01*
X131437755Y-135956972D01*
X131460200Y-135946266D01*
X131483175Y-135936749D01*
X131506617Y-135928448D01*
X131530461Y-135921385D01*
X131554642Y-135915580D01*
X131579094Y-135911048D01*
X131603749Y-135907802D01*
X131628540Y-135905851D01*
X131653400Y-135905200D01*
G37*
X131653400Y-135905200D02*
X132853400Y-135905200D01*
X132853400Y-137805200D01*
X131653400Y-137805200D01*
X131628540Y-137804549D01*
X131603749Y-137802598D01*
X131579094Y-137799352D01*
X131554642Y-137794820D01*
X131530461Y-137789015D01*
X131506617Y-137781952D01*
X131483175Y-137773651D01*
X131460200Y-137764134D01*
X131437755Y-137753428D01*
X131415900Y-137741562D01*
X131394696Y-137728569D01*
X131374202Y-137714483D01*
X131354473Y-137699344D01*
X131335563Y-137683194D01*
X131317524Y-137666076D01*
X131300406Y-137648037D01*
X131284256Y-137629127D01*
X131269117Y-137609398D01*
X131255031Y-137588904D01*
X131242038Y-137567700D01*
X131230172Y-137545845D01*
X131219466Y-137523400D01*
X131209949Y-137500425D01*
X131201648Y-137476983D01*
X131194585Y-137453139D01*
X131188780Y-137428958D01*
X131184248Y-137404506D01*
X131181002Y-137379851D01*
X131179051Y-137355060D01*
X131178400Y-137330200D01*
X131178400Y-136380200D01*
X131179051Y-136355340D01*
X131181002Y-136330549D01*
X131184248Y-136305894D01*
X131188780Y-136281442D01*
X131194585Y-136257261D01*
X131201648Y-136233417D01*
X131209949Y-136209975D01*
X131219466Y-136187000D01*
X131230172Y-136164555D01*
X131242038Y-136142700D01*
X131255031Y-136121496D01*
X131269117Y-136101002D01*
X131284256Y-136081273D01*
X131300406Y-136062363D01*
X131317524Y-136044324D01*
X131335563Y-136027206D01*
X131354473Y-136011056D01*
X131374202Y-135995917D01*
X131394696Y-135981831D01*
X131415900Y-135968838D01*
X131437755Y-135956972D01*
X131460200Y-135946266D01*
X131483175Y-135936749D01*
X131506617Y-135928448D01*
X131530461Y-135921385D01*
X131554642Y-135915580D01*
X131579094Y-135911048D01*
X131603749Y-135907802D01*
X131628540Y-135905851D01*
X131653400Y-135905200D01*
G36*
X138653400Y-135905200D02*
G01*
X137453400Y-135905200D01*
X137453400Y-137805200D01*
X138653400Y-137805200D01*
X138678260Y-137804549D01*
X138703051Y-137802598D01*
X138727706Y-137799352D01*
X138752158Y-137794820D01*
X138776339Y-137789015D01*
X138800183Y-137781952D01*
X138823625Y-137773651D01*
X138846600Y-137764134D01*
X138869045Y-137753428D01*
X138890900Y-137741562D01*
X138912104Y-137728569D01*
X138932598Y-137714483D01*
X138952327Y-137699344D01*
X138971237Y-137683194D01*
X138989276Y-137666076D01*
X139006394Y-137648037D01*
X139022544Y-137629127D01*
X139037683Y-137609398D01*
X139051769Y-137588904D01*
X139064762Y-137567700D01*
X139076628Y-137545845D01*
X139087334Y-137523400D01*
X139096851Y-137500425D01*
X139105152Y-137476983D01*
X139112215Y-137453139D01*
X139118020Y-137428958D01*
X139122552Y-137404506D01*
X139125798Y-137379851D01*
X139127749Y-137355060D01*
X139128400Y-137330200D01*
X139128400Y-136380200D01*
X139127749Y-136355340D01*
X139125798Y-136330549D01*
X139122552Y-136305894D01*
X139118020Y-136281442D01*
X139112215Y-136257261D01*
X139105152Y-136233417D01*
X139096851Y-136209975D01*
X139087334Y-136187000D01*
X139076628Y-136164555D01*
X139064762Y-136142700D01*
X139051769Y-136121496D01*
X139037683Y-136101002D01*
X139022544Y-136081273D01*
X139006394Y-136062363D01*
X138989276Y-136044324D01*
X138971237Y-136027206D01*
X138952327Y-136011056D01*
X138932598Y-135995917D01*
X138912104Y-135981831D01*
X138890900Y-135968838D01*
X138869045Y-135956972D01*
X138846600Y-135946266D01*
X138823625Y-135936749D01*
X138800183Y-135928448D01*
X138776339Y-135921385D01*
X138752158Y-135915580D01*
X138727706Y-135911048D01*
X138703051Y-135907802D01*
X138678260Y-135905851D01*
X138653400Y-135905200D01*
G37*
X138653400Y-135905200D02*
X137453400Y-135905200D01*
X137453400Y-137805200D01*
X138653400Y-137805200D01*
X138678260Y-137804549D01*
X138703051Y-137802598D01*
X138727706Y-137799352D01*
X138752158Y-137794820D01*
X138776339Y-137789015D01*
X138800183Y-137781952D01*
X138823625Y-137773651D01*
X138846600Y-137764134D01*
X138869045Y-137753428D01*
X138890900Y-137741562D01*
X138912104Y-137728569D01*
X138932598Y-137714483D01*
X138952327Y-137699344D01*
X138971237Y-137683194D01*
X138989276Y-137666076D01*
X139006394Y-137648037D01*
X139022544Y-137629127D01*
X139037683Y-137609398D01*
X139051769Y-137588904D01*
X139064762Y-137567700D01*
X139076628Y-137545845D01*
X139087334Y-137523400D01*
X139096851Y-137500425D01*
X139105152Y-137476983D01*
X139112215Y-137453139D01*
X139118020Y-137428958D01*
X139122552Y-137404506D01*
X139125798Y-137379851D01*
X139127749Y-137355060D01*
X139128400Y-137330200D01*
X139128400Y-136380200D01*
X139127749Y-136355340D01*
X139125798Y-136330549D01*
X139122552Y-136305894D01*
X139118020Y-136281442D01*
X139112215Y-136257261D01*
X139105152Y-136233417D01*
X139096851Y-136209975D01*
X139087334Y-136187000D01*
X139076628Y-136164555D01*
X139064762Y-136142700D01*
X139051769Y-136121496D01*
X139037683Y-136101002D01*
X139022544Y-136081273D01*
X139006394Y-136062363D01*
X138989276Y-136044324D01*
X138971237Y-136027206D01*
X138952327Y-136011056D01*
X138932598Y-135995917D01*
X138912104Y-135981831D01*
X138890900Y-135968838D01*
X138869045Y-135956972D01*
X138846600Y-135946266D01*
X138823625Y-135936749D01*
X138800183Y-135928448D01*
X138776339Y-135921385D01*
X138752158Y-135915580D01*
X138727706Y-135911048D01*
X138703051Y-135907802D01*
X138678260Y-135905851D01*
X138653400Y-135905200D01*
D11*
X122651520Y-135742680D03*
D12*
X122651520Y-137840720D03*
D11*
X129951480Y-135742680D03*
D12*
X129951480Y-137840720D03*
D13*
X124053600Y-135094980D03*
X127050800Y-135094980D03*
X128549400Y-135094980D03*
G04 #@! TA.AperFunction,SMDPad,CuDef*
G36*
G01*
X153032000Y-117659999D02*
X153032000Y-118560001D01*
G75*
G02*
X152782001Y-118810000I-249999J0D01*
G01*
X152081999Y-118810000D01*
G75*
G02*
X151832000Y-118560001I0J249999D01*
G01*
X151832000Y-117659999D01*
G75*
G02*
X152081999Y-117410000I249999J0D01*
G01*
X152782001Y-117410000D01*
G75*
G02*
X153032000Y-117659999I0J-249999D01*
G01*
G37*
G04 #@! TD.AperFunction*
G04 #@! TA.AperFunction,SMDPad,CuDef*
G36*
G01*
X155032000Y-117659999D02*
X155032000Y-118560001D01*
G75*
G02*
X154782001Y-118810000I-249999J0D01*
G01*
X154081999Y-118810000D01*
G75*
G02*
X153832000Y-118560001I0J249999D01*
G01*
X153832000Y-117659999D01*
G75*
G02*
X154081999Y-117410000I249999J0D01*
G01*
X154782001Y-117410000D01*
G75*
G02*
X155032000Y-117659999I0J-249999D01*
G01*
G37*
G04 #@! TD.AperFunction*
D14*
X116459000Y-119888000D03*
D15*
X116459000Y-124968000D03*
D16*
X152400000Y-107410000D03*
D17*
X152400000Y-109950000D03*
X152400000Y-112490000D03*
D18*
X152400000Y-115030000D03*
G04 #@! TA.AperFunction,SMDPad,CuDef*
G36*
G01*
X125255000Y-114115000D02*
X126205000Y-114115000D01*
G75*
G02*
X126455000Y-114365000I0J-250000D01*
G01*
X126455000Y-115040000D01*
G75*
G02*
X126205000Y-115290000I-250000J0D01*
G01*
X125255000Y-115290000D01*
G75*
G02*
X125005000Y-115040000I0J250000D01*
G01*
X125005000Y-114365000D01*
G75*
G02*
X125255000Y-114115000I250000J0D01*
G01*
G37*
G04 #@! TD.AperFunction*
G04 #@! TA.AperFunction,SMDPad,CuDef*
G36*
G01*
X125255000Y-112040000D02*
X126205000Y-112040000D01*
G75*
G02*
X126455000Y-112290000I0J-250000D01*
G01*
X126455000Y-112965000D01*
G75*
G02*
X126205000Y-113215000I-250000J0D01*
G01*
X125255000Y-113215000D01*
G75*
G02*
X125005000Y-112965000I0J250000D01*
G01*
X125005000Y-112290000D01*
G75*
G02*
X125255000Y-112040000I250000J0D01*
G01*
G37*
G04 #@! TD.AperFunction*
G04 #@! TA.AperFunction,SMDPad,CuDef*
G36*
G01*
X123538000Y-113215000D02*
X122588000Y-113215000D01*
G75*
G02*
X122338000Y-112965000I0J250000D01*
G01*
X122338000Y-112290000D01*
G75*
G02*
X122588000Y-112040000I250000J0D01*
G01*
X123538000Y-112040000D01*
G75*
G02*
X123788000Y-112290000I0J-250000D01*
G01*
X123788000Y-112965000D01*
G75*
G02*
X123538000Y-113215000I-250000J0D01*
G01*
G37*
G04 #@! TD.AperFunction*
G04 #@! TA.AperFunction,SMDPad,CuDef*
G36*
G01*
X123538000Y-115290000D02*
X122588000Y-115290000D01*
G75*
G02*
X122338000Y-115040000I0J250000D01*
G01*
X122338000Y-114365000D01*
G75*
G02*
X122588000Y-114115000I250000J0D01*
G01*
X123538000Y-114115000D01*
G75*
G02*
X123788000Y-114365000I0J-250000D01*
G01*
X123788000Y-115040000D01*
G75*
G02*
X123538000Y-115290000I-250000J0D01*
G01*
G37*
G04 #@! TD.AperFunction*
D19*
X136453400Y-134180200D03*
X135803400Y-134180200D03*
X135153400Y-134180200D03*
X134503400Y-134180200D03*
X133853400Y-134180200D03*
D20*
X137653400Y-134155200D03*
X132653400Y-134155200D03*
D21*
X136153400Y-136855200D03*
X134153400Y-136855200D03*
D22*
X138653400Y-136855200D03*
X131653400Y-136855200D03*
D23*
X128445000Y-130810000D03*
X121745000Y-130810000D03*
D24*
X154559000Y-123396000D03*
X154559000Y-130096000D03*
G04 #@! TA.AperFunction,SMDPad,CuDef*
G36*
G01*
X136506000Y-127184999D02*
X136506000Y-128085001D01*
G75*
G02*
X136256001Y-128335000I-249999J0D01*
G01*
X135555999Y-128335000D01*
G75*
G02*
X135306000Y-128085001I0J249999D01*
G01*
X135306000Y-127184999D01*
G75*
G02*
X135555999Y-126935000I249999J0D01*
G01*
X136256001Y-126935000D01*
G75*
G02*
X136506000Y-127184999I0J-249999D01*
G01*
G37*
G04 #@! TD.AperFunction*
G04 #@! TA.AperFunction,SMDPad,CuDef*
G36*
G01*
X138506000Y-127184999D02*
X138506000Y-128085001D01*
G75*
G02*
X138256001Y-128335000I-249999J0D01*
G01*
X137555999Y-128335000D01*
G75*
G02*
X137306000Y-128085001I0J249999D01*
G01*
X137306000Y-127184999D01*
G75*
G02*
X137555999Y-126935000I249999J0D01*
G01*
X138256001Y-126935000D01*
G75*
G02*
X138506000Y-127184999I0J-249999D01*
G01*
G37*
G04 #@! TD.AperFunction*
G04 #@! TA.AperFunction,SMDPad,CuDef*
G36*
G01*
X137356000Y-130625001D02*
X137356000Y-129724999D01*
G75*
G02*
X137605999Y-129475000I249999J0D01*
G01*
X138256001Y-129475000D01*
G75*
G02*
X138506000Y-129724999I0J-249999D01*
G01*
X138506000Y-130625001D01*
G75*
G02*
X138256001Y-130875000I-249999J0D01*
G01*
X137605999Y-130875000D01*
G75*
G02*
X137356000Y-130625001I0J249999D01*
G01*
G37*
G04 #@! TD.AperFunction*
G04 #@! TA.AperFunction,SMDPad,CuDef*
G36*
G01*
X135306000Y-130625001D02*
X135306000Y-129724999D01*
G75*
G02*
X135555999Y-129475000I249999J0D01*
G01*
X136206001Y-129475000D01*
G75*
G02*
X136456000Y-129724999I0J-249999D01*
G01*
X136456000Y-130625001D01*
G75*
G02*
X136206001Y-130875000I-249999J0D01*
G01*
X135555999Y-130875000D01*
G75*
G02*
X135306000Y-130625001I0J249999D01*
G01*
G37*
G04 #@! TD.AperFunction*
D25*
X148550000Y-132080000D03*
X143550000Y-132080000D03*
G04 #@! TA.AperFunction,SMDPad,CuDef*
G36*
G01*
X126720000Y-110015000D02*
X126720000Y-110965000D01*
G75*
G02*
X126470000Y-111215000I-250000J0D01*
G01*
X125795000Y-111215000D01*
G75*
G02*
X125545000Y-110965000I0J250000D01*
G01*
X125545000Y-110015000D01*
G75*
G02*
X125795000Y-109765000I250000J0D01*
G01*
X126470000Y-109765000D01*
G75*
G02*
X126720000Y-110015000I0J-250000D01*
G01*
G37*
G04 #@! TD.AperFunction*
G04 #@! TA.AperFunction,SMDPad,CuDef*
G36*
G01*
X124645000Y-110015000D02*
X124645000Y-110965000D01*
G75*
G02*
X124395000Y-111215000I-250000J0D01*
G01*
X123720000Y-111215000D01*
G75*
G02*
X123470000Y-110965000I0J250000D01*
G01*
X123470000Y-110015000D01*
G75*
G02*
X123720000Y-109765000I250000J0D01*
G01*
X124395000Y-109765000D01*
G75*
G02*
X124645000Y-110015000I0J-250000D01*
G01*
G37*
G04 #@! TD.AperFunction*
G04 #@! TA.AperFunction,SMDPad,CuDef*
G36*
G01*
X153000000Y-120199999D02*
X153000000Y-121100001D01*
G75*
G02*
X152750001Y-121350000I-249999J0D01*
G01*
X152049999Y-121350000D01*
G75*
G02*
X151800000Y-121100001I0J249999D01*
G01*
X151800000Y-120199999D01*
G75*
G02*
X152049999Y-119950000I249999J0D01*
G01*
X152750001Y-119950000D01*
G75*
G02*
X153000000Y-120199999I0J-249999D01*
G01*
G37*
G04 #@! TD.AperFunction*
G04 #@! TA.AperFunction,SMDPad,CuDef*
G36*
G01*
X155000000Y-120199999D02*
X155000000Y-121100001D01*
G75*
G02*
X154750001Y-121350000I-249999J0D01*
G01*
X154049999Y-121350000D01*
G75*
G02*
X153800000Y-121100001I0J249999D01*
G01*
X153800000Y-120199999D01*
G75*
G02*
X154049999Y-119950000I249999J0D01*
G01*
X154750001Y-119950000D01*
G75*
G02*
X155000000Y-120199999I0J-249999D01*
G01*
G37*
G04 #@! TD.AperFunction*
G04 #@! TA.AperFunction,SMDPad,CuDef*
G36*
G01*
X128049000Y-107489500D02*
X128999000Y-107489500D01*
G75*
G02*
X129249000Y-107739500I0J-250000D01*
G01*
X129249000Y-108414500D01*
G75*
G02*
X128999000Y-108664500I-250000J0D01*
G01*
X128049000Y-108664500D01*
G75*
G02*
X127799000Y-108414500I0J250000D01*
G01*
X127799000Y-107739500D01*
G75*
G02*
X128049000Y-107489500I250000J0D01*
G01*
G37*
G04 #@! TD.AperFunction*
G04 #@! TA.AperFunction,SMDPad,CuDef*
G36*
G01*
X128049000Y-105414500D02*
X128999000Y-105414500D01*
G75*
G02*
X129249000Y-105664500I0J-250000D01*
G01*
X129249000Y-106339500D01*
G75*
G02*
X128999000Y-106589500I-250000J0D01*
G01*
X128049000Y-106589500D01*
G75*
G02*
X127799000Y-106339500I0J250000D01*
G01*
X127799000Y-105664500D01*
G75*
G02*
X128049000Y-105414500I250000J0D01*
G01*
G37*
G04 #@! TD.AperFunction*
G04 #@! TA.AperFunction,SMDPad,CuDef*
G36*
G01*
X130455000Y-128110000D02*
X130455000Y-127160000D01*
G75*
G02*
X130705000Y-126910000I250000J0D01*
G01*
X131380000Y-126910000D01*
G75*
G02*
X131630000Y-127160000I0J-250000D01*
G01*
X131630000Y-128110000D01*
G75*
G02*
X131380000Y-128360000I-250000J0D01*
G01*
X130705000Y-128360000D01*
G75*
G02*
X130455000Y-128110000I0J250000D01*
G01*
G37*
G04 #@! TD.AperFunction*
G04 #@! TA.AperFunction,SMDPad,CuDef*
G36*
G01*
X132530000Y-128110000D02*
X132530000Y-127160000D01*
G75*
G02*
X132780000Y-126910000I250000J0D01*
G01*
X133455000Y-126910000D01*
G75*
G02*
X133705000Y-127160000I0J-250000D01*
G01*
X133705000Y-128110000D01*
G75*
G02*
X133455000Y-128360000I-250000J0D01*
G01*
X132780000Y-128360000D01*
G75*
G02*
X132530000Y-128110000I0J250000D01*
G01*
G37*
G04 #@! TD.AperFunction*
D26*
X125730000Y-118110000D03*
D27*
X125730000Y-124410000D03*
X128030000Y-124410000D03*
X123430000Y-124410000D03*
D28*
X131590000Y-123190000D03*
X131590000Y-121920000D03*
X131590000Y-120650000D03*
X131590000Y-119380000D03*
X131590000Y-118110000D03*
X131590000Y-116840000D03*
X131590000Y-115570000D03*
X131590000Y-114300000D03*
X131590000Y-113030000D03*
X131590000Y-111760000D03*
X131590000Y-110490000D03*
X131590000Y-109220000D03*
X131590000Y-107950000D03*
X131590000Y-106680000D03*
X148590000Y-123190000D03*
X148590000Y-121920000D03*
X148590000Y-120650000D03*
X148590000Y-119380000D03*
X148590000Y-118110000D03*
X148590000Y-116840000D03*
X148590000Y-115570000D03*
X148590000Y-114300000D03*
X148590000Y-113030000D03*
X148590000Y-111760000D03*
X148590000Y-110490000D03*
X148590000Y-109220000D03*
X148590000Y-107950000D03*
X148590000Y-106680000D03*
D29*
X140725000Y-124190000D03*
X141995000Y-124190000D03*
X143265000Y-124190000D03*
X144535000Y-124190000D03*
X145805000Y-124190000D03*
X139455000Y-124190000D03*
X138185000Y-124190000D03*
X136915000Y-124190000D03*
X135645000Y-124190000D03*
X134375000Y-124190000D03*
D30*
X139090000Y-114180000D03*
X137255000Y-114180000D03*
X140925000Y-114180000D03*
X139090000Y-112345000D03*
X137255000Y-112345000D03*
X140925000Y-112345000D03*
X139090000Y-116015000D03*
X137255000Y-116015000D03*
X140925000Y-116015000D03*
D31*
X139090000Y-113262500D03*
X137255000Y-113262500D03*
X140925000Y-113262500D03*
X137255000Y-115097500D03*
X139090000Y-115097500D03*
X140925000Y-115097500D03*
X138172500Y-114180000D03*
X140007500Y-114180000D03*
X138172500Y-112345000D03*
X140007500Y-112345000D03*
X138172500Y-116015000D03*
X140007500Y-116015000D03*
G04 #@! TA.AperFunction,SMDPad,CuDef*
G36*
G01*
X129101001Y-113265000D02*
X128200999Y-113265000D01*
G75*
G02*
X127951000Y-113015001I0J249999D01*
G01*
X127951000Y-112314999D01*
G75*
G02*
X128200999Y-112065000I249999J0D01*
G01*
X129101001Y-112065000D01*
G75*
G02*
X129351000Y-112314999I0J-249999D01*
G01*
X129351000Y-113015001D01*
G75*
G02*
X129101001Y-113265000I-249999J0D01*
G01*
G37*
G04 #@! TD.AperFunction*
G04 #@! TA.AperFunction,SMDPad,CuDef*
G36*
G01*
X129101001Y-115265000D02*
X128200999Y-115265000D01*
G75*
G02*
X127951000Y-115015001I0J249999D01*
G01*
X127951000Y-114314999D01*
G75*
G02*
X128200999Y-114065000I249999J0D01*
G01*
X129101001Y-114065000D01*
G75*
G02*
X129351000Y-114314999I0J-249999D01*
G01*
X129351000Y-115015001D01*
G75*
G02*
X129101001Y-115265000I-249999J0D01*
G01*
G37*
G04 #@! TD.AperFunction*
D32*
X120650000Y-113665000D03*
X127000000Y-108077000D03*
X127635000Y-110490000D03*
X121745000Y-127810000D03*
D33*
X136128000Y-135890000D02*
X134128000Y-135890000D01*
X134128000Y-135890000D02*
X131628000Y-135890000D01*
X136428000Y-135590000D02*
X136428000Y-133215000D01*
D34*
X136128000Y-135890000D02*
X136428000Y-135590000D01*
X136453000Y-133190000D02*
X136428000Y-133215000D01*
D33*
X137628000Y-133190000D02*
X136453000Y-133190000D01*
X138628000Y-135890000D02*
X136128000Y-135890000D01*
D35*
X137255000Y-112345000D02*
X140925000Y-112345000D01*
X140925000Y-112345000D02*
X140925000Y-116015000D01*
X140925000Y-116015000D02*
X137255000Y-116015000D01*
X137255000Y-116015000D02*
X137255000Y-112345000D01*
X137255000Y-116015000D02*
X140925000Y-112345000D01*
X140925000Y-116015000D02*
X137255000Y-112345000D01*
X137255000Y-114180000D02*
X140925000Y-114180000D01*
X139090000Y-116015000D02*
X139090000Y-112345000D01*
X146590000Y-106680000D02*
X140925000Y-112345000D01*
X148590000Y-106680000D02*
X146590000Y-106680000D01*
X151670000Y-106680000D02*
X148590000Y-106680000D01*
X152400000Y-107410000D02*
X151670000Y-106680000D01*
D34*
X132628000Y-134890000D02*
X131628000Y-135890000D01*
D35*
X131590000Y-106680000D02*
X148590000Y-106680000D01*
D34*
X132628000Y-134180600D02*
X132653400Y-134155200D01*
X132628000Y-134890000D02*
X132628000Y-134180600D01*
X134153400Y-135915400D02*
X134128000Y-135890000D01*
X134153400Y-136855200D02*
X134153400Y-135915400D01*
D35*
X138653400Y-135155200D02*
X137653400Y-134155200D01*
X138653400Y-136855200D02*
X138653400Y-135155200D01*
X131653400Y-136855200D02*
X131653400Y-135463400D01*
X151384000Y-123190000D02*
X150241000Y-123190000D01*
X152400000Y-122174000D02*
X151384000Y-123190000D01*
X152400000Y-120650000D02*
X152400000Y-122174000D01*
X150241000Y-123190000D02*
X150495000Y-123190000D01*
X148590000Y-123190000D02*
X150241000Y-123190000D01*
X154353000Y-123190000D02*
X154559000Y-123396000D01*
X151384000Y-123190000D02*
X154353000Y-123190000D01*
X128672500Y-107950000D02*
X131590000Y-107950000D01*
X123063000Y-114702500D02*
X128613500Y-114702500D01*
X125730000Y-118110000D02*
X125730000Y-114702500D01*
X125730000Y-124410000D02*
X125730000Y-118110000D01*
X123063000Y-114702500D02*
X121687500Y-114702500D01*
X121687500Y-114702500D02*
X120650000Y-113665000D01*
X120650000Y-113665000D02*
X120650000Y-113665000D01*
X128524000Y-108077000D02*
X127000000Y-108077000D01*
X127000000Y-108077000D02*
X127000000Y-108077000D01*
X154400000Y-118142000D02*
X154432000Y-118110000D01*
X154400000Y-120650000D02*
X154400000Y-118142000D01*
X154432000Y-117062000D02*
X152400000Y-115030000D01*
X154432000Y-118110000D02*
X154432000Y-117062000D01*
X126987300Y-134632700D02*
X127000000Y-134620000D01*
X128143000Y-124523000D02*
X128030000Y-124410000D01*
X128030000Y-126125000D02*
X128030000Y-124410000D01*
X129540000Y-127635000D02*
X128030000Y-126125000D01*
X131042500Y-127635000D02*
X129540000Y-127635000D01*
X126987300Y-135158480D02*
X126987300Y-134632700D01*
X126365000Y-128270000D02*
X128030000Y-126605000D01*
X126365000Y-133375400D02*
X126365000Y-128270000D01*
X126987300Y-133997700D02*
X126365000Y-133375400D01*
X128030000Y-126605000D02*
X128030000Y-126125000D01*
X126987300Y-135158480D02*
X126987300Y-133997700D01*
X121745000Y-130810000D02*
X121745000Y-127810000D01*
X121745000Y-127810000D02*
X121745000Y-127810000D01*
X127635000Y-110490000D02*
X127635000Y-110490000D01*
X121745000Y-127810000D02*
X121745000Y-127810000D01*
X129540000Y-109220000D02*
X131590000Y-109220000D01*
X128651000Y-110109000D02*
X129540000Y-109220000D01*
X127635000Y-110490000D02*
X128651000Y-111506000D01*
X126132500Y-110490000D02*
X127635000Y-110490000D01*
X128651000Y-111506000D02*
X128651000Y-110109000D01*
X128651000Y-112665000D02*
X128651000Y-111506000D01*
X144535000Y-131095000D02*
X143550000Y-132080000D01*
X144535000Y-124190000D02*
X144535000Y-131095000D01*
X137906000Y-130150000D02*
X137931000Y-130175000D01*
X137906000Y-127635000D02*
X137906000Y-130150000D01*
X135645000Y-124190000D02*
X135645000Y-125993000D01*
X135906000Y-126254000D02*
X135906000Y-127635000D01*
X135645000Y-125993000D02*
X135906000Y-126254000D01*
X151860000Y-110490000D02*
X148590000Y-110490000D01*
X152400000Y-109950000D02*
X151860000Y-110490000D01*
X151670000Y-111760000D02*
X148590000Y-111760000D01*
X152400000Y-112490000D02*
X151670000Y-111760000D01*
D33*
X128485900Y-135158480D02*
X128485900Y-134404100D01*
D34*
X128549400Y-135094980D02*
X128549400Y-134340600D01*
D33*
X128549400Y-134340600D02*
X130175000Y-132715000D01*
X133853400Y-134180200D02*
X133853400Y-133218400D01*
X133853400Y-133218400D02*
X133350000Y-132715000D01*
X130175000Y-132715000D02*
X133350000Y-132715000D01*
D35*
X116459000Y-129794000D02*
X116459000Y-124968000D01*
X120015000Y-133350000D02*
X116459000Y-129794000D01*
X123190000Y-133350000D02*
X120015000Y-133350000D01*
X124053600Y-134213600D02*
X123190000Y-133350000D01*
X124053600Y-135094980D02*
X124053600Y-134213600D01*
X148590000Y-118110000D02*
X152432000Y-118110000D01*
D34*
X127164000Y-105716250D02*
X127322750Y-105875000D01*
X128397000Y-105875000D01*
X128397000Y-105855000D01*
X128651000Y-105855000D01*
X128651000Y-105875000D01*
X129725250Y-105875000D01*
X129884000Y-105716250D01*
X129886863Y-105435000D01*
X158725001Y-105435000D01*
X158725000Y-137770000D01*
X139674584Y-137770000D01*
X139717295Y-137671310D01*
X139763400Y-137457200D01*
X139763400Y-137337351D01*
X139763450Y-137330200D01*
X139763450Y-136380200D01*
X139763400Y-136379690D01*
X139763400Y-136372477D01*
X139763403Y-136372442D01*
X139763400Y-136372286D01*
X139763400Y-136253200D01*
X139717295Y-136039090D01*
X139630305Y-135838089D01*
X139551476Y-135724042D01*
X155160000Y-135724042D01*
X155160000Y-136055958D01*
X155224754Y-136381496D01*
X155351772Y-136688147D01*
X155536175Y-136964125D01*
X155770875Y-137198825D01*
X156046853Y-137383228D01*
X156353504Y-137510246D01*
X156679042Y-137575000D01*
X157010958Y-137575000D01*
X157336496Y-137510246D01*
X157643147Y-137383228D01*
X157919125Y-137198825D01*
X158153825Y-136964125D01*
X158338228Y-136688147D01*
X158465246Y-136381496D01*
X158530000Y-136055958D01*
X158530000Y-135724042D01*
X158465246Y-135398504D01*
X158338228Y-135091853D01*
X158153825Y-134815875D01*
X157919125Y-134581175D01*
X157643147Y-134396772D01*
X157336496Y-134269754D01*
X157010958Y-134205000D01*
X156679042Y-134205000D01*
X156353504Y-134269754D01*
X156046853Y-134396772D01*
X155770875Y-134581175D01*
X155536175Y-134815875D01*
X155351772Y-135091853D01*
X155224754Y-135398504D01*
X155160000Y-135724042D01*
X139551476Y-135724042D01*
X139505773Y-135657921D01*
X139348485Y-135505510D01*
X139164486Y-135386713D01*
X139097701Y-135362969D01*
X139089633Y-135359560D01*
X139066658Y-135350043D01*
X139054945Y-135346484D01*
X139043941Y-135341141D01*
X139035603Y-135338122D01*
X139012161Y-135329822D01*
X139000296Y-135326886D01*
X138989033Y-135322128D01*
X138980549Y-135319550D01*
X138956705Y-135312487D01*
X138954538Y-135312070D01*
X138951338Y-135310932D01*
X138950779Y-135311346D01*
X138944689Y-135310173D01*
X138933188Y-135306010D01*
X138924580Y-135303879D01*
X138900399Y-135298074D01*
X138888290Y-135296394D01*
X138876596Y-135292841D01*
X138867888Y-135291164D01*
X138843437Y-135286632D01*
X138831252Y-135285587D01*
X138819383Y-135282650D01*
X138810600Y-135281431D01*
X138785944Y-135278185D01*
X138780402Y-135278001D01*
X138780402Y-135270200D01*
X138660551Y-135270200D01*
X138653400Y-135270150D01*
X138366434Y-135270150D01*
X138412928Y-135094333D01*
X137653400Y-134334805D01*
X137639258Y-134348948D01*
X137459653Y-134169343D01*
X137473795Y-134155200D01*
X137833005Y-134155200D01*
X138592533Y-134914728D01*
X138828850Y-134852235D01*
X138942250Y-134609522D01*
X139006119Y-134349351D01*
X139018004Y-134081718D01*
X138977448Y-133816909D01*
X138886009Y-133565100D01*
X138828850Y-133458165D01*
X138592533Y-133395672D01*
X137833005Y-134155200D01*
X137473795Y-134155200D01*
X137459653Y-134141058D01*
X137639258Y-133961453D01*
X137653400Y-133975595D01*
X138412928Y-133216067D01*
X138350435Y-132979750D01*
X138107722Y-132866350D01*
X137847551Y-132802481D01*
X137579918Y-132790596D01*
X137315109Y-132831152D01*
X137063300Y-132922591D01*
X136986323Y-132963737D01*
X136906976Y-132919679D01*
X136787874Y-132881459D01*
X136685150Y-132870200D01*
X136526400Y-133028950D01*
X136526400Y-133141522D01*
X136454585Y-133054015D01*
X136357894Y-132974663D01*
X136289618Y-132938168D01*
X136221650Y-132870200D01*
X136130520Y-132880188D01*
X136127882Y-132879388D01*
X136003400Y-132867128D01*
X135603400Y-132867128D01*
X135478918Y-132879388D01*
X135478400Y-132879545D01*
X135477882Y-132879388D01*
X135353400Y-132867128D01*
X134953400Y-132867128D01*
X134828918Y-132879388D01*
X134828400Y-132879545D01*
X134827882Y-132879388D01*
X134703400Y-132867128D01*
X134612438Y-132867128D01*
X134551036Y-132752254D01*
X134520462Y-132715000D01*
X134446691Y-132625109D01*
X134414821Y-132598954D01*
X133969446Y-132153579D01*
X133943291Y-132121709D01*
X133816146Y-132017364D01*
X133671087Y-131939828D01*
X133513689Y-131892082D01*
X133391019Y-131880000D01*
X133391018Y-131880000D01*
X133350000Y-131875960D01*
X133308982Y-131880000D01*
X130216018Y-131880000D01*
X130175000Y-131875960D01*
X130144530Y-131878961D01*
X130184502Y-131804180D01*
X130220812Y-131684482D01*
X130233072Y-131560000D01*
X130230000Y-131095750D01*
X130071250Y-130937000D01*
X128572000Y-130937000D01*
X128572000Y-132036250D01*
X128730750Y-132195000D01*
X129511356Y-132197775D01*
X127949493Y-133759640D01*
X127915892Y-133777600D01*
X127907049Y-133748448D01*
X127871552Y-133631431D01*
X127783106Y-133465959D01*
X127664078Y-133320922D01*
X127627731Y-133291093D01*
X127317500Y-132980862D01*
X127317500Y-132197992D01*
X128159250Y-132195000D01*
X128318000Y-132036250D01*
X128318000Y-130937000D01*
X128298000Y-130937000D01*
X128298000Y-130875000D01*
X134667928Y-130875000D01*
X134680188Y-130999482D01*
X134716498Y-131119180D01*
X134775463Y-131229494D01*
X134854815Y-131326185D01*
X134951506Y-131405537D01*
X135061820Y-131464502D01*
X135181518Y-131500812D01*
X135306000Y-131513072D01*
X135595250Y-131510000D01*
X135754000Y-131351250D01*
X135754000Y-130302000D01*
X134829750Y-130302000D01*
X134671000Y-130460750D01*
X134667928Y-130875000D01*
X128298000Y-130875000D01*
X128298000Y-130683000D01*
X128318000Y-130683000D01*
X128318000Y-129583750D01*
X128572000Y-129583750D01*
X128572000Y-130683000D01*
X130071250Y-130683000D01*
X130230000Y-130524250D01*
X130233072Y-130060000D01*
X130220812Y-129935518D01*
X130184502Y-129815820D01*
X130125537Y-129705506D01*
X130046185Y-129608815D01*
X129949494Y-129529463D01*
X129839180Y-129470498D01*
X129719482Y-129434188D01*
X129595000Y-129421928D01*
X128730750Y-129425000D01*
X128572000Y-129583750D01*
X128318000Y-129583750D01*
X128159250Y-129425000D01*
X127317500Y-129422008D01*
X127317500Y-128664538D01*
X128270000Y-127712038D01*
X128833393Y-128275431D01*
X128863222Y-128311778D01*
X129008259Y-128430806D01*
X129173731Y-128519252D01*
X129353277Y-128573717D01*
X129539999Y-128592108D01*
X129586784Y-128587500D01*
X129958104Y-128587500D01*
X129966595Y-128603386D01*
X130077038Y-128737962D01*
X130211614Y-128848405D01*
X130365150Y-128930472D01*
X130531746Y-128981008D01*
X130705000Y-128998072D01*
X131380000Y-128998072D01*
X131553254Y-128981008D01*
X131719850Y-128930472D01*
X131873386Y-128848405D01*
X132007962Y-128737962D01*
X132013342Y-128731406D01*
X132078815Y-128811185D01*
X132175506Y-128890537D01*
X132285820Y-128949502D01*
X132405518Y-128985812D01*
X132530000Y-128998072D01*
X132831750Y-128995000D01*
X132990500Y-128836250D01*
X132990500Y-127762000D01*
X133244500Y-127762000D01*
X133244500Y-128836250D01*
X133403250Y-128995000D01*
X133705000Y-128998072D01*
X133829482Y-128985812D01*
X133949180Y-128949502D01*
X134059494Y-128890537D01*
X134156185Y-128811185D01*
X134235537Y-128714494D01*
X134294502Y-128604180D01*
X134330812Y-128484482D01*
X134343072Y-128360000D01*
X134340000Y-127920750D01*
X134181250Y-127762000D01*
X133244500Y-127762000D01*
X132990500Y-127762000D01*
X132970500Y-127762000D01*
X132970500Y-127508000D01*
X132990500Y-127508000D01*
X132990500Y-126433750D01*
X133244500Y-126433750D01*
X133244500Y-127508000D01*
X134181250Y-127508000D01*
X134340000Y-127349250D01*
X134343072Y-126910000D01*
X134330812Y-126785518D01*
X134294502Y-126665820D01*
X134235537Y-126555506D01*
X134156185Y-126458815D01*
X134059494Y-126379463D01*
X133949180Y-126320498D01*
X133829482Y-126284188D01*
X133705000Y-126271928D01*
X133403250Y-126275000D01*
X133244500Y-126433750D01*
X132990500Y-126433750D01*
X132831750Y-126275000D01*
X132530000Y-126271928D01*
X132405518Y-126284188D01*
X132285820Y-126320498D01*
X132175506Y-126379463D01*
X132078815Y-126458815D01*
X132013342Y-126538594D01*
X132007962Y-126532038D01*
X131873386Y-126421595D01*
X131719850Y-126339528D01*
X131553254Y-126288992D01*
X131380000Y-126271928D01*
X130705000Y-126271928D01*
X130531746Y-126288992D01*
X130365150Y-126339528D01*
X130211614Y-126421595D01*
X130077038Y-126532038D01*
X129966595Y-126666614D01*
X129958104Y-126682500D01*
X129934538Y-126682500D01*
X129166395Y-125914357D01*
X129231185Y-125861185D01*
X129310537Y-125764494D01*
X129369502Y-125654180D01*
X129405812Y-125534482D01*
X129418072Y-125410000D01*
X129418072Y-125190000D01*
X133286928Y-125190000D01*
X133299188Y-125314482D01*
X133335498Y-125434180D01*
X133394463Y-125544494D01*
X133473815Y-125641185D01*
X133570506Y-125720537D01*
X133680820Y-125779502D01*
X133800518Y-125815812D01*
X133925000Y-125828072D01*
X134089250Y-125825000D01*
X134248000Y-125666250D01*
X134248000Y-124317000D01*
X133448750Y-124317000D01*
X133290000Y-124475750D01*
X133286928Y-125190000D01*
X129418072Y-125190000D01*
X129418072Y-123410000D01*
X129405812Y-123285518D01*
X129369502Y-123165820D01*
X129310537Y-123055506D01*
X129231185Y-122958815D01*
X129134494Y-122879463D01*
X129024180Y-122820498D01*
X128904482Y-122784188D01*
X128780000Y-122771928D01*
X127280000Y-122771928D01*
X127155518Y-122784188D01*
X127035820Y-122820498D01*
X126925506Y-122879463D01*
X126880000Y-122916809D01*
X126834494Y-122879463D01*
X126724180Y-122820498D01*
X126682500Y-122807855D01*
X126682500Y-119748072D01*
X127630000Y-119748072D01*
X127754482Y-119735812D01*
X127874180Y-119699502D01*
X127984494Y-119640537D01*
X128081185Y-119561185D01*
X128160537Y-119464494D01*
X128219502Y-119354180D01*
X128255812Y-119234482D01*
X128268072Y-119110000D01*
X128268072Y-117110000D01*
X128255812Y-116985518D01*
X128219502Y-116865820D01*
X128160537Y-116755506D01*
X128081185Y-116658815D01*
X127984494Y-116579463D01*
X127874180Y-116520498D01*
X127754482Y-116484188D01*
X127630000Y-116471928D01*
X126682500Y-116471928D01*
X126682500Y-115786896D01*
X126698386Y-115778405D01*
X126832962Y-115667962D01*
X126843600Y-115655000D01*
X127587706Y-115655000D01*
X127707613Y-115753405D01*
X127861149Y-115835472D01*
X128027745Y-115886008D01*
X128200999Y-115903072D01*
X129101001Y-115903072D01*
X129274255Y-115886008D01*
X129440851Y-115835472D01*
X129594387Y-115753405D01*
X129728962Y-115642962D01*
X129839405Y-115508387D01*
X129921472Y-115354851D01*
X129951928Y-115254450D01*
X129951928Y-116020000D01*
X129964188Y-116144482D01*
X129982546Y-116205000D01*
X129964188Y-116265518D01*
X129951928Y-116390000D01*
X129951928Y-117290000D01*
X129964188Y-117414482D01*
X129982546Y-117475000D01*
X129964188Y-117535518D01*
X129951928Y-117660000D01*
X129951928Y-118560000D01*
X129964188Y-118684482D01*
X129982546Y-118745000D01*
X129964188Y-118805518D01*
X129951928Y-118930000D01*
X129951928Y-119830000D01*
X129964188Y-119954482D01*
X129982546Y-120015000D01*
X129964188Y-120075518D01*
X129951928Y-120200000D01*
X129951928Y-121100000D01*
X129964188Y-121224482D01*
X129982546Y-121285000D01*
X129964188Y-121345518D01*
X129951928Y-121470000D01*
X129951928Y-122370000D01*
X129964188Y-122494482D01*
X129982546Y-122555000D01*
X129964188Y-122615518D01*
X129951928Y-122740000D01*
X129951928Y-123640000D01*
X129964188Y-123764482D01*
X130000498Y-123884180D01*
X130059463Y-123994494D01*
X130138815Y-124091185D01*
X130235506Y-124170537D01*
X130345820Y-124229502D01*
X130465518Y-124265812D01*
X130590000Y-124278072D01*
X132590000Y-124278072D01*
X132714482Y-124265812D01*
X132834180Y-124229502D01*
X132944494Y-124170537D01*
X133041185Y-124091185D01*
X133120537Y-123994494D01*
X133179502Y-123884180D01*
X133215812Y-123764482D01*
X133228072Y-123640000D01*
X133228072Y-123190000D01*
X133286928Y-123190000D01*
X133290000Y-123904250D01*
X133448750Y-124063000D01*
X134248000Y-124063000D01*
X134248000Y-122713750D01*
X134502000Y-122713750D01*
X134502000Y-124063000D01*
X134522000Y-124063000D01*
X134522000Y-124317000D01*
X134502000Y-124317000D01*
X134502000Y-125666250D01*
X134660750Y-125825000D01*
X134692501Y-125825594D01*
X134692501Y-125946206D01*
X134687892Y-125993000D01*
X134706283Y-126179722D01*
X134760749Y-126359269D01*
X134800560Y-126433750D01*
X134849195Y-126524741D01*
X134901869Y-126588925D01*
X134817595Y-126691613D01*
X134735528Y-126845149D01*
X134684992Y-127011745D01*
X134667928Y-127184999D01*
X134667928Y-128085001D01*
X134684992Y-128258255D01*
X134735528Y-128424851D01*
X134817595Y-128578387D01*
X134928038Y-128712962D01*
X135062613Y-128823405D01*
X135136435Y-128862864D01*
X135061820Y-128885498D01*
X134951506Y-128944463D01*
X134854815Y-129023815D01*
X134775463Y-129120506D01*
X134716498Y-129230820D01*
X134680188Y-129350518D01*
X134667928Y-129475000D01*
X134671000Y-129889250D01*
X134829750Y-130048000D01*
X135754000Y-130048000D01*
X135754000Y-130028000D01*
X136008000Y-130028000D01*
X136008000Y-130048000D01*
X136028000Y-130048000D01*
X136028000Y-130302000D01*
X136008000Y-130302000D01*
X136008000Y-131351250D01*
X136166750Y-131510000D01*
X136456000Y-131513072D01*
X136580482Y-131500812D01*
X136700180Y-131464502D01*
X136810494Y-131405537D01*
X136907185Y-131326185D01*
X136972658Y-131246406D01*
X136978038Y-131252962D01*
X137112613Y-131363405D01*
X137266149Y-131445472D01*
X137432745Y-131496008D01*
X137605999Y-131513072D01*
X138256001Y-131513072D01*
X138429255Y-131496008D01*
X138595851Y-131445472D01*
X138749387Y-131363405D01*
X138883962Y-131252962D01*
X138994405Y-131118387D01*
X139076472Y-130964851D01*
X139127008Y-130798255D01*
X139144072Y-130625001D01*
X139144072Y-129724999D01*
X139127008Y-129551745D01*
X139076472Y-129385149D01*
X138994405Y-129231613D01*
X138883962Y-129097038D01*
X138858500Y-129076142D01*
X138858500Y-128733858D01*
X138883962Y-128712962D01*
X138994405Y-128578387D01*
X139076472Y-128424851D01*
X139127008Y-128258255D01*
X139144072Y-128085001D01*
X139144072Y-127184999D01*
X139127008Y-127011745D01*
X139076472Y-126845149D01*
X138994405Y-126691613D01*
X138883962Y-126557038D01*
X138749387Y-126446595D01*
X138595851Y-126364528D01*
X138429255Y-126313992D01*
X138256001Y-126296928D01*
X137555999Y-126296928D01*
X137382745Y-126313992D01*
X137216149Y-126364528D01*
X137062613Y-126446595D01*
X136928038Y-126557038D01*
X136906000Y-126583891D01*
X136883962Y-126557038D01*
X136858500Y-126536142D01*
X136858500Y-126300785D01*
X136863108Y-126254000D01*
X136844717Y-126067278D01*
X136824158Y-125999502D01*
X136790252Y-125887731D01*
X136758364Y-125828072D01*
X137365000Y-125828072D01*
X137489482Y-125815812D01*
X137550000Y-125797454D01*
X137610518Y-125815812D01*
X137735000Y-125828072D01*
X138635000Y-125828072D01*
X138759482Y-125815812D01*
X138820000Y-125797454D01*
X138880518Y-125815812D01*
X139005000Y-125828072D01*
X139905000Y-125828072D01*
X140029482Y-125815812D01*
X140090000Y-125797454D01*
X140150518Y-125815812D01*
X140275000Y-125828072D01*
X141175000Y-125828072D01*
X141299482Y-125815812D01*
X141360000Y-125797454D01*
X141420518Y-125815812D01*
X141545000Y-125828072D01*
X142445000Y-125828072D01*
X142569482Y-125815812D01*
X142630000Y-125797454D01*
X142690518Y-125815812D01*
X142815000Y-125828072D01*
X143582500Y-125828072D01*
X143582501Y-130445000D01*
X143388967Y-130445000D01*
X143073088Y-130507832D01*
X142775537Y-130631082D01*
X142507748Y-130810013D01*
X142280013Y-131037748D01*
X142101082Y-131305537D01*
X141977832Y-131603088D01*
X141915000Y-131918967D01*
X141915000Y-132241033D01*
X141977832Y-132556912D01*
X142101082Y-132854463D01*
X142280013Y-133122252D01*
X142507748Y-133349987D01*
X142775537Y-133528918D01*
X143073088Y-133652168D01*
X143388967Y-133715000D01*
X143711033Y-133715000D01*
X144026912Y-133652168D01*
X144324463Y-133528918D01*
X144592252Y-133349987D01*
X144726826Y-133215413D01*
X147594192Y-133215413D01*
X147689956Y-133479814D01*
X147979571Y-133620704D01*
X148291108Y-133702384D01*
X148612595Y-133721718D01*
X148931675Y-133677961D01*
X149236088Y-133572795D01*
X149410044Y-133479814D01*
X149505808Y-133215413D01*
X148550000Y-132259605D01*
X147594192Y-133215413D01*
X144726826Y-133215413D01*
X144819987Y-133122252D01*
X144998918Y-132854463D01*
X145122168Y-132556912D01*
X145185000Y-132241033D01*
X145185000Y-132142595D01*
X146908282Y-132142595D01*
X146952039Y-132461675D01*
X147057205Y-132766088D01*
X147150186Y-132940044D01*
X147414587Y-133035808D01*
X148370395Y-132080000D01*
X148729605Y-132080000D01*
X149685413Y-133035808D01*
X149949814Y-132940044D01*
X150090704Y-132650429D01*
X150172384Y-132338892D01*
X150191718Y-132017405D01*
X150147961Y-131698325D01*
X150042795Y-131393912D01*
X149963735Y-131246000D01*
X153170928Y-131246000D01*
X153183188Y-131370482D01*
X153219498Y-131490180D01*
X153278463Y-131600494D01*
X153357815Y-131697185D01*
X153454506Y-131776537D01*
X153564820Y-131835502D01*
X153684518Y-131871812D01*
X153809000Y-131884072D01*
X154273250Y-131881000D01*
X154432000Y-131722250D01*
X154432000Y-130223000D01*
X154686000Y-130223000D01*
X154686000Y-131722250D01*
X154844750Y-131881000D01*
X155309000Y-131884072D01*
X155433482Y-131871812D01*
X155553180Y-131835502D01*
X155663494Y-131776537D01*
X155760185Y-131697185D01*
X155839537Y-131600494D01*
X155898502Y-131490180D01*
X155934812Y-131370482D01*
X155947072Y-131246000D01*
X155944000Y-130381750D01*
X155785250Y-130223000D01*
X154686000Y-130223000D01*
X154432000Y-130223000D01*
X153332750Y-130223000D01*
X153174000Y-130381750D01*
X153170928Y-131246000D01*
X149963735Y-131246000D01*
X149949814Y-131219956D01*
X149685413Y-131124192D01*
X148729605Y-132080000D01*
X148370395Y-132080000D01*
X147414587Y-131124192D01*
X147150186Y-131219956D01*
X147009296Y-131509571D01*
X146927616Y-131821108D01*
X146908282Y-132142595D01*
X145185000Y-132142595D01*
X145185000Y-131918967D01*
X145163941Y-131813097D01*
X145175431Y-131801607D01*
X145211778Y-131771778D01*
X145330806Y-131626741D01*
X145419252Y-131461269D01*
X145473717Y-131281723D01*
X145476550Y-131252962D01*
X145492108Y-131095001D01*
X145487500Y-131048216D01*
X145487500Y-130944587D01*
X147594192Y-130944587D01*
X148550000Y-131900395D01*
X149505808Y-130944587D01*
X149410044Y-130680186D01*
X149120429Y-130539296D01*
X148808892Y-130457616D01*
X148487405Y-130438282D01*
X148168325Y-130482039D01*
X147863912Y-130587205D01*
X147689956Y-130680186D01*
X147594192Y-130944587D01*
X145487500Y-130944587D01*
X145487500Y-128946000D01*
X153170928Y-128946000D01*
X153174000Y-129810250D01*
X153332750Y-129969000D01*
X154432000Y-129969000D01*
X154432000Y-128469750D01*
X154686000Y-128469750D01*
X154686000Y-129969000D01*
X155785250Y-129969000D01*
X155944000Y-129810250D01*
X155947072Y-128946000D01*
X155934812Y-128821518D01*
X155898502Y-128701820D01*
X155839537Y-128591506D01*
X155760185Y-128494815D01*
X155663494Y-128415463D01*
X155553180Y-128356498D01*
X155433482Y-128320188D01*
X155309000Y-128307928D01*
X154844750Y-128311000D01*
X154686000Y-128469750D01*
X154432000Y-128469750D01*
X154273250Y-128311000D01*
X153809000Y-128307928D01*
X153684518Y-128320188D01*
X153564820Y-128356498D01*
X153454506Y-128415463D01*
X153357815Y-128494815D01*
X153278463Y-128591506D01*
X153219498Y-128701820D01*
X153183188Y-128821518D01*
X153170928Y-128946000D01*
X145487500Y-128946000D01*
X145487500Y-125828072D01*
X146255000Y-125828072D01*
X146379482Y-125815812D01*
X146499180Y-125779502D01*
X146609494Y-125720537D01*
X146706185Y-125641185D01*
X146785537Y-125544494D01*
X146844502Y-125434180D01*
X146880812Y-125314482D01*
X146893072Y-125190000D01*
X146893072Y-123190000D01*
X146880812Y-123065518D01*
X146844502Y-122945820D01*
X146785537Y-122835506D01*
X146706185Y-122738815D01*
X146609494Y-122659463D01*
X146499180Y-122600498D01*
X146379482Y-122564188D01*
X146255000Y-122551928D01*
X145355000Y-122551928D01*
X145230518Y-122564188D01*
X145170000Y-122582546D01*
X145109482Y-122564188D01*
X144985000Y-122551928D01*
X144085000Y-122551928D01*
X143960518Y-122564188D01*
X143900000Y-122582546D01*
X143839482Y-122564188D01*
X143715000Y-122551928D01*
X142815000Y-122551928D01*
X142690518Y-122564188D01*
X142630000Y-122582546D01*
X142569482Y-122564188D01*
X142445000Y-122551928D01*
X141545000Y-122551928D01*
X141420518Y-122564188D01*
X141360000Y-122582546D01*
X141299482Y-122564188D01*
X141175000Y-122551928D01*
X140275000Y-122551928D01*
X140150518Y-122564188D01*
X140090000Y-122582546D01*
X140029482Y-122564188D01*
X139905000Y-122551928D01*
X139005000Y-122551928D01*
X138880518Y-122564188D01*
X138820000Y-122582546D01*
X138759482Y-122564188D01*
X138635000Y-122551928D01*
X137735000Y-122551928D01*
X137610518Y-122564188D01*
X137550000Y-122582546D01*
X137489482Y-122564188D01*
X137365000Y-122551928D01*
X136465000Y-122551928D01*
X136340518Y-122564188D01*
X136280000Y-122582546D01*
X136219482Y-122564188D01*
X136095000Y-122551928D01*
X135195000Y-122551928D01*
X135070518Y-122564188D01*
X135010000Y-122582546D01*
X134949482Y-122564188D01*
X134825000Y-122551928D01*
X134660750Y-122555000D01*
X134502000Y-122713750D01*
X134248000Y-122713750D01*
X134089250Y-122555000D01*
X133925000Y-122551928D01*
X133800518Y-122564188D01*
X133680820Y-122600498D01*
X133570506Y-122659463D01*
X133473815Y-122738815D01*
X133394463Y-122835506D01*
X133335498Y-122945820D01*
X133299188Y-123065518D01*
X133286928Y-123190000D01*
X133228072Y-123190000D01*
X133228072Y-122740000D01*
X133215812Y-122615518D01*
X133197454Y-122555000D01*
X133215812Y-122494482D01*
X133228072Y-122370000D01*
X133228072Y-121470000D01*
X133215812Y-121345518D01*
X133197454Y-121285000D01*
X133215812Y-121224482D01*
X133228072Y-121100000D01*
X133228072Y-120200000D01*
X133215812Y-120075518D01*
X133197454Y-120015000D01*
X133215812Y-119954482D01*
X133228072Y-119830000D01*
X133228072Y-118930000D01*
X133215812Y-118805518D01*
X133197454Y-118745000D01*
X133215812Y-118684482D01*
X133228072Y-118560000D01*
X133228072Y-117660000D01*
X133215812Y-117535518D01*
X133197454Y-117475000D01*
X133215812Y-117414482D01*
X133228072Y-117290000D01*
X133228072Y-116390000D01*
X133215812Y-116265518D01*
X133197454Y-116205000D01*
X133215812Y-116144482D01*
X133228072Y-116020000D01*
X133228072Y-115120000D01*
X133215812Y-114995518D01*
X133197454Y-114935000D01*
X133215812Y-114874482D01*
X133228072Y-114750000D01*
X133228072Y-113850000D01*
X133215812Y-113725518D01*
X133197454Y-113665000D01*
X133215812Y-113604482D01*
X133228072Y-113480000D01*
X133228072Y-112580000D01*
X133215812Y-112455518D01*
X133197454Y-112395000D01*
X133215812Y-112334482D01*
X133228072Y-112210000D01*
X133228072Y-111680000D01*
X135951928Y-111680000D01*
X135955000Y-112059250D01*
X136113750Y-112218000D01*
X136808918Y-112218000D01*
X136743560Y-112243113D01*
X136691550Y-112270912D01*
X136658468Y-112472000D01*
X136113750Y-112472000D01*
X135955000Y-112630750D01*
X135951928Y-113010000D01*
X135964188Y-113134482D01*
X136000498Y-113254180D01*
X136004945Y-113262500D01*
X136000498Y-113270820D01*
X135964188Y-113390518D01*
X135951928Y-113515000D01*
X135955000Y-113894250D01*
X136113750Y-114053000D01*
X136658468Y-114053000D01*
X136679361Y-114180000D01*
X136658468Y-114307000D01*
X136113750Y-114307000D01*
X135955000Y-114465750D01*
X135951928Y-114845000D01*
X135964188Y-114969482D01*
X136000498Y-115089180D01*
X136004945Y-115097500D01*
X136000498Y-115105820D01*
X135964188Y-115225518D01*
X135951928Y-115350000D01*
X135955000Y-115729250D01*
X136113750Y-115888000D01*
X136658468Y-115888000D01*
X136691550Y-116089088D01*
X136810496Y-116142000D01*
X136113750Y-116142000D01*
X135955000Y-116300750D01*
X135951928Y-116680000D01*
X135964188Y-116804482D01*
X136000498Y-116924180D01*
X136059463Y-117034494D01*
X136138815Y-117131185D01*
X136235506Y-117210537D01*
X136345820Y-117269502D01*
X136465518Y-117305812D01*
X136590000Y-117318072D01*
X136969250Y-117315000D01*
X137128000Y-117156250D01*
X137128000Y-116461082D01*
X137153113Y-116526440D01*
X137180912Y-116578450D01*
X137382000Y-116611532D01*
X137382000Y-117156250D01*
X137540750Y-117315000D01*
X137920000Y-117318072D01*
X138044482Y-117305812D01*
X138164180Y-117269502D01*
X138172500Y-117265055D01*
X138180820Y-117269502D01*
X138300518Y-117305812D01*
X138425000Y-117318072D01*
X138804250Y-117315000D01*
X138963000Y-117156250D01*
X138963000Y-116611532D01*
X139090000Y-116590639D01*
X139217000Y-116611532D01*
X139217000Y-117156250D01*
X139375750Y-117315000D01*
X139755000Y-117318072D01*
X139879482Y-117305812D01*
X139999180Y-117269502D01*
X140007500Y-117265055D01*
X140015820Y-117269502D01*
X140135518Y-117305812D01*
X140260000Y-117318072D01*
X140639250Y-117315000D01*
X140798000Y-117156250D01*
X140798000Y-116611532D01*
X140999088Y-116578450D01*
X141052000Y-116459504D01*
X141052000Y-117156250D01*
X141210750Y-117315000D01*
X141590000Y-117318072D01*
X141714482Y-117305812D01*
X141834180Y-117269502D01*
X141944494Y-117210537D01*
X142041185Y-117131185D01*
X142120537Y-117034494D01*
X142179502Y-116924180D01*
X142215812Y-116804482D01*
X142228072Y-116680000D01*
X142225000Y-116300750D01*
X142066250Y-116142000D01*
X141371082Y-116142000D01*
X141436440Y-116116887D01*
X141488450Y-116089088D01*
X141521532Y-115888000D01*
X142066250Y-115888000D01*
X142225000Y-115729250D01*
X142228072Y-115350000D01*
X142215812Y-115225518D01*
X142179502Y-115105820D01*
X142175055Y-115097500D01*
X142179502Y-115089180D01*
X142215812Y-114969482D01*
X142228072Y-114845000D01*
X142225000Y-114465750D01*
X142066250Y-114307000D01*
X141521532Y-114307000D01*
X141500639Y-114180000D01*
X141521532Y-114053000D01*
X142066250Y-114053000D01*
X142225000Y-113894250D01*
X142228072Y-113515000D01*
X142215812Y-113390518D01*
X142179502Y-113270820D01*
X142175055Y-113262500D01*
X142179502Y-113254180D01*
X142215812Y-113134482D01*
X142228072Y-113010000D01*
X142225000Y-112630750D01*
X142066250Y-112472000D01*
X141521532Y-112472000D01*
X141488450Y-112270912D01*
X141369504Y-112218000D01*
X142066250Y-112218000D01*
X142225000Y-112059250D01*
X142228072Y-111680000D01*
X142215812Y-111555518D01*
X142179502Y-111435820D01*
X142120537Y-111325506D01*
X142041185Y-111228815D01*
X141944494Y-111149463D01*
X141834180Y-111090498D01*
X141714482Y-111054188D01*
X141590000Y-111041928D01*
X141210750Y-111045000D01*
X141052000Y-111203750D01*
X141052000Y-111898918D01*
X141026887Y-111833560D01*
X140999088Y-111781550D01*
X140798000Y-111748468D01*
X140798000Y-111203750D01*
X140639250Y-111045000D01*
X140260000Y-111041928D01*
X140135518Y-111054188D01*
X140015820Y-111090498D01*
X140007500Y-111094945D01*
X139999180Y-111090498D01*
X139879482Y-111054188D01*
X139755000Y-111041928D01*
X139375750Y-111045000D01*
X139217000Y-111203750D01*
X139217000Y-111748468D01*
X139090000Y-111769361D01*
X138963000Y-111748468D01*
X138963000Y-111203750D01*
X138804250Y-111045000D01*
X138425000Y-111041928D01*
X138300518Y-111054188D01*
X138180820Y-111090498D01*
X138172500Y-111094945D01*
X138164180Y-111090498D01*
X138044482Y-111054188D01*
X137920000Y-111041928D01*
X137540750Y-111045000D01*
X137382000Y-111203750D01*
X137382000Y-111748468D01*
X137180912Y-111781550D01*
X137128000Y-111900496D01*
X137128000Y-111203750D01*
X136969250Y-111045000D01*
X136590000Y-111041928D01*
X136465518Y-111054188D01*
X136345820Y-111090498D01*
X136235506Y-111149463D01*
X136138815Y-111228815D01*
X136059463Y-111325506D01*
X136000498Y-111435820D01*
X135964188Y-111555518D01*
X135951928Y-111680000D01*
X133228072Y-111680000D01*
X133228072Y-111310000D01*
X133215812Y-111185518D01*
X133197454Y-111125000D01*
X133215812Y-111064482D01*
X133228072Y-110940000D01*
X133228072Y-110040000D01*
X133215812Y-109915518D01*
X133197454Y-109855000D01*
X133215812Y-109794482D01*
X133228072Y-109670000D01*
X133228072Y-108770000D01*
X133215812Y-108645518D01*
X133197454Y-108585000D01*
X133215812Y-108524482D01*
X133228072Y-108400000D01*
X133228072Y-107500000D01*
X133215812Y-107375518D01*
X133197454Y-107315000D01*
X133215812Y-107254482D01*
X133228072Y-107130000D01*
X146951928Y-107130000D01*
X146964188Y-107254482D01*
X146982546Y-107315000D01*
X146964188Y-107375518D01*
X146951928Y-107500000D01*
X146951928Y-108400000D01*
X146964188Y-108524482D01*
X146982546Y-108585000D01*
X146964188Y-108645518D01*
X146951928Y-108770000D01*
X146951928Y-109670000D01*
X146964188Y-109794482D01*
X146982546Y-109855000D01*
X146964188Y-109915518D01*
X146951928Y-110040000D01*
X146951928Y-110940000D01*
X146964188Y-111064482D01*
X146982546Y-111125000D01*
X146964188Y-111185518D01*
X146951928Y-111310000D01*
X146951928Y-112210000D01*
X146964188Y-112334482D01*
X146982546Y-112395000D01*
X146964188Y-112455518D01*
X146951928Y-112580000D01*
X146951928Y-113480000D01*
X146964188Y-113604482D01*
X146982546Y-113665000D01*
X146964188Y-113725518D01*
X146951928Y-113850000D01*
X146951928Y-114750000D01*
X146964188Y-114874482D01*
X146982546Y-114935000D01*
X146964188Y-114995518D01*
X146951928Y-115120000D01*
X146951928Y-116020000D01*
X146964188Y-116144482D01*
X146982546Y-116205000D01*
X146964188Y-116265518D01*
X146951928Y-116390000D01*
X146951928Y-117290000D01*
X146964188Y-117414482D01*
X146982546Y-117475000D01*
X146964188Y-117535518D01*
X146951928Y-117660000D01*
X146951928Y-118560000D01*
X146964188Y-118684482D01*
X146982546Y-118745000D01*
X146964188Y-118805518D01*
X146951928Y-118930000D01*
X146951928Y-119830000D01*
X146964188Y-119954482D01*
X146982546Y-120015000D01*
X146964188Y-120075518D01*
X146951928Y-120200000D01*
X146951928Y-121100000D01*
X146964188Y-121224482D01*
X146982546Y-121285000D01*
X146964188Y-121345518D01*
X146951928Y-121470000D01*
X146951928Y-122370000D01*
X146964188Y-122494482D01*
X146982546Y-122555000D01*
X146964188Y-122615518D01*
X146951928Y-122740000D01*
X146951928Y-123640000D01*
X146964188Y-123764482D01*
X147000498Y-123884180D01*
X147059463Y-123994494D01*
X147138815Y-124091185D01*
X147235506Y-124170537D01*
X147345820Y-124229502D01*
X147465518Y-124265812D01*
X147590000Y-124278072D01*
X149590000Y-124278072D01*
X149714482Y-124265812D01*
X149834180Y-124229502D01*
X149944494Y-124170537D01*
X149978657Y-124142500D01*
X151337215Y-124142500D01*
X151384000Y-124147108D01*
X151430785Y-124142500D01*
X153170928Y-124142500D01*
X153170928Y-124546000D01*
X153183188Y-124670482D01*
X153219498Y-124790180D01*
X153278463Y-124900494D01*
X153357815Y-124997185D01*
X153454506Y-125076537D01*
X153564820Y-125135502D01*
X153684518Y-125171812D01*
X153809000Y-125184072D01*
X155309000Y-125184072D01*
X155433482Y-125171812D01*
X155553180Y-125135502D01*
X155663494Y-125076537D01*
X155760185Y-124997185D01*
X155839537Y-124900494D01*
X155898502Y-124790180D01*
X155934812Y-124670482D01*
X155947072Y-124546000D01*
X155947072Y-122246000D01*
X155934812Y-122121518D01*
X155898502Y-122001820D01*
X155839537Y-121891506D01*
X155760185Y-121794815D01*
X155663494Y-121715463D01*
X155553180Y-121656498D01*
X155459846Y-121628186D01*
X155488405Y-121593387D01*
X155570472Y-121439851D01*
X155621008Y-121273255D01*
X155638072Y-121100001D01*
X155638072Y-120199999D01*
X155621008Y-120026745D01*
X155570472Y-119860149D01*
X155488405Y-119706613D01*
X155377962Y-119572038D01*
X155352500Y-119551142D01*
X155352500Y-119235120D01*
X155409962Y-119187962D01*
X155520405Y-119053387D01*
X155602472Y-118899851D01*
X155653008Y-118733255D01*
X155670072Y-118560001D01*
X155670072Y-117659999D01*
X155653008Y-117486745D01*
X155602472Y-117320149D01*
X155520405Y-117166613D01*
X155409962Y-117032038D01*
X155384064Y-117010784D01*
X155370717Y-116875277D01*
X155367848Y-116865820D01*
X155316252Y-116695731D01*
X155227806Y-116530259D01*
X155108778Y-116385222D01*
X155072436Y-116355397D01*
X153885000Y-115167962D01*
X153885000Y-114883740D01*
X153827932Y-114596842D01*
X153715990Y-114326589D01*
X153553475Y-114083368D01*
X153346632Y-113876525D01*
X153172240Y-113760000D01*
X153346632Y-113643475D01*
X153553475Y-113436632D01*
X153715990Y-113193411D01*
X153827932Y-112923158D01*
X153885000Y-112636260D01*
X153885000Y-112343740D01*
X153827932Y-112056842D01*
X153715990Y-111786589D01*
X153553475Y-111543368D01*
X153346632Y-111336525D01*
X153172240Y-111220000D01*
X153346632Y-111103475D01*
X153553475Y-110896632D01*
X153715990Y-110653411D01*
X153827932Y-110383158D01*
X153885000Y-110096260D01*
X153885000Y-109803740D01*
X153827932Y-109516842D01*
X153715990Y-109246589D01*
X153553475Y-109003368D01*
X153421620Y-108871513D01*
X153494180Y-108849502D01*
X153604494Y-108790537D01*
X153701185Y-108711185D01*
X153780537Y-108614494D01*
X153839502Y-108504180D01*
X153875812Y-108384482D01*
X153888072Y-108260000D01*
X153885000Y-107695750D01*
X153726250Y-107537000D01*
X152527000Y-107537000D01*
X152527000Y-107557000D01*
X152273000Y-107557000D01*
X152273000Y-107537000D01*
X151073750Y-107537000D01*
X150915000Y-107695750D01*
X150911928Y-108260000D01*
X150924188Y-108384482D01*
X150960498Y-108504180D01*
X151019463Y-108614494D01*
X151098815Y-108711185D01*
X151195506Y-108790537D01*
X151305820Y-108849502D01*
X151378380Y-108871513D01*
X151246525Y-109003368D01*
X151084010Y-109246589D01*
X150972068Y-109516842D01*
X150967959Y-109537500D01*
X150228072Y-109537500D01*
X150228072Y-108770000D01*
X150215812Y-108645518D01*
X150197454Y-108585000D01*
X150215812Y-108524482D01*
X150228072Y-108400000D01*
X150228072Y-107500000D01*
X150215812Y-107375518D01*
X150197454Y-107315000D01*
X150215812Y-107254482D01*
X150228072Y-107130000D01*
X150225000Y-106965750D01*
X150066250Y-106807000D01*
X148717000Y-106807000D01*
X148717000Y-106827000D01*
X148463000Y-106827000D01*
X148463000Y-106807000D01*
X147113750Y-106807000D01*
X146955000Y-106965750D01*
X146951928Y-107130000D01*
X133228072Y-107130000D01*
X133225000Y-106965750D01*
X133066250Y-106807000D01*
X131717000Y-106807000D01*
X131717000Y-106827000D01*
X131463000Y-106827000D01*
X131463000Y-106807000D01*
X130113750Y-106807000D01*
X129955000Y-106965750D01*
X129954406Y-106997500D01*
X129735626Y-106997500D01*
X129779537Y-106943994D01*
X129838502Y-106833680D01*
X129874812Y-106713982D01*
X129887072Y-106589500D01*
X129886772Y-106560000D01*
X150911928Y-106560000D01*
X150915000Y-107124250D01*
X151073750Y-107283000D01*
X152273000Y-107283000D01*
X152273000Y-106083750D01*
X152527000Y-106083750D01*
X152527000Y-107283000D01*
X153726250Y-107283000D01*
X153860208Y-107149042D01*
X155160000Y-107149042D01*
X155160000Y-107480958D01*
X155224754Y-107806496D01*
X155351772Y-108113147D01*
X155536175Y-108389125D01*
X155770875Y-108623825D01*
X156046853Y-108808228D01*
X156353504Y-108935246D01*
X156679042Y-109000000D01*
X157010958Y-109000000D01*
X157336496Y-108935246D01*
X157643147Y-108808228D01*
X157919125Y-108623825D01*
X158153825Y-108389125D01*
X158338228Y-108113147D01*
X158465246Y-107806496D01*
X158530000Y-107480958D01*
X158530000Y-107149042D01*
X158465246Y-106823504D01*
X158338228Y-106516853D01*
X158153825Y-106240875D01*
X157919125Y-106006175D01*
X157643147Y-105821772D01*
X157336496Y-105694754D01*
X157010958Y-105630000D01*
X156679042Y-105630000D01*
X156353504Y-105694754D01*
X156046853Y-105821772D01*
X155770875Y-106006175D01*
X155536175Y-106240875D01*
X155351772Y-106516853D01*
X155224754Y-106823504D01*
X155160000Y-107149042D01*
X153860208Y-107149042D01*
X153885000Y-107124250D01*
X153888072Y-106560000D01*
X153875812Y-106435518D01*
X153839502Y-106315820D01*
X153780537Y-106205506D01*
X153701185Y-106108815D01*
X153604494Y-106029463D01*
X153494180Y-105970498D01*
X153374482Y-105934188D01*
X153250000Y-105921928D01*
X152685750Y-105925000D01*
X152527000Y-106083750D01*
X152273000Y-106083750D01*
X152114250Y-105925000D01*
X151550000Y-105921928D01*
X151425518Y-105934188D01*
X151305820Y-105970498D01*
X151195506Y-106029463D01*
X151098815Y-106108815D01*
X151019463Y-106205506D01*
X150960498Y-106315820D01*
X150924188Y-106435518D01*
X150911928Y-106560000D01*
X129886772Y-106560000D01*
X129884000Y-106287750D01*
X129826250Y-106230000D01*
X129951928Y-106230000D01*
X129955000Y-106394250D01*
X130113750Y-106553000D01*
X131463000Y-106553000D01*
X131463000Y-105753750D01*
X131717000Y-105753750D01*
X131717000Y-106553000D01*
X133066250Y-106553000D01*
X133225000Y-106394250D01*
X133228072Y-106230000D01*
X146951928Y-106230000D01*
X146955000Y-106394250D01*
X147113750Y-106553000D01*
X148463000Y-106553000D01*
X148463000Y-105753750D01*
X148717000Y-105753750D01*
X148717000Y-106553000D01*
X150066250Y-106553000D01*
X150225000Y-106394250D01*
X150228072Y-106230000D01*
X150215812Y-106105518D01*
X150179502Y-105985820D01*
X150120537Y-105875506D01*
X150041185Y-105778815D01*
X149944494Y-105699463D01*
X149834180Y-105640498D01*
X149714482Y-105604188D01*
X149590000Y-105591928D01*
X148875750Y-105595000D01*
X148717000Y-105753750D01*
X148463000Y-105753750D01*
X148304250Y-105595000D01*
X147590000Y-105591928D01*
X147465518Y-105604188D01*
X147345820Y-105640498D01*
X147235506Y-105699463D01*
X147138815Y-105778815D01*
X147059463Y-105875506D01*
X147000498Y-105985820D01*
X146964188Y-106105518D01*
X146951928Y-106230000D01*
X133228072Y-106230000D01*
X133215812Y-106105518D01*
X133179502Y-105985820D01*
X133120537Y-105875506D01*
X133041185Y-105778815D01*
X132944494Y-105699463D01*
X132834180Y-105640498D01*
X132714482Y-105604188D01*
X132590000Y-105591928D01*
X131875750Y-105595000D01*
X131717000Y-105753750D01*
X131463000Y-105753750D01*
X131304250Y-105595000D01*
X130590000Y-105591928D01*
X130465518Y-105604188D01*
X130345820Y-105640498D01*
X130235506Y-105699463D01*
X130138815Y-105778815D01*
X130059463Y-105875506D01*
X130000498Y-105985820D01*
X129964188Y-106105518D01*
X129951928Y-106230000D01*
X129826250Y-106230000D01*
X129725250Y-106129000D01*
X128651000Y-106129000D01*
X128651000Y-106149000D01*
X128397000Y-106149000D01*
X128397000Y-106129000D01*
X127322750Y-106129000D01*
X127164000Y-106287750D01*
X127160928Y-106589500D01*
X127173188Y-106713982D01*
X127209498Y-106833680D01*
X127268463Y-106943994D01*
X127347815Y-107040685D01*
X127427594Y-107106158D01*
X127421038Y-107111538D01*
X127410400Y-107124500D01*
X127405047Y-107124500D01*
X127301898Y-107081774D01*
X127101939Y-107042000D01*
X126898061Y-107042000D01*
X126698102Y-107081774D01*
X126509744Y-107159795D01*
X126340226Y-107273063D01*
X126196063Y-107417226D01*
X126082795Y-107586744D01*
X126004774Y-107775102D01*
X125965000Y-107975061D01*
X125965000Y-108178939D01*
X126004774Y-108378898D01*
X126082795Y-108567256D01*
X126196063Y-108736774D01*
X126340226Y-108880937D01*
X126509744Y-108994205D01*
X126698102Y-109072226D01*
X126898061Y-109112000D01*
X127101939Y-109112000D01*
X127301898Y-109072226D01*
X127405047Y-109029500D01*
X127410400Y-109029500D01*
X127421038Y-109042462D01*
X127555614Y-109152905D01*
X127709150Y-109234972D01*
X127875746Y-109285508D01*
X128049000Y-109302572D01*
X128110390Y-109302572D01*
X128010564Y-109402398D01*
X127974223Y-109432222D01*
X127944399Y-109468563D01*
X127924854Y-109492378D01*
X127736939Y-109455000D01*
X127533061Y-109455000D01*
X127333102Y-109494774D01*
X127229953Y-109537500D01*
X127216896Y-109537500D01*
X127208405Y-109521614D01*
X127097962Y-109387038D01*
X126963386Y-109276595D01*
X126809850Y-109194528D01*
X126643254Y-109143992D01*
X126470000Y-109126928D01*
X125795000Y-109126928D01*
X125621746Y-109143992D01*
X125455150Y-109194528D01*
X125301614Y-109276595D01*
X125167038Y-109387038D01*
X125161658Y-109393594D01*
X125096185Y-109313815D01*
X124999494Y-109234463D01*
X124889180Y-109175498D01*
X124769482Y-109139188D01*
X124645000Y-109126928D01*
X124343250Y-109130000D01*
X124184500Y-109288750D01*
X124184500Y-110363000D01*
X124204500Y-110363000D01*
X124204500Y-110617000D01*
X124184500Y-110617000D01*
X124184500Y-110637000D01*
X123930500Y-110637000D01*
X123930500Y-110617000D01*
X122993750Y-110617000D01*
X122835000Y-110775750D01*
X122831928Y-111215000D01*
X122844188Y-111339482D01*
X122880498Y-111459180D01*
X122935998Y-111563012D01*
X122935998Y-111563748D01*
X122777250Y-111405000D01*
X122338000Y-111401928D01*
X122213518Y-111414188D01*
X122093820Y-111450498D01*
X121983506Y-111509463D01*
X121886815Y-111588815D01*
X121807463Y-111685506D01*
X121748498Y-111795820D01*
X121712188Y-111915518D01*
X121699928Y-112040000D01*
X121703000Y-112341750D01*
X121861750Y-112500500D01*
X122936000Y-112500500D01*
X122936000Y-112480500D01*
X123190000Y-112480500D01*
X123190000Y-112500500D01*
X124264250Y-112500500D01*
X124396500Y-112368250D01*
X124528750Y-112500500D01*
X125603000Y-112500500D01*
X125603000Y-112480500D01*
X125857000Y-112480500D01*
X125857000Y-112500500D01*
X126931250Y-112500500D01*
X127090000Y-112341750D01*
X127093072Y-112040000D01*
X127080812Y-111915518D01*
X127044502Y-111795820D01*
X126985537Y-111685506D01*
X126985400Y-111685339D01*
X127097962Y-111592962D01*
X127208405Y-111458386D01*
X127216896Y-111442500D01*
X127229953Y-111442500D01*
X127247893Y-111449931D01*
X127533354Y-111735393D01*
X127462595Y-111821613D01*
X127380528Y-111975149D01*
X127329992Y-112141745D01*
X127312928Y-112314999D01*
X127312928Y-113015001D01*
X127329992Y-113188255D01*
X127380528Y-113354851D01*
X127462595Y-113508387D01*
X127573038Y-113642962D01*
X127599891Y-113665000D01*
X127573038Y-113687038D01*
X127521366Y-113750000D01*
X126843600Y-113750000D01*
X126832962Y-113737038D01*
X126826406Y-113731658D01*
X126906185Y-113666185D01*
X126985537Y-113569494D01*
X127044502Y-113459180D01*
X127080812Y-113339482D01*
X127093072Y-113215000D01*
X127090000Y-112913250D01*
X126931250Y-112754500D01*
X125857000Y-112754500D01*
X125857000Y-112774500D01*
X125603000Y-112774500D01*
X125603000Y-112754500D01*
X124528750Y-112754500D01*
X124396500Y-112886750D01*
X124264250Y-112754500D01*
X123190000Y-112754500D01*
X123190000Y-112774500D01*
X122936000Y-112774500D01*
X122936000Y-112754500D01*
X121861750Y-112754500D01*
X121703000Y-112913250D01*
X121699928Y-113215000D01*
X121712188Y-113339482D01*
X121729896Y-113397858D01*
X121609931Y-113277893D01*
X121567205Y-113174744D01*
X121453937Y-113005226D01*
X121309774Y-112861063D01*
X121140256Y-112747795D01*
X120951898Y-112669774D01*
X120751939Y-112630000D01*
X120548061Y-112630000D01*
X120348102Y-112669774D01*
X120159744Y-112747795D01*
X119990226Y-112861063D01*
X119846063Y-113005226D01*
X119732795Y-113174744D01*
X119654774Y-113363102D01*
X119615000Y-113563061D01*
X119615000Y-113766939D01*
X119654774Y-113966898D01*
X119732795Y-114155256D01*
X119846063Y-114324774D01*
X119990226Y-114468937D01*
X120159744Y-114582205D01*
X120262893Y-114624931D01*
X120980893Y-115342931D01*
X121010722Y-115379278D01*
X121155759Y-115498306D01*
X121321231Y-115586752D01*
X121500777Y-115641217D01*
X121640715Y-115655000D01*
X121687500Y-115659608D01*
X121734285Y-115655000D01*
X121949400Y-115655000D01*
X121960038Y-115667962D01*
X122094614Y-115778405D01*
X122248150Y-115860472D01*
X122414746Y-115911008D01*
X122588000Y-115928072D01*
X123538000Y-115928072D01*
X123711254Y-115911008D01*
X123877850Y-115860472D01*
X124031386Y-115778405D01*
X124165962Y-115667962D01*
X124176600Y-115655000D01*
X124616400Y-115655000D01*
X124627038Y-115667962D01*
X124761614Y-115778405D01*
X124777501Y-115786897D01*
X124777500Y-116471928D01*
X123830000Y-116471928D01*
X123705518Y-116484188D01*
X123585820Y-116520498D01*
X123475506Y-116579463D01*
X123378815Y-116658815D01*
X123299463Y-116755506D01*
X123240498Y-116865820D01*
X123204188Y-116985518D01*
X123191928Y-117110000D01*
X123191928Y-119110000D01*
X123204188Y-119234482D01*
X123240498Y-119354180D01*
X123299463Y-119464494D01*
X123378815Y-119561185D01*
X123475506Y-119640537D01*
X123585820Y-119699502D01*
X123705518Y-119735812D01*
X123830000Y-119748072D01*
X124777501Y-119748072D01*
X124777500Y-122807854D01*
X124735820Y-122820498D01*
X124625506Y-122879463D01*
X124580000Y-122916809D01*
X124534494Y-122879463D01*
X124424180Y-122820498D01*
X124304482Y-122784188D01*
X124180000Y-122771928D01*
X123715750Y-122775000D01*
X123557000Y-122933750D01*
X123557000Y-124283000D01*
X123577000Y-124283000D01*
X123577000Y-124537000D01*
X123557000Y-124537000D01*
X123557000Y-125886250D01*
X123715750Y-126045000D01*
X124180000Y-126048072D01*
X124304482Y-126035812D01*
X124424180Y-125999502D01*
X124534494Y-125940537D01*
X124580000Y-125903191D01*
X124625506Y-125940537D01*
X124735820Y-125999502D01*
X124855518Y-126035812D01*
X124980000Y-126048072D01*
X126480000Y-126048072D01*
X126604482Y-126035812D01*
X126724180Y-125999502D01*
X126834494Y-125940537D01*
X126880000Y-125903191D01*
X126925506Y-125940537D01*
X127035820Y-125999502D01*
X127077500Y-126012146D01*
X127077500Y-126078215D01*
X127072892Y-126125000D01*
X127077500Y-126171784D01*
X127077500Y-126210462D01*
X125724565Y-127563397D01*
X125688223Y-127593222D01*
X125658399Y-127629563D01*
X125569194Y-127738260D01*
X125480749Y-127903731D01*
X125426283Y-128083278D01*
X125407892Y-128270000D01*
X125412501Y-128316795D01*
X125412500Y-133328615D01*
X125407892Y-133375400D01*
X125412500Y-133422184D01*
X125426283Y-133562122D01*
X125480748Y-133741668D01*
X125569194Y-133907141D01*
X125688222Y-134052178D01*
X125724569Y-134082007D01*
X126034801Y-134392239D01*
X126034800Y-134585910D01*
X126030192Y-134632700D01*
X126034800Y-134679485D01*
X126034800Y-135205264D01*
X126048583Y-135345202D01*
X126063478Y-135394304D01*
X126063478Y-135844280D01*
X126075738Y-135968762D01*
X126112048Y-136088460D01*
X126171013Y-136198774D01*
X126250365Y-136295465D01*
X126347056Y-136374817D01*
X126457370Y-136433782D01*
X126577068Y-136470092D01*
X126701550Y-136482352D01*
X126775338Y-136482352D01*
X126757200Y-136526140D01*
X126715520Y-136735678D01*
X126715520Y-136949322D01*
X126757200Y-137158860D01*
X126838958Y-137356241D01*
X126957652Y-137533880D01*
X127108720Y-137684948D01*
X127236010Y-137770000D01*
X125366990Y-137770000D01*
X125494280Y-137684948D01*
X125645348Y-137533880D01*
X125764042Y-137356241D01*
X125845800Y-137158860D01*
X125887480Y-136949322D01*
X125887480Y-136735678D01*
X125845800Y-136526140D01*
X125764042Y-136328759D01*
X125645348Y-136151120D01*
X125494280Y-136000052D01*
X125316641Y-135881358D01*
X125119260Y-135799600D01*
X125040922Y-135784017D01*
X125040922Y-134345680D01*
X125028662Y-134221198D01*
X125003184Y-134137208D01*
X124992317Y-134026877D01*
X124981263Y-133990437D01*
X124937852Y-133847331D01*
X124849406Y-133681859D01*
X124730378Y-133536822D01*
X124694036Y-133506997D01*
X123896607Y-132709569D01*
X123866778Y-132673222D01*
X123721741Y-132554194D01*
X123556269Y-132465748D01*
X123376723Y-132411283D01*
X123236785Y-132397500D01*
X123190000Y-132392892D01*
X123143215Y-132397500D01*
X120409538Y-132397500D01*
X118072038Y-130060000D01*
X119956928Y-130060000D01*
X119956928Y-131560000D01*
X119969188Y-131684482D01*
X120005498Y-131804180D01*
X120064463Y-131914494D01*
X120143815Y-132011185D01*
X120240506Y-132090537D01*
X120350820Y-132149502D01*
X120470518Y-132185812D01*
X120595000Y-132198072D01*
X122895000Y-132198072D01*
X123019482Y-132185812D01*
X123139180Y-132149502D01*
X123249494Y-132090537D01*
X123346185Y-132011185D01*
X123425537Y-131914494D01*
X123484502Y-131804180D01*
X123520812Y-131684482D01*
X123533072Y-131560000D01*
X123533072Y-130060000D01*
X123520812Y-129935518D01*
X123484502Y-129815820D01*
X123425537Y-129705506D01*
X123346185Y-129608815D01*
X123249494Y-129529463D01*
X123139180Y-129470498D01*
X123019482Y-129434188D01*
X122895000Y-129421928D01*
X122697500Y-129421928D01*
X122697500Y-128215047D01*
X122740226Y-128111898D01*
X122780000Y-127911939D01*
X122780000Y-127708061D01*
X122740226Y-127508102D01*
X122662205Y-127319744D01*
X122548937Y-127150226D01*
X122404774Y-127006063D01*
X122235256Y-126892795D01*
X122046898Y-126814774D01*
X121846939Y-126775000D01*
X121643061Y-126775000D01*
X121443102Y-126814774D01*
X121254744Y-126892795D01*
X121085226Y-127006063D01*
X120941063Y-127150226D01*
X120827795Y-127319744D01*
X120749774Y-127508102D01*
X120710000Y-127708061D01*
X120710000Y-127911939D01*
X120749774Y-128111898D01*
X120792501Y-128215049D01*
X120792500Y-129421928D01*
X120595000Y-129421928D01*
X120470518Y-129434188D01*
X120350820Y-129470498D01*
X120240506Y-129529463D01*
X120143815Y-129608815D01*
X120064463Y-129705506D01*
X120005498Y-129815820D01*
X119969188Y-129935518D01*
X119956928Y-130060000D01*
X118072038Y-130060000D01*
X117411500Y-129399462D01*
X117411500Y-126658765D01*
X117692491Y-126471013D01*
X117962013Y-126201491D01*
X118173775Y-125884566D01*
X118319639Y-125532419D01*
X118343989Y-125410000D01*
X122041928Y-125410000D01*
X122054188Y-125534482D01*
X122090498Y-125654180D01*
X122149463Y-125764494D01*
X122228815Y-125861185D01*
X122325506Y-125940537D01*
X122435820Y-125999502D01*
X122555518Y-126035812D01*
X122680000Y-126048072D01*
X123144250Y-126045000D01*
X123303000Y-125886250D01*
X123303000Y-124537000D01*
X122203750Y-124537000D01*
X122045000Y-124695750D01*
X122041928Y-125410000D01*
X118343989Y-125410000D01*
X118394000Y-125158581D01*
X118394000Y-124777419D01*
X118319639Y-124403581D01*
X118173775Y-124051434D01*
X117962013Y-123734509D01*
X117692491Y-123464987D01*
X117610197Y-123410000D01*
X122041928Y-123410000D01*
X122045000Y-124124250D01*
X122203750Y-124283000D01*
X123303000Y-124283000D01*
X123303000Y-122933750D01*
X123144250Y-122775000D01*
X122680000Y-122771928D01*
X122555518Y-122784188D01*
X122435820Y-122820498D01*
X122325506Y-122879463D01*
X122228815Y-122958815D01*
X122149463Y-123055506D01*
X122090498Y-123165820D01*
X122054188Y-123285518D01*
X122041928Y-123410000D01*
X117610197Y-123410000D01*
X117375566Y-123253225D01*
X117023419Y-123107361D01*
X116649581Y-123033000D01*
X116268419Y-123033000D01*
X115894581Y-123107361D01*
X115542434Y-123253225D01*
X115225509Y-123464987D01*
X114955987Y-123734509D01*
X114744225Y-124051434D01*
X114598361Y-124403581D01*
X114524000Y-124777419D01*
X114524000Y-125158581D01*
X114598361Y-125532419D01*
X114744225Y-125884566D01*
X114955987Y-126201491D01*
X115225509Y-126471013D01*
X115506501Y-126658765D01*
X115506500Y-129747215D01*
X115501892Y-129794000D01*
X115506500Y-129840784D01*
X115520283Y-129980722D01*
X115574748Y-130160268D01*
X115663194Y-130325741D01*
X115782222Y-130470778D01*
X115818569Y-130500607D01*
X119308393Y-133990431D01*
X119338222Y-134026778D01*
X119483259Y-134145806D01*
X119648731Y-134234252D01*
X119828277Y-134288717D01*
X120014999Y-134307108D01*
X120061784Y-134302500D01*
X122795462Y-134302500D01*
X123066278Y-134573317D01*
X123066278Y-134705828D01*
X122152410Y-134705828D01*
X122027928Y-134718088D01*
X121908230Y-134754398D01*
X121797916Y-134813363D01*
X121701225Y-134892715D01*
X121621873Y-134989406D01*
X121562908Y-135099720D01*
X121526598Y-135219418D01*
X121514338Y-135343900D01*
X121514338Y-136141460D01*
X121526598Y-136265942D01*
X121562908Y-136385640D01*
X121621873Y-136495954D01*
X121701225Y-136592645D01*
X121797916Y-136671997D01*
X121908230Y-136730962D01*
X122027928Y-136767272D01*
X122152410Y-136779532D01*
X123150630Y-136779532D01*
X123275112Y-136767272D01*
X123394810Y-136730962D01*
X123505124Y-136671997D01*
X123601815Y-136592645D01*
X123681167Y-136495954D01*
X123689233Y-136480863D01*
X123704350Y-136482352D01*
X123778138Y-136482352D01*
X123760000Y-136526140D01*
X123718320Y-136735678D01*
X123718320Y-136949322D01*
X123760000Y-137158860D01*
X123841758Y-137356241D01*
X123960452Y-137533880D01*
X124111520Y-137684948D01*
X124238810Y-137770000D01*
X123788702Y-137770000D01*
X123788702Y-137541000D01*
X123776442Y-137416518D01*
X123740132Y-137296820D01*
X123681167Y-137186506D01*
X123601815Y-137089815D01*
X123505124Y-137010463D01*
X123394810Y-136951498D01*
X123275112Y-136915188D01*
X123150630Y-136902928D01*
X122152410Y-136902928D01*
X122027928Y-136915188D01*
X121908230Y-136951498D01*
X121797916Y-137010463D01*
X121701225Y-137089815D01*
X121621873Y-137186506D01*
X121562908Y-137296820D01*
X121526598Y-137416518D01*
X121514338Y-137541000D01*
X121514338Y-137770000D01*
X111150000Y-137770000D01*
X111150000Y-135724042D01*
X111345000Y-135724042D01*
X111345000Y-136055958D01*
X111409754Y-136381496D01*
X111536772Y-136688147D01*
X111721175Y-136964125D01*
X111955875Y-137198825D01*
X112231853Y-137383228D01*
X112538504Y-137510246D01*
X112864042Y-137575000D01*
X113195958Y-137575000D01*
X113521496Y-137510246D01*
X113828147Y-137383228D01*
X114104125Y-137198825D01*
X114338825Y-136964125D01*
X114523228Y-136688147D01*
X114650246Y-136381496D01*
X114715000Y-136055958D01*
X114715000Y-135724042D01*
X114650246Y-135398504D01*
X114523228Y-135091853D01*
X114338825Y-134815875D01*
X114104125Y-134581175D01*
X113828147Y-134396772D01*
X113521496Y-134269754D01*
X113195958Y-134205000D01*
X112864042Y-134205000D01*
X112538504Y-134269754D01*
X112231853Y-134396772D01*
X111955875Y-134581175D01*
X111721175Y-134815875D01*
X111536772Y-135091853D01*
X111409754Y-135398504D01*
X111345000Y-135724042D01*
X111150000Y-135724042D01*
X111150000Y-121188000D01*
X114520928Y-121188000D01*
X114533188Y-121312482D01*
X114569498Y-121432180D01*
X114628463Y-121542494D01*
X114707815Y-121639185D01*
X114804506Y-121718537D01*
X114914820Y-121777502D01*
X115034518Y-121813812D01*
X115159000Y-121826072D01*
X116173250Y-121823000D01*
X116332000Y-121664250D01*
X116332000Y-120015000D01*
X116586000Y-120015000D01*
X116586000Y-121664250D01*
X116744750Y-121823000D01*
X117759000Y-121826072D01*
X117883482Y-121813812D01*
X118003180Y-121777502D01*
X118113494Y-121718537D01*
X118210185Y-121639185D01*
X118289537Y-121542494D01*
X118348502Y-121432180D01*
X118384812Y-121312482D01*
X118397072Y-121188000D01*
X118394000Y-120173750D01*
X118235250Y-120015000D01*
X116586000Y-120015000D01*
X116332000Y-120015000D01*
X114682750Y-120015000D01*
X114524000Y-120173750D01*
X114520928Y-121188000D01*
X111150000Y-121188000D01*
X111150000Y-118588000D01*
X114520928Y-118588000D01*
X114524000Y-119602250D01*
X114682750Y-119761000D01*
X116332000Y-119761000D01*
X116332000Y-118111750D01*
X116586000Y-118111750D01*
X116586000Y-119761000D01*
X118235250Y-119761000D01*
X118394000Y-119602250D01*
X118397072Y-118588000D01*
X118384812Y-118463518D01*
X118348502Y-118343820D01*
X118289537Y-118233506D01*
X118210185Y-118136815D01*
X118113494Y-118057463D01*
X118003180Y-117998498D01*
X117883482Y-117962188D01*
X117759000Y-117949928D01*
X116744750Y-117953000D01*
X116586000Y-118111750D01*
X116332000Y-118111750D01*
X116173250Y-117953000D01*
X115159000Y-117949928D01*
X115034518Y-117962188D01*
X114914820Y-117998498D01*
X114804506Y-118057463D01*
X114707815Y-118136815D01*
X114628463Y-118233506D01*
X114569498Y-118343820D01*
X114533188Y-118463518D01*
X114520928Y-118588000D01*
X111150000Y-118588000D01*
X111150000Y-109765000D01*
X122831928Y-109765000D01*
X122835000Y-110204250D01*
X122993750Y-110363000D01*
X123930500Y-110363000D01*
X123930500Y-109288750D01*
X123771750Y-109130000D01*
X123470000Y-109126928D01*
X123345518Y-109139188D01*
X123225820Y-109175498D01*
X123115506Y-109234463D01*
X123018815Y-109313815D01*
X122939463Y-109410506D01*
X122880498Y-109520820D01*
X122844188Y-109640518D01*
X122831928Y-109765000D01*
X111150000Y-109765000D01*
X111150000Y-107149042D01*
X111345000Y-107149042D01*
X111345000Y-107480958D01*
X111409754Y-107806496D01*
X111536772Y-108113147D01*
X111721175Y-108389125D01*
X111955875Y-108623825D01*
X112231853Y-108808228D01*
X112538504Y-108935246D01*
X112864042Y-109000000D01*
X113195958Y-109000000D01*
X113521496Y-108935246D01*
X113828147Y-108808228D01*
X114104125Y-108623825D01*
X114338825Y-108389125D01*
X114523228Y-108113147D01*
X114650246Y-107806496D01*
X114715000Y-107480958D01*
X114715000Y-107149042D01*
X114650246Y-106823504D01*
X114523228Y-106516853D01*
X114338825Y-106240875D01*
X114104125Y-106006175D01*
X113828147Y-105821772D01*
X113521496Y-105694754D01*
X113195958Y-105630000D01*
X112864042Y-105630000D01*
X112538504Y-105694754D01*
X112231853Y-105821772D01*
X111955875Y-106006175D01*
X111721175Y-106240875D01*
X111536772Y-106516853D01*
X111409754Y-106823504D01*
X111345000Y-107149042D01*
X111150000Y-107149042D01*
X111150000Y-105435000D01*
X127161137Y-105435000D01*
X127164000Y-105716250D01*
G04 #@! TA.AperFunction,Conductor*
D36*
G36*
X127164000Y-105716250D02*
G01*
X127322750Y-105875000D01*
X128397000Y-105875000D01*
X128397000Y-105855000D01*
X128651000Y-105855000D01*
X128651000Y-105875000D01*
X129725250Y-105875000D01*
X129884000Y-105716250D01*
X129886863Y-105435000D01*
X158725001Y-105435000D01*
X158725000Y-137770000D01*
X139674584Y-137770000D01*
X139717295Y-137671310D01*
X139763400Y-137457200D01*
X139763400Y-137337351D01*
X139763450Y-137330200D01*
X139763450Y-136380200D01*
X139763400Y-136379690D01*
X139763400Y-136372477D01*
X139763403Y-136372442D01*
X139763400Y-136372286D01*
X139763400Y-136253200D01*
X139717295Y-136039090D01*
X139630305Y-135838089D01*
X139551476Y-135724042D01*
X155160000Y-135724042D01*
X155160000Y-136055958D01*
X155224754Y-136381496D01*
X155351772Y-136688147D01*
X155536175Y-136964125D01*
X155770875Y-137198825D01*
X156046853Y-137383228D01*
X156353504Y-137510246D01*
X156679042Y-137575000D01*
X157010958Y-137575000D01*
X157336496Y-137510246D01*
X157643147Y-137383228D01*
X157919125Y-137198825D01*
X158153825Y-136964125D01*
X158338228Y-136688147D01*
X158465246Y-136381496D01*
X158530000Y-136055958D01*
X158530000Y-135724042D01*
X158465246Y-135398504D01*
X158338228Y-135091853D01*
X158153825Y-134815875D01*
X157919125Y-134581175D01*
X157643147Y-134396772D01*
X157336496Y-134269754D01*
X157010958Y-134205000D01*
X156679042Y-134205000D01*
X156353504Y-134269754D01*
X156046853Y-134396772D01*
X155770875Y-134581175D01*
X155536175Y-134815875D01*
X155351772Y-135091853D01*
X155224754Y-135398504D01*
X155160000Y-135724042D01*
X139551476Y-135724042D01*
X139505773Y-135657921D01*
X139348485Y-135505510D01*
X139164486Y-135386713D01*
X139097701Y-135362969D01*
X139089633Y-135359560D01*
X139066658Y-135350043D01*
X139054945Y-135346484D01*
X139043941Y-135341141D01*
X139035603Y-135338122D01*
X139012161Y-135329822D01*
X139000296Y-135326886D01*
X138989033Y-135322128D01*
X138980549Y-135319550D01*
X138956705Y-135312487D01*
X138954538Y-135312070D01*
X138951338Y-135310932D01*
X138950779Y-135311346D01*
X138944689Y-135310173D01*
X138933188Y-135306010D01*
X138924580Y-135303879D01*
X138900399Y-135298074D01*
X138888290Y-135296394D01*
X138876596Y-135292841D01*
X138867888Y-135291164D01*
X138843437Y-135286632D01*
X138831252Y-135285587D01*
X138819383Y-135282650D01*
X138810600Y-135281431D01*
X138785944Y-135278185D01*
X138780402Y-135278001D01*
X138780402Y-135270200D01*
X138660551Y-135270200D01*
X138653400Y-135270150D01*
X138366434Y-135270150D01*
X138412928Y-135094333D01*
X137653400Y-134334805D01*
X137639258Y-134348948D01*
X137459653Y-134169343D01*
X137473795Y-134155200D01*
X137833005Y-134155200D01*
X138592533Y-134914728D01*
X138828850Y-134852235D01*
X138942250Y-134609522D01*
X139006119Y-134349351D01*
X139018004Y-134081718D01*
X138977448Y-133816909D01*
X138886009Y-133565100D01*
X138828850Y-133458165D01*
X138592533Y-133395672D01*
X137833005Y-134155200D01*
X137473795Y-134155200D01*
X137459653Y-134141058D01*
X137639258Y-133961453D01*
X137653400Y-133975595D01*
X138412928Y-133216067D01*
X138350435Y-132979750D01*
X138107722Y-132866350D01*
X137847551Y-132802481D01*
X137579918Y-132790596D01*
X137315109Y-132831152D01*
X137063300Y-132922591D01*
X136986323Y-132963737D01*
X136906976Y-132919679D01*
X136787874Y-132881459D01*
X136685150Y-132870200D01*
X136526400Y-133028950D01*
X136526400Y-133141522D01*
X136454585Y-133054015D01*
X136357894Y-132974663D01*
X136289618Y-132938168D01*
X136221650Y-132870200D01*
X136130520Y-132880188D01*
X136127882Y-132879388D01*
X136003400Y-132867128D01*
X135603400Y-132867128D01*
X135478918Y-132879388D01*
X135478400Y-132879545D01*
X135477882Y-132879388D01*
X135353400Y-132867128D01*
X134953400Y-132867128D01*
X134828918Y-132879388D01*
X134828400Y-132879545D01*
X134827882Y-132879388D01*
X134703400Y-132867128D01*
X134612438Y-132867128D01*
X134551036Y-132752254D01*
X134520462Y-132715000D01*
X134446691Y-132625109D01*
X134414821Y-132598954D01*
X133969446Y-132153579D01*
X133943291Y-132121709D01*
X133816146Y-132017364D01*
X133671087Y-131939828D01*
X133513689Y-131892082D01*
X133391019Y-131880000D01*
X133391018Y-131880000D01*
X133350000Y-131875960D01*
X133308982Y-131880000D01*
X130216018Y-131880000D01*
X130175000Y-131875960D01*
X130144530Y-131878961D01*
X130184502Y-131804180D01*
X130220812Y-131684482D01*
X130233072Y-131560000D01*
X130230000Y-131095750D01*
X130071250Y-130937000D01*
X128572000Y-130937000D01*
X128572000Y-132036250D01*
X128730750Y-132195000D01*
X129511356Y-132197775D01*
X127949493Y-133759640D01*
X127915892Y-133777600D01*
X127907049Y-133748448D01*
X127871552Y-133631431D01*
X127783106Y-133465959D01*
X127664078Y-133320922D01*
X127627731Y-133291093D01*
X127317500Y-132980862D01*
X127317500Y-132197992D01*
X128159250Y-132195000D01*
X128318000Y-132036250D01*
X128318000Y-130937000D01*
X128298000Y-130937000D01*
X128298000Y-130875000D01*
X134667928Y-130875000D01*
X134680188Y-130999482D01*
X134716498Y-131119180D01*
X134775463Y-131229494D01*
X134854815Y-131326185D01*
X134951506Y-131405537D01*
X135061820Y-131464502D01*
X135181518Y-131500812D01*
X135306000Y-131513072D01*
X135595250Y-131510000D01*
X135754000Y-131351250D01*
X135754000Y-130302000D01*
X134829750Y-130302000D01*
X134671000Y-130460750D01*
X134667928Y-130875000D01*
X128298000Y-130875000D01*
X128298000Y-130683000D01*
X128318000Y-130683000D01*
X128318000Y-129583750D01*
X128572000Y-129583750D01*
X128572000Y-130683000D01*
X130071250Y-130683000D01*
X130230000Y-130524250D01*
X130233072Y-130060000D01*
X130220812Y-129935518D01*
X130184502Y-129815820D01*
X130125537Y-129705506D01*
X130046185Y-129608815D01*
X129949494Y-129529463D01*
X129839180Y-129470498D01*
X129719482Y-129434188D01*
X129595000Y-129421928D01*
X128730750Y-129425000D01*
X128572000Y-129583750D01*
X128318000Y-129583750D01*
X128159250Y-129425000D01*
X127317500Y-129422008D01*
X127317500Y-128664538D01*
X128270000Y-127712038D01*
X128833393Y-128275431D01*
X128863222Y-128311778D01*
X129008259Y-128430806D01*
X129173731Y-128519252D01*
X129353277Y-128573717D01*
X129539999Y-128592108D01*
X129586784Y-128587500D01*
X129958104Y-128587500D01*
X129966595Y-128603386D01*
X130077038Y-128737962D01*
X130211614Y-128848405D01*
X130365150Y-128930472D01*
X130531746Y-128981008D01*
X130705000Y-128998072D01*
X131380000Y-128998072D01*
X131553254Y-128981008D01*
X131719850Y-128930472D01*
X131873386Y-128848405D01*
X132007962Y-128737962D01*
X132013342Y-128731406D01*
X132078815Y-128811185D01*
X132175506Y-128890537D01*
X132285820Y-128949502D01*
X132405518Y-128985812D01*
X132530000Y-128998072D01*
X132831750Y-128995000D01*
X132990500Y-128836250D01*
X132990500Y-127762000D01*
X133244500Y-127762000D01*
X133244500Y-128836250D01*
X133403250Y-128995000D01*
X133705000Y-128998072D01*
X133829482Y-128985812D01*
X133949180Y-128949502D01*
X134059494Y-128890537D01*
X134156185Y-128811185D01*
X134235537Y-128714494D01*
X134294502Y-128604180D01*
X134330812Y-128484482D01*
X134343072Y-128360000D01*
X134340000Y-127920750D01*
X134181250Y-127762000D01*
X133244500Y-127762000D01*
X132990500Y-127762000D01*
X132970500Y-127762000D01*
X132970500Y-127508000D01*
X132990500Y-127508000D01*
X132990500Y-126433750D01*
X133244500Y-126433750D01*
X133244500Y-127508000D01*
X134181250Y-127508000D01*
X134340000Y-127349250D01*
X134343072Y-126910000D01*
X134330812Y-126785518D01*
X134294502Y-126665820D01*
X134235537Y-126555506D01*
X134156185Y-126458815D01*
X134059494Y-126379463D01*
X133949180Y-126320498D01*
X133829482Y-126284188D01*
X133705000Y-126271928D01*
X133403250Y-126275000D01*
X133244500Y-126433750D01*
X132990500Y-126433750D01*
X132831750Y-126275000D01*
X132530000Y-126271928D01*
X132405518Y-126284188D01*
X132285820Y-126320498D01*
X132175506Y-126379463D01*
X132078815Y-126458815D01*
X132013342Y-126538594D01*
X132007962Y-126532038D01*
X131873386Y-126421595D01*
X131719850Y-126339528D01*
X131553254Y-126288992D01*
X131380000Y-126271928D01*
X130705000Y-126271928D01*
X130531746Y-126288992D01*
X130365150Y-126339528D01*
X130211614Y-126421595D01*
X130077038Y-126532038D01*
X129966595Y-126666614D01*
X129958104Y-126682500D01*
X129934538Y-126682500D01*
X129166395Y-125914357D01*
X129231185Y-125861185D01*
X129310537Y-125764494D01*
X129369502Y-125654180D01*
X129405812Y-125534482D01*
X129418072Y-125410000D01*
X129418072Y-125190000D01*
X133286928Y-125190000D01*
X133299188Y-125314482D01*
X133335498Y-125434180D01*
X133394463Y-125544494D01*
X133473815Y-125641185D01*
X133570506Y-125720537D01*
X133680820Y-125779502D01*
X133800518Y-125815812D01*
X133925000Y-125828072D01*
X134089250Y-125825000D01*
X134248000Y-125666250D01*
X134248000Y-124317000D01*
X133448750Y-124317000D01*
X133290000Y-124475750D01*
X133286928Y-125190000D01*
X129418072Y-125190000D01*
X129418072Y-123410000D01*
X129405812Y-123285518D01*
X129369502Y-123165820D01*
X129310537Y-123055506D01*
X129231185Y-122958815D01*
X129134494Y-122879463D01*
X129024180Y-122820498D01*
X128904482Y-122784188D01*
X128780000Y-122771928D01*
X127280000Y-122771928D01*
X127155518Y-122784188D01*
X127035820Y-122820498D01*
X126925506Y-122879463D01*
X126880000Y-122916809D01*
X126834494Y-122879463D01*
X126724180Y-122820498D01*
X126682500Y-122807855D01*
X126682500Y-119748072D01*
X127630000Y-119748072D01*
X127754482Y-119735812D01*
X127874180Y-119699502D01*
X127984494Y-119640537D01*
X128081185Y-119561185D01*
X128160537Y-119464494D01*
X128219502Y-119354180D01*
X128255812Y-119234482D01*
X128268072Y-119110000D01*
X128268072Y-117110000D01*
X128255812Y-116985518D01*
X128219502Y-116865820D01*
X128160537Y-116755506D01*
X128081185Y-116658815D01*
X127984494Y-116579463D01*
X127874180Y-116520498D01*
X127754482Y-116484188D01*
X127630000Y-116471928D01*
X126682500Y-116471928D01*
X126682500Y-115786896D01*
X126698386Y-115778405D01*
X126832962Y-115667962D01*
X126843600Y-115655000D01*
X127587706Y-115655000D01*
X127707613Y-115753405D01*
X127861149Y-115835472D01*
X128027745Y-115886008D01*
X128200999Y-115903072D01*
X129101001Y-115903072D01*
X129274255Y-115886008D01*
X129440851Y-115835472D01*
X129594387Y-115753405D01*
X129728962Y-115642962D01*
X129839405Y-115508387D01*
X129921472Y-115354851D01*
X129951928Y-115254450D01*
X129951928Y-116020000D01*
X129964188Y-116144482D01*
X129982546Y-116205000D01*
X129964188Y-116265518D01*
X129951928Y-116390000D01*
X129951928Y-117290000D01*
X129964188Y-117414482D01*
X129982546Y-117475000D01*
X129964188Y-117535518D01*
X129951928Y-117660000D01*
X129951928Y-118560000D01*
X129964188Y-118684482D01*
X129982546Y-118745000D01*
X129964188Y-118805518D01*
X129951928Y-118930000D01*
X129951928Y-119830000D01*
X129964188Y-119954482D01*
X129982546Y-120015000D01*
X129964188Y-120075518D01*
X129951928Y-120200000D01*
X129951928Y-121100000D01*
X129964188Y-121224482D01*
X129982546Y-121285000D01*
X129964188Y-121345518D01*
X129951928Y-121470000D01*
X129951928Y-122370000D01*
X129964188Y-122494482D01*
X129982546Y-122555000D01*
X129964188Y-122615518D01*
X129951928Y-122740000D01*
X129951928Y-123640000D01*
X129964188Y-123764482D01*
X130000498Y-123884180D01*
X130059463Y-123994494D01*
X130138815Y-124091185D01*
X130235506Y-124170537D01*
X130345820Y-124229502D01*
X130465518Y-124265812D01*
X130590000Y-124278072D01*
X132590000Y-124278072D01*
X132714482Y-124265812D01*
X132834180Y-124229502D01*
X132944494Y-124170537D01*
X133041185Y-124091185D01*
X133120537Y-123994494D01*
X133179502Y-123884180D01*
X133215812Y-123764482D01*
X133228072Y-123640000D01*
X133228072Y-123190000D01*
X133286928Y-123190000D01*
X133290000Y-123904250D01*
X133448750Y-124063000D01*
X134248000Y-124063000D01*
X134248000Y-122713750D01*
X134502000Y-122713750D01*
X134502000Y-124063000D01*
X134522000Y-124063000D01*
X134522000Y-124317000D01*
X134502000Y-124317000D01*
X134502000Y-125666250D01*
X134660750Y-125825000D01*
X134692501Y-125825594D01*
X134692501Y-125946206D01*
X134687892Y-125993000D01*
X134706283Y-126179722D01*
X134760749Y-126359269D01*
X134800560Y-126433750D01*
X134849195Y-126524741D01*
X134901869Y-126588925D01*
X134817595Y-126691613D01*
X134735528Y-126845149D01*
X134684992Y-127011745D01*
X134667928Y-127184999D01*
X134667928Y-128085001D01*
X134684992Y-128258255D01*
X134735528Y-128424851D01*
X134817595Y-128578387D01*
X134928038Y-128712962D01*
X135062613Y-128823405D01*
X135136435Y-128862864D01*
X135061820Y-128885498D01*
X134951506Y-128944463D01*
X134854815Y-129023815D01*
X134775463Y-129120506D01*
X134716498Y-129230820D01*
X134680188Y-129350518D01*
X134667928Y-129475000D01*
X134671000Y-129889250D01*
X134829750Y-130048000D01*
X135754000Y-130048000D01*
X135754000Y-130028000D01*
X136008000Y-130028000D01*
X136008000Y-130048000D01*
X136028000Y-130048000D01*
X136028000Y-130302000D01*
X136008000Y-130302000D01*
X136008000Y-131351250D01*
X136166750Y-131510000D01*
X136456000Y-131513072D01*
X136580482Y-131500812D01*
X136700180Y-131464502D01*
X136810494Y-131405537D01*
X136907185Y-131326185D01*
X136972658Y-131246406D01*
X136978038Y-131252962D01*
X137112613Y-131363405D01*
X137266149Y-131445472D01*
X137432745Y-131496008D01*
X137605999Y-131513072D01*
X138256001Y-131513072D01*
X138429255Y-131496008D01*
X138595851Y-131445472D01*
X138749387Y-131363405D01*
X138883962Y-131252962D01*
X138994405Y-131118387D01*
X139076472Y-130964851D01*
X139127008Y-130798255D01*
X139144072Y-130625001D01*
X139144072Y-129724999D01*
X139127008Y-129551745D01*
X139076472Y-129385149D01*
X138994405Y-129231613D01*
X138883962Y-129097038D01*
X138858500Y-129076142D01*
X138858500Y-128733858D01*
X138883962Y-128712962D01*
X138994405Y-128578387D01*
X139076472Y-128424851D01*
X139127008Y-128258255D01*
X139144072Y-128085001D01*
X139144072Y-127184999D01*
X139127008Y-127011745D01*
X139076472Y-126845149D01*
X138994405Y-126691613D01*
X138883962Y-126557038D01*
X138749387Y-126446595D01*
X138595851Y-126364528D01*
X138429255Y-126313992D01*
X138256001Y-126296928D01*
X137555999Y-126296928D01*
X137382745Y-126313992D01*
X137216149Y-126364528D01*
X137062613Y-126446595D01*
X136928038Y-126557038D01*
X136906000Y-126583891D01*
X136883962Y-126557038D01*
X136858500Y-126536142D01*
X136858500Y-126300785D01*
X136863108Y-126254000D01*
X136844717Y-126067278D01*
X136824158Y-125999502D01*
X136790252Y-125887731D01*
X136758364Y-125828072D01*
X137365000Y-125828072D01*
X137489482Y-125815812D01*
X137550000Y-125797454D01*
X137610518Y-125815812D01*
X137735000Y-125828072D01*
X138635000Y-125828072D01*
X138759482Y-125815812D01*
X138820000Y-125797454D01*
X138880518Y-125815812D01*
X139005000Y-125828072D01*
X139905000Y-125828072D01*
X140029482Y-125815812D01*
X140090000Y-125797454D01*
X140150518Y-125815812D01*
X140275000Y-125828072D01*
X141175000Y-125828072D01*
X141299482Y-125815812D01*
X141360000Y-125797454D01*
X141420518Y-125815812D01*
X141545000Y-125828072D01*
X142445000Y-125828072D01*
X142569482Y-125815812D01*
X142630000Y-125797454D01*
X142690518Y-125815812D01*
X142815000Y-125828072D01*
X143582500Y-125828072D01*
X143582501Y-130445000D01*
X143388967Y-130445000D01*
X143073088Y-130507832D01*
X142775537Y-130631082D01*
X142507748Y-130810013D01*
X142280013Y-131037748D01*
X142101082Y-131305537D01*
X141977832Y-131603088D01*
X141915000Y-131918967D01*
X141915000Y-132241033D01*
X141977832Y-132556912D01*
X142101082Y-132854463D01*
X142280013Y-133122252D01*
X142507748Y-133349987D01*
X142775537Y-133528918D01*
X143073088Y-133652168D01*
X143388967Y-133715000D01*
X143711033Y-133715000D01*
X144026912Y-133652168D01*
X144324463Y-133528918D01*
X144592252Y-133349987D01*
X144726826Y-133215413D01*
X147594192Y-133215413D01*
X147689956Y-133479814D01*
X147979571Y-133620704D01*
X148291108Y-133702384D01*
X148612595Y-133721718D01*
X148931675Y-133677961D01*
X149236088Y-133572795D01*
X149410044Y-133479814D01*
X149505808Y-133215413D01*
X148550000Y-132259605D01*
X147594192Y-133215413D01*
X144726826Y-133215413D01*
X144819987Y-133122252D01*
X144998918Y-132854463D01*
X145122168Y-132556912D01*
X145185000Y-132241033D01*
X145185000Y-132142595D01*
X146908282Y-132142595D01*
X146952039Y-132461675D01*
X147057205Y-132766088D01*
X147150186Y-132940044D01*
X147414587Y-133035808D01*
X148370395Y-132080000D01*
X148729605Y-132080000D01*
X149685413Y-133035808D01*
X149949814Y-132940044D01*
X150090704Y-132650429D01*
X150172384Y-132338892D01*
X150191718Y-132017405D01*
X150147961Y-131698325D01*
X150042795Y-131393912D01*
X149963735Y-131246000D01*
X153170928Y-131246000D01*
X153183188Y-131370482D01*
X153219498Y-131490180D01*
X153278463Y-131600494D01*
X153357815Y-131697185D01*
X153454506Y-131776537D01*
X153564820Y-131835502D01*
X153684518Y-131871812D01*
X153809000Y-131884072D01*
X154273250Y-131881000D01*
X154432000Y-131722250D01*
X154432000Y-130223000D01*
X154686000Y-130223000D01*
X154686000Y-131722250D01*
X154844750Y-131881000D01*
X155309000Y-131884072D01*
X155433482Y-131871812D01*
X155553180Y-131835502D01*
X155663494Y-131776537D01*
X155760185Y-131697185D01*
X155839537Y-131600494D01*
X155898502Y-131490180D01*
X155934812Y-131370482D01*
X155947072Y-131246000D01*
X155944000Y-130381750D01*
X155785250Y-130223000D01*
X154686000Y-130223000D01*
X154432000Y-130223000D01*
X153332750Y-130223000D01*
X153174000Y-130381750D01*
X153170928Y-131246000D01*
X149963735Y-131246000D01*
X149949814Y-131219956D01*
X149685413Y-131124192D01*
X148729605Y-132080000D01*
X148370395Y-132080000D01*
X147414587Y-131124192D01*
X147150186Y-131219956D01*
X147009296Y-131509571D01*
X146927616Y-131821108D01*
X146908282Y-132142595D01*
X145185000Y-132142595D01*
X145185000Y-131918967D01*
X145163941Y-131813097D01*
X145175431Y-131801607D01*
X145211778Y-131771778D01*
X145330806Y-131626741D01*
X145419252Y-131461269D01*
X145473717Y-131281723D01*
X145476550Y-131252962D01*
X145492108Y-131095001D01*
X145487500Y-131048216D01*
X145487500Y-130944587D01*
X147594192Y-130944587D01*
X148550000Y-131900395D01*
X149505808Y-130944587D01*
X149410044Y-130680186D01*
X149120429Y-130539296D01*
X148808892Y-130457616D01*
X148487405Y-130438282D01*
X148168325Y-130482039D01*
X147863912Y-130587205D01*
X147689956Y-130680186D01*
X147594192Y-130944587D01*
X145487500Y-130944587D01*
X145487500Y-128946000D01*
X153170928Y-128946000D01*
X153174000Y-129810250D01*
X153332750Y-129969000D01*
X154432000Y-129969000D01*
X154432000Y-128469750D01*
X154686000Y-128469750D01*
X154686000Y-129969000D01*
X155785250Y-129969000D01*
X155944000Y-129810250D01*
X155947072Y-128946000D01*
X155934812Y-128821518D01*
X155898502Y-128701820D01*
X155839537Y-128591506D01*
X155760185Y-128494815D01*
X155663494Y-128415463D01*
X155553180Y-128356498D01*
X155433482Y-128320188D01*
X155309000Y-128307928D01*
X154844750Y-128311000D01*
X154686000Y-128469750D01*
X154432000Y-128469750D01*
X154273250Y-128311000D01*
X153809000Y-128307928D01*
X153684518Y-128320188D01*
X153564820Y-128356498D01*
X153454506Y-128415463D01*
X153357815Y-128494815D01*
X153278463Y-128591506D01*
X153219498Y-128701820D01*
X153183188Y-128821518D01*
X153170928Y-128946000D01*
X145487500Y-128946000D01*
X145487500Y-125828072D01*
X146255000Y-125828072D01*
X146379482Y-125815812D01*
X146499180Y-125779502D01*
X146609494Y-125720537D01*
X146706185Y-125641185D01*
X146785537Y-125544494D01*
X146844502Y-125434180D01*
X146880812Y-125314482D01*
X146893072Y-125190000D01*
X146893072Y-123190000D01*
X146880812Y-123065518D01*
X146844502Y-122945820D01*
X146785537Y-122835506D01*
X146706185Y-122738815D01*
X146609494Y-122659463D01*
X146499180Y-122600498D01*
X146379482Y-122564188D01*
X146255000Y-122551928D01*
X145355000Y-122551928D01*
X145230518Y-122564188D01*
X145170000Y-122582546D01*
X145109482Y-122564188D01*
X144985000Y-122551928D01*
X144085000Y-122551928D01*
X143960518Y-122564188D01*
X143900000Y-122582546D01*
X143839482Y-122564188D01*
X143715000Y-122551928D01*
X142815000Y-122551928D01*
X142690518Y-122564188D01*
X142630000Y-122582546D01*
X142569482Y-122564188D01*
X142445000Y-122551928D01*
X141545000Y-122551928D01*
X141420518Y-122564188D01*
X141360000Y-122582546D01*
X141299482Y-122564188D01*
X141175000Y-122551928D01*
X140275000Y-122551928D01*
X140150518Y-122564188D01*
X140090000Y-122582546D01*
X140029482Y-122564188D01*
X139905000Y-122551928D01*
X139005000Y-122551928D01*
X138880518Y-122564188D01*
X138820000Y-122582546D01*
X138759482Y-122564188D01*
X138635000Y-122551928D01*
X137735000Y-122551928D01*
X137610518Y-122564188D01*
X137550000Y-122582546D01*
X137489482Y-122564188D01*
X137365000Y-122551928D01*
X136465000Y-122551928D01*
X136340518Y-122564188D01*
X136280000Y-122582546D01*
X136219482Y-122564188D01*
X136095000Y-122551928D01*
X135195000Y-122551928D01*
X135070518Y-122564188D01*
X135010000Y-122582546D01*
X134949482Y-122564188D01*
X134825000Y-122551928D01*
X134660750Y-122555000D01*
X134502000Y-122713750D01*
X134248000Y-122713750D01*
X134089250Y-122555000D01*
X133925000Y-122551928D01*
X133800518Y-122564188D01*
X133680820Y-122600498D01*
X133570506Y-122659463D01*
X133473815Y-122738815D01*
X133394463Y-122835506D01*
X133335498Y-122945820D01*
X133299188Y-123065518D01*
X133286928Y-123190000D01*
X133228072Y-123190000D01*
X133228072Y-122740000D01*
X133215812Y-122615518D01*
X133197454Y-122555000D01*
X133215812Y-122494482D01*
X133228072Y-122370000D01*
X133228072Y-121470000D01*
X133215812Y-121345518D01*
X133197454Y-121285000D01*
X133215812Y-121224482D01*
X133228072Y-121100000D01*
X133228072Y-120200000D01*
X133215812Y-120075518D01*
X133197454Y-120015000D01*
X133215812Y-119954482D01*
X133228072Y-119830000D01*
X133228072Y-118930000D01*
X133215812Y-118805518D01*
X133197454Y-118745000D01*
X133215812Y-118684482D01*
X133228072Y-118560000D01*
X133228072Y-117660000D01*
X133215812Y-117535518D01*
X133197454Y-117475000D01*
X133215812Y-117414482D01*
X133228072Y-117290000D01*
X133228072Y-116390000D01*
X133215812Y-116265518D01*
X133197454Y-116205000D01*
X133215812Y-116144482D01*
X133228072Y-116020000D01*
X133228072Y-115120000D01*
X133215812Y-114995518D01*
X133197454Y-114935000D01*
X133215812Y-114874482D01*
X133228072Y-114750000D01*
X133228072Y-113850000D01*
X133215812Y-113725518D01*
X133197454Y-113665000D01*
X133215812Y-113604482D01*
X133228072Y-113480000D01*
X133228072Y-112580000D01*
X133215812Y-112455518D01*
X133197454Y-112395000D01*
X133215812Y-112334482D01*
X133228072Y-112210000D01*
X133228072Y-111680000D01*
X135951928Y-111680000D01*
X135955000Y-112059250D01*
X136113750Y-112218000D01*
X136808918Y-112218000D01*
X136743560Y-112243113D01*
X136691550Y-112270912D01*
X136658468Y-112472000D01*
X136113750Y-112472000D01*
X135955000Y-112630750D01*
X135951928Y-113010000D01*
X135964188Y-113134482D01*
X136000498Y-113254180D01*
X136004945Y-113262500D01*
X136000498Y-113270820D01*
X135964188Y-113390518D01*
X135951928Y-113515000D01*
X135955000Y-113894250D01*
X136113750Y-114053000D01*
X136658468Y-114053000D01*
X136679361Y-114180000D01*
X136658468Y-114307000D01*
X136113750Y-114307000D01*
X135955000Y-114465750D01*
X135951928Y-114845000D01*
X135964188Y-114969482D01*
X136000498Y-115089180D01*
X136004945Y-115097500D01*
X136000498Y-115105820D01*
X135964188Y-115225518D01*
X135951928Y-115350000D01*
X135955000Y-115729250D01*
X136113750Y-115888000D01*
X136658468Y-115888000D01*
X136691550Y-116089088D01*
X136810496Y-116142000D01*
X136113750Y-116142000D01*
X135955000Y-116300750D01*
X135951928Y-116680000D01*
X135964188Y-116804482D01*
X136000498Y-116924180D01*
X136059463Y-117034494D01*
X136138815Y-117131185D01*
X136235506Y-117210537D01*
X136345820Y-117269502D01*
X136465518Y-117305812D01*
X136590000Y-117318072D01*
X136969250Y-117315000D01*
X137128000Y-117156250D01*
X137128000Y-116461082D01*
X137153113Y-116526440D01*
X137180912Y-116578450D01*
X137382000Y-116611532D01*
X137382000Y-117156250D01*
X137540750Y-117315000D01*
X137920000Y-117318072D01*
X138044482Y-117305812D01*
X138164180Y-117269502D01*
X138172500Y-117265055D01*
X138180820Y-117269502D01*
X138300518Y-117305812D01*
X138425000Y-117318072D01*
X138804250Y-117315000D01*
X138963000Y-117156250D01*
X138963000Y-116611532D01*
X139090000Y-116590639D01*
X139217000Y-116611532D01*
X139217000Y-117156250D01*
X139375750Y-117315000D01*
X139755000Y-117318072D01*
X139879482Y-117305812D01*
X139999180Y-117269502D01*
X140007500Y-117265055D01*
X140015820Y-117269502D01*
X140135518Y-117305812D01*
X140260000Y-117318072D01*
X140639250Y-117315000D01*
X140798000Y-117156250D01*
X140798000Y-116611532D01*
X140999088Y-116578450D01*
X141052000Y-116459504D01*
X141052000Y-117156250D01*
X141210750Y-117315000D01*
X141590000Y-117318072D01*
X141714482Y-117305812D01*
X141834180Y-117269502D01*
X141944494Y-117210537D01*
X142041185Y-117131185D01*
X142120537Y-117034494D01*
X142179502Y-116924180D01*
X142215812Y-116804482D01*
X142228072Y-116680000D01*
X142225000Y-116300750D01*
X142066250Y-116142000D01*
X141371082Y-116142000D01*
X141436440Y-116116887D01*
X141488450Y-116089088D01*
X141521532Y-115888000D01*
X142066250Y-115888000D01*
X142225000Y-115729250D01*
X142228072Y-115350000D01*
X142215812Y-115225518D01*
X142179502Y-115105820D01*
X142175055Y-115097500D01*
X142179502Y-115089180D01*
X142215812Y-114969482D01*
X142228072Y-114845000D01*
X142225000Y-114465750D01*
X142066250Y-114307000D01*
X141521532Y-114307000D01*
X141500639Y-114180000D01*
X141521532Y-114053000D01*
X142066250Y-114053000D01*
X142225000Y-113894250D01*
X142228072Y-113515000D01*
X142215812Y-113390518D01*
X142179502Y-113270820D01*
X142175055Y-113262500D01*
X142179502Y-113254180D01*
X142215812Y-113134482D01*
X142228072Y-113010000D01*
X142225000Y-112630750D01*
X142066250Y-112472000D01*
X141521532Y-112472000D01*
X141488450Y-112270912D01*
X141369504Y-112218000D01*
X142066250Y-112218000D01*
X142225000Y-112059250D01*
X142228072Y-111680000D01*
X142215812Y-111555518D01*
X142179502Y-111435820D01*
X142120537Y-111325506D01*
X142041185Y-111228815D01*
X141944494Y-111149463D01*
X141834180Y-111090498D01*
X141714482Y-111054188D01*
X141590000Y-111041928D01*
X141210750Y-111045000D01*
X141052000Y-111203750D01*
X141052000Y-111898918D01*
X141026887Y-111833560D01*
X140999088Y-111781550D01*
X140798000Y-111748468D01*
X140798000Y-111203750D01*
X140639250Y-111045000D01*
X140260000Y-111041928D01*
X140135518Y-111054188D01*
X140015820Y-111090498D01*
X140007500Y-111094945D01*
X139999180Y-111090498D01*
X139879482Y-111054188D01*
X139755000Y-111041928D01*
X139375750Y-111045000D01*
X139217000Y-111203750D01*
X139217000Y-111748468D01*
X139090000Y-111769361D01*
X138963000Y-111748468D01*
X138963000Y-111203750D01*
X138804250Y-111045000D01*
X138425000Y-111041928D01*
X138300518Y-111054188D01*
X138180820Y-111090498D01*
X138172500Y-111094945D01*
X138164180Y-111090498D01*
X138044482Y-111054188D01*
X137920000Y-111041928D01*
X137540750Y-111045000D01*
X137382000Y-111203750D01*
X137382000Y-111748468D01*
X137180912Y-111781550D01*
X137128000Y-111900496D01*
X137128000Y-111203750D01*
X136969250Y-111045000D01*
X136590000Y-111041928D01*
X136465518Y-111054188D01*
X136345820Y-111090498D01*
X136235506Y-111149463D01*
X136138815Y-111228815D01*
X136059463Y-111325506D01*
X136000498Y-111435820D01*
X135964188Y-111555518D01*
X135951928Y-111680000D01*
X133228072Y-111680000D01*
X133228072Y-111310000D01*
X133215812Y-111185518D01*
X133197454Y-111125000D01*
X133215812Y-111064482D01*
X133228072Y-110940000D01*
X133228072Y-110040000D01*
X133215812Y-109915518D01*
X133197454Y-109855000D01*
X133215812Y-109794482D01*
X133228072Y-109670000D01*
X133228072Y-108770000D01*
X133215812Y-108645518D01*
X133197454Y-108585000D01*
X133215812Y-108524482D01*
X133228072Y-108400000D01*
X133228072Y-107500000D01*
X133215812Y-107375518D01*
X133197454Y-107315000D01*
X133215812Y-107254482D01*
X133228072Y-107130000D01*
X146951928Y-107130000D01*
X146964188Y-107254482D01*
X146982546Y-107315000D01*
X146964188Y-107375518D01*
X146951928Y-107500000D01*
X146951928Y-108400000D01*
X146964188Y-108524482D01*
X146982546Y-108585000D01*
X146964188Y-108645518D01*
X146951928Y-108770000D01*
X146951928Y-109670000D01*
X146964188Y-109794482D01*
X146982546Y-109855000D01*
X146964188Y-109915518D01*
X146951928Y-110040000D01*
X146951928Y-110940000D01*
X146964188Y-111064482D01*
X146982546Y-111125000D01*
X146964188Y-111185518D01*
X146951928Y-111310000D01*
X146951928Y-112210000D01*
X146964188Y-112334482D01*
X146982546Y-112395000D01*
X146964188Y-112455518D01*
X146951928Y-112580000D01*
X146951928Y-113480000D01*
X146964188Y-113604482D01*
X146982546Y-113665000D01*
X146964188Y-113725518D01*
X146951928Y-113850000D01*
X146951928Y-114750000D01*
X146964188Y-114874482D01*
X146982546Y-114935000D01*
X146964188Y-114995518D01*
X146951928Y-115120000D01*
X146951928Y-116020000D01*
X146964188Y-116144482D01*
X146982546Y-116205000D01*
X146964188Y-116265518D01*
X146951928Y-116390000D01*
X146951928Y-117290000D01*
X146964188Y-117414482D01*
X146982546Y-117475000D01*
X146964188Y-117535518D01*
X146951928Y-117660000D01*
X146951928Y-118560000D01*
X146964188Y-118684482D01*
X146982546Y-118745000D01*
X146964188Y-118805518D01*
X146951928Y-118930000D01*
X146951928Y-119830000D01*
X146964188Y-119954482D01*
X146982546Y-120015000D01*
X146964188Y-120075518D01*
X146951928Y-120200000D01*
X146951928Y-121100000D01*
X146964188Y-121224482D01*
X146982546Y-121285000D01*
X146964188Y-121345518D01*
X146951928Y-121470000D01*
X146951928Y-122370000D01*
X146964188Y-122494482D01*
X146982546Y-122555000D01*
X146964188Y-122615518D01*
X146951928Y-122740000D01*
X146951928Y-123640000D01*
X146964188Y-123764482D01*
X147000498Y-123884180D01*
X147059463Y-123994494D01*
X147138815Y-124091185D01*
X147235506Y-124170537D01*
X147345820Y-124229502D01*
X147465518Y-124265812D01*
X147590000Y-124278072D01*
X149590000Y-124278072D01*
X149714482Y-124265812D01*
X149834180Y-124229502D01*
X149944494Y-124170537D01*
X149978657Y-124142500D01*
X151337215Y-124142500D01*
X151384000Y-124147108D01*
X151430785Y-124142500D01*
X153170928Y-124142500D01*
X153170928Y-124546000D01*
X153183188Y-124670482D01*
X153219498Y-124790180D01*
X153278463Y-124900494D01*
X153357815Y-124997185D01*
X153454506Y-125076537D01*
X153564820Y-125135502D01*
X153684518Y-125171812D01*
X153809000Y-125184072D01*
X155309000Y-125184072D01*
X155433482Y-125171812D01*
X155553180Y-125135502D01*
X155663494Y-125076537D01*
X155760185Y-124997185D01*
X155839537Y-124900494D01*
X155898502Y-124790180D01*
X155934812Y-124670482D01*
X155947072Y-124546000D01*
X155947072Y-122246000D01*
X155934812Y-122121518D01*
X155898502Y-122001820D01*
X155839537Y-121891506D01*
X155760185Y-121794815D01*
X155663494Y-121715463D01*
X155553180Y-121656498D01*
X155459846Y-121628186D01*
X155488405Y-121593387D01*
X155570472Y-121439851D01*
X155621008Y-121273255D01*
X155638072Y-121100001D01*
X155638072Y-120199999D01*
X155621008Y-120026745D01*
X155570472Y-119860149D01*
X155488405Y-119706613D01*
X155377962Y-119572038D01*
X155352500Y-119551142D01*
X155352500Y-119235120D01*
X155409962Y-119187962D01*
X155520405Y-119053387D01*
X155602472Y-118899851D01*
X155653008Y-118733255D01*
X155670072Y-118560001D01*
X155670072Y-117659999D01*
X155653008Y-117486745D01*
X155602472Y-117320149D01*
X155520405Y-117166613D01*
X155409962Y-117032038D01*
X155384064Y-117010784D01*
X155370717Y-116875277D01*
X155367848Y-116865820D01*
X155316252Y-116695731D01*
X155227806Y-116530259D01*
X155108778Y-116385222D01*
X155072436Y-116355397D01*
X153885000Y-115167962D01*
X153885000Y-114883740D01*
X153827932Y-114596842D01*
X153715990Y-114326589D01*
X153553475Y-114083368D01*
X153346632Y-113876525D01*
X153172240Y-113760000D01*
X153346632Y-113643475D01*
X153553475Y-113436632D01*
X153715990Y-113193411D01*
X153827932Y-112923158D01*
X153885000Y-112636260D01*
X153885000Y-112343740D01*
X153827932Y-112056842D01*
X153715990Y-111786589D01*
X153553475Y-111543368D01*
X153346632Y-111336525D01*
X153172240Y-111220000D01*
X153346632Y-111103475D01*
X153553475Y-110896632D01*
X153715990Y-110653411D01*
X153827932Y-110383158D01*
X153885000Y-110096260D01*
X153885000Y-109803740D01*
X153827932Y-109516842D01*
X153715990Y-109246589D01*
X153553475Y-109003368D01*
X153421620Y-108871513D01*
X153494180Y-108849502D01*
X153604494Y-108790537D01*
X153701185Y-108711185D01*
X153780537Y-108614494D01*
X153839502Y-108504180D01*
X153875812Y-108384482D01*
X153888072Y-108260000D01*
X153885000Y-107695750D01*
X153726250Y-107537000D01*
X152527000Y-107537000D01*
X152527000Y-107557000D01*
X152273000Y-107557000D01*
X152273000Y-107537000D01*
X151073750Y-107537000D01*
X150915000Y-107695750D01*
X150911928Y-108260000D01*
X150924188Y-108384482D01*
X150960498Y-108504180D01*
X151019463Y-108614494D01*
X151098815Y-108711185D01*
X151195506Y-108790537D01*
X151305820Y-108849502D01*
X151378380Y-108871513D01*
X151246525Y-109003368D01*
X151084010Y-109246589D01*
X150972068Y-109516842D01*
X150967959Y-109537500D01*
X150228072Y-109537500D01*
X150228072Y-108770000D01*
X150215812Y-108645518D01*
X150197454Y-108585000D01*
X150215812Y-108524482D01*
X150228072Y-108400000D01*
X150228072Y-107500000D01*
X150215812Y-107375518D01*
X150197454Y-107315000D01*
X150215812Y-107254482D01*
X150228072Y-107130000D01*
X150225000Y-106965750D01*
X150066250Y-106807000D01*
X148717000Y-106807000D01*
X148717000Y-106827000D01*
X148463000Y-106827000D01*
X148463000Y-106807000D01*
X147113750Y-106807000D01*
X146955000Y-106965750D01*
X146951928Y-107130000D01*
X133228072Y-107130000D01*
X133225000Y-106965750D01*
X133066250Y-106807000D01*
X131717000Y-106807000D01*
X131717000Y-106827000D01*
X131463000Y-106827000D01*
X131463000Y-106807000D01*
X130113750Y-106807000D01*
X129955000Y-106965750D01*
X129954406Y-106997500D01*
X129735626Y-106997500D01*
X129779537Y-106943994D01*
X129838502Y-106833680D01*
X129874812Y-106713982D01*
X129887072Y-106589500D01*
X129886772Y-106560000D01*
X150911928Y-106560000D01*
X150915000Y-107124250D01*
X151073750Y-107283000D01*
X152273000Y-107283000D01*
X152273000Y-106083750D01*
X152527000Y-106083750D01*
X152527000Y-107283000D01*
X153726250Y-107283000D01*
X153860208Y-107149042D01*
X155160000Y-107149042D01*
X155160000Y-107480958D01*
X155224754Y-107806496D01*
X155351772Y-108113147D01*
X155536175Y-108389125D01*
X155770875Y-108623825D01*
X156046853Y-108808228D01*
X156353504Y-108935246D01*
X156679042Y-109000000D01*
X157010958Y-109000000D01*
X157336496Y-108935246D01*
X157643147Y-108808228D01*
X157919125Y-108623825D01*
X158153825Y-108389125D01*
X158338228Y-108113147D01*
X158465246Y-107806496D01*
X158530000Y-107480958D01*
X158530000Y-107149042D01*
X158465246Y-106823504D01*
X158338228Y-106516853D01*
X158153825Y-106240875D01*
X157919125Y-106006175D01*
X157643147Y-105821772D01*
X157336496Y-105694754D01*
X157010958Y-105630000D01*
X156679042Y-105630000D01*
X156353504Y-105694754D01*
X156046853Y-105821772D01*
X155770875Y-106006175D01*
X155536175Y-106240875D01*
X155351772Y-106516853D01*
X155224754Y-106823504D01*
X155160000Y-107149042D01*
X153860208Y-107149042D01*
X153885000Y-107124250D01*
X153888072Y-106560000D01*
X153875812Y-106435518D01*
X153839502Y-106315820D01*
X153780537Y-106205506D01*
X153701185Y-106108815D01*
X153604494Y-106029463D01*
X153494180Y-105970498D01*
X153374482Y-105934188D01*
X153250000Y-105921928D01*
X152685750Y-105925000D01*
X152527000Y-106083750D01*
X152273000Y-106083750D01*
X152114250Y-105925000D01*
X151550000Y-105921928D01*
X151425518Y-105934188D01*
X151305820Y-105970498D01*
X151195506Y-106029463D01*
X151098815Y-106108815D01*
X151019463Y-106205506D01*
X150960498Y-106315820D01*
X150924188Y-106435518D01*
X150911928Y-106560000D01*
X129886772Y-106560000D01*
X129884000Y-106287750D01*
X129826250Y-106230000D01*
X129951928Y-106230000D01*
X129955000Y-106394250D01*
X130113750Y-106553000D01*
X131463000Y-106553000D01*
X131463000Y-105753750D01*
X131717000Y-105753750D01*
X131717000Y-106553000D01*
X133066250Y-106553000D01*
X133225000Y-106394250D01*
X133228072Y-106230000D01*
X146951928Y-106230000D01*
X146955000Y-106394250D01*
X147113750Y-106553000D01*
X148463000Y-106553000D01*
X148463000Y-105753750D01*
X148717000Y-105753750D01*
X148717000Y-106553000D01*
X150066250Y-106553000D01*
X150225000Y-106394250D01*
X150228072Y-106230000D01*
X150215812Y-106105518D01*
X150179502Y-105985820D01*
X150120537Y-105875506D01*
X150041185Y-105778815D01*
X149944494Y-105699463D01*
X149834180Y-105640498D01*
X149714482Y-105604188D01*
X149590000Y-105591928D01*
X148875750Y-105595000D01*
X148717000Y-105753750D01*
X148463000Y-105753750D01*
X148304250Y-105595000D01*
X147590000Y-105591928D01*
X147465518Y-105604188D01*
X147345820Y-105640498D01*
X147235506Y-105699463D01*
X147138815Y-105778815D01*
X147059463Y-105875506D01*
X147000498Y-105985820D01*
X146964188Y-106105518D01*
X146951928Y-106230000D01*
X133228072Y-106230000D01*
X133215812Y-106105518D01*
X133179502Y-105985820D01*
X133120537Y-105875506D01*
X133041185Y-105778815D01*
X132944494Y-105699463D01*
X132834180Y-105640498D01*
X132714482Y-105604188D01*
X132590000Y-105591928D01*
X131875750Y-105595000D01*
X131717000Y-105753750D01*
X131463000Y-105753750D01*
X131304250Y-105595000D01*
X130590000Y-105591928D01*
X130465518Y-105604188D01*
X130345820Y-105640498D01*
X130235506Y-105699463D01*
X130138815Y-105778815D01*
X130059463Y-105875506D01*
X130000498Y-105985820D01*
X129964188Y-106105518D01*
X129951928Y-106230000D01*
X129826250Y-106230000D01*
X129725250Y-106129000D01*
X128651000Y-106129000D01*
X128651000Y-106149000D01*
X128397000Y-106149000D01*
X128397000Y-106129000D01*
X127322750Y-106129000D01*
X127164000Y-106287750D01*
X127160928Y-106589500D01*
X127173188Y-106713982D01*
X127209498Y-106833680D01*
X127268463Y-106943994D01*
X127347815Y-107040685D01*
X127427594Y-107106158D01*
X127421038Y-107111538D01*
X127410400Y-107124500D01*
X127405047Y-107124500D01*
X127301898Y-107081774D01*
X127101939Y-107042000D01*
X126898061Y-107042000D01*
X126698102Y-107081774D01*
X126509744Y-107159795D01*
X126340226Y-107273063D01*
X126196063Y-107417226D01*
X126082795Y-107586744D01*
X126004774Y-107775102D01*
X125965000Y-107975061D01*
X125965000Y-108178939D01*
X126004774Y-108378898D01*
X126082795Y-108567256D01*
X126196063Y-108736774D01*
X126340226Y-108880937D01*
X126509744Y-108994205D01*
X126698102Y-109072226D01*
X126898061Y-109112000D01*
X127101939Y-109112000D01*
X127301898Y-109072226D01*
X127405047Y-109029500D01*
X127410400Y-109029500D01*
X127421038Y-109042462D01*
X127555614Y-109152905D01*
X127709150Y-109234972D01*
X127875746Y-109285508D01*
X128049000Y-109302572D01*
X128110390Y-109302572D01*
X128010564Y-109402398D01*
X127974223Y-109432222D01*
X127944399Y-109468563D01*
X127924854Y-109492378D01*
X127736939Y-109455000D01*
X127533061Y-109455000D01*
X127333102Y-109494774D01*
X127229953Y-109537500D01*
X127216896Y-109537500D01*
X127208405Y-109521614D01*
X127097962Y-109387038D01*
X126963386Y-109276595D01*
X126809850Y-109194528D01*
X126643254Y-109143992D01*
X126470000Y-109126928D01*
X125795000Y-109126928D01*
X125621746Y-109143992D01*
X125455150Y-109194528D01*
X125301614Y-109276595D01*
X125167038Y-109387038D01*
X125161658Y-109393594D01*
X125096185Y-109313815D01*
X124999494Y-109234463D01*
X124889180Y-109175498D01*
X124769482Y-109139188D01*
X124645000Y-109126928D01*
X124343250Y-109130000D01*
X124184500Y-109288750D01*
X124184500Y-110363000D01*
X124204500Y-110363000D01*
X124204500Y-110617000D01*
X124184500Y-110617000D01*
X124184500Y-110637000D01*
X123930500Y-110637000D01*
X123930500Y-110617000D01*
X122993750Y-110617000D01*
X122835000Y-110775750D01*
X122831928Y-111215000D01*
X122844188Y-111339482D01*
X122880498Y-111459180D01*
X122935998Y-111563012D01*
X122935998Y-111563748D01*
X122777250Y-111405000D01*
X122338000Y-111401928D01*
X122213518Y-111414188D01*
X122093820Y-111450498D01*
X121983506Y-111509463D01*
X121886815Y-111588815D01*
X121807463Y-111685506D01*
X121748498Y-111795820D01*
X121712188Y-111915518D01*
X121699928Y-112040000D01*
X121703000Y-112341750D01*
X121861750Y-112500500D01*
X122936000Y-112500500D01*
X122936000Y-112480500D01*
X123190000Y-112480500D01*
X123190000Y-112500500D01*
X124264250Y-112500500D01*
X124396500Y-112368250D01*
X124528750Y-112500500D01*
X125603000Y-112500500D01*
X125603000Y-112480500D01*
X125857000Y-112480500D01*
X125857000Y-112500500D01*
X126931250Y-112500500D01*
X127090000Y-112341750D01*
X127093072Y-112040000D01*
X127080812Y-111915518D01*
X127044502Y-111795820D01*
X126985537Y-111685506D01*
X126985400Y-111685339D01*
X127097962Y-111592962D01*
X127208405Y-111458386D01*
X127216896Y-111442500D01*
X127229953Y-111442500D01*
X127247893Y-111449931D01*
X127533354Y-111735393D01*
X127462595Y-111821613D01*
X127380528Y-111975149D01*
X127329992Y-112141745D01*
X127312928Y-112314999D01*
X127312928Y-113015001D01*
X127329992Y-113188255D01*
X127380528Y-113354851D01*
X127462595Y-113508387D01*
X127573038Y-113642962D01*
X127599891Y-113665000D01*
X127573038Y-113687038D01*
X127521366Y-113750000D01*
X126843600Y-113750000D01*
X126832962Y-113737038D01*
X126826406Y-113731658D01*
X126906185Y-113666185D01*
X126985537Y-113569494D01*
X127044502Y-113459180D01*
X127080812Y-113339482D01*
X127093072Y-113215000D01*
X127090000Y-112913250D01*
X126931250Y-112754500D01*
X125857000Y-112754500D01*
X125857000Y-112774500D01*
X125603000Y-112774500D01*
X125603000Y-112754500D01*
X124528750Y-112754500D01*
X124396500Y-112886750D01*
X124264250Y-112754500D01*
X123190000Y-112754500D01*
X123190000Y-112774500D01*
X122936000Y-112774500D01*
X122936000Y-112754500D01*
X121861750Y-112754500D01*
X121703000Y-112913250D01*
X121699928Y-113215000D01*
X121712188Y-113339482D01*
X121729896Y-113397858D01*
X121609931Y-113277893D01*
X121567205Y-113174744D01*
X121453937Y-113005226D01*
X121309774Y-112861063D01*
X121140256Y-112747795D01*
X120951898Y-112669774D01*
X120751939Y-112630000D01*
X120548061Y-112630000D01*
X120348102Y-112669774D01*
X120159744Y-112747795D01*
X119990226Y-112861063D01*
X119846063Y-113005226D01*
X119732795Y-113174744D01*
X119654774Y-113363102D01*
X119615000Y-113563061D01*
X119615000Y-113766939D01*
X119654774Y-113966898D01*
X119732795Y-114155256D01*
X119846063Y-114324774D01*
X119990226Y-114468937D01*
X120159744Y-114582205D01*
X120262893Y-114624931D01*
X120980893Y-115342931D01*
X121010722Y-115379278D01*
X121155759Y-115498306D01*
X121321231Y-115586752D01*
X121500777Y-115641217D01*
X121640715Y-115655000D01*
X121687500Y-115659608D01*
X121734285Y-115655000D01*
X121949400Y-115655000D01*
X121960038Y-115667962D01*
X122094614Y-115778405D01*
X122248150Y-115860472D01*
X122414746Y-115911008D01*
X122588000Y-115928072D01*
X123538000Y-115928072D01*
X123711254Y-115911008D01*
X123877850Y-115860472D01*
X124031386Y-115778405D01*
X124165962Y-115667962D01*
X124176600Y-115655000D01*
X124616400Y-115655000D01*
X124627038Y-115667962D01*
X124761614Y-115778405D01*
X124777501Y-115786897D01*
X124777500Y-116471928D01*
X123830000Y-116471928D01*
X123705518Y-116484188D01*
X123585820Y-116520498D01*
X123475506Y-116579463D01*
X123378815Y-116658815D01*
X123299463Y-116755506D01*
X123240498Y-116865820D01*
X123204188Y-116985518D01*
X123191928Y-117110000D01*
X123191928Y-119110000D01*
X123204188Y-119234482D01*
X123240498Y-119354180D01*
X123299463Y-119464494D01*
X123378815Y-119561185D01*
X123475506Y-119640537D01*
X123585820Y-119699502D01*
X123705518Y-119735812D01*
X123830000Y-119748072D01*
X124777501Y-119748072D01*
X124777500Y-122807854D01*
X124735820Y-122820498D01*
X124625506Y-122879463D01*
X124580000Y-122916809D01*
X124534494Y-122879463D01*
X124424180Y-122820498D01*
X124304482Y-122784188D01*
X124180000Y-122771928D01*
X123715750Y-122775000D01*
X123557000Y-122933750D01*
X123557000Y-124283000D01*
X123577000Y-124283000D01*
X123577000Y-124537000D01*
X123557000Y-124537000D01*
X123557000Y-125886250D01*
X123715750Y-126045000D01*
X124180000Y-126048072D01*
X124304482Y-126035812D01*
X124424180Y-125999502D01*
X124534494Y-125940537D01*
X124580000Y-125903191D01*
X124625506Y-125940537D01*
X124735820Y-125999502D01*
X124855518Y-126035812D01*
X124980000Y-126048072D01*
X126480000Y-126048072D01*
X126604482Y-126035812D01*
X126724180Y-125999502D01*
X126834494Y-125940537D01*
X126880000Y-125903191D01*
X126925506Y-125940537D01*
X127035820Y-125999502D01*
X127077500Y-126012146D01*
X127077500Y-126078215D01*
X127072892Y-126125000D01*
X127077500Y-126171784D01*
X127077500Y-126210462D01*
X125724565Y-127563397D01*
X125688223Y-127593222D01*
X125658399Y-127629563D01*
X125569194Y-127738260D01*
X125480749Y-127903731D01*
X125426283Y-128083278D01*
X125407892Y-128270000D01*
X125412501Y-128316795D01*
X125412500Y-133328615D01*
X125407892Y-133375400D01*
X125412500Y-133422184D01*
X125426283Y-133562122D01*
X125480748Y-133741668D01*
X125569194Y-133907141D01*
X125688222Y-134052178D01*
X125724569Y-134082007D01*
X126034801Y-134392239D01*
X126034800Y-134585910D01*
X126030192Y-134632700D01*
X126034800Y-134679485D01*
X126034800Y-135205264D01*
X126048583Y-135345202D01*
X126063478Y-135394304D01*
X126063478Y-135844280D01*
X126075738Y-135968762D01*
X126112048Y-136088460D01*
X126171013Y-136198774D01*
X126250365Y-136295465D01*
X126347056Y-136374817D01*
X126457370Y-136433782D01*
X126577068Y-136470092D01*
X126701550Y-136482352D01*
X126775338Y-136482352D01*
X126757200Y-136526140D01*
X126715520Y-136735678D01*
X126715520Y-136949322D01*
X126757200Y-137158860D01*
X126838958Y-137356241D01*
X126957652Y-137533880D01*
X127108720Y-137684948D01*
X127236010Y-137770000D01*
X125366990Y-137770000D01*
X125494280Y-137684948D01*
X125645348Y-137533880D01*
X125764042Y-137356241D01*
X125845800Y-137158860D01*
X125887480Y-136949322D01*
X125887480Y-136735678D01*
X125845800Y-136526140D01*
X125764042Y-136328759D01*
X125645348Y-136151120D01*
X125494280Y-136000052D01*
X125316641Y-135881358D01*
X125119260Y-135799600D01*
X125040922Y-135784017D01*
X125040922Y-134345680D01*
X125028662Y-134221198D01*
X125003184Y-134137208D01*
X124992317Y-134026877D01*
X124981263Y-133990437D01*
X124937852Y-133847331D01*
X124849406Y-133681859D01*
X124730378Y-133536822D01*
X124694036Y-133506997D01*
X123896607Y-132709569D01*
X123866778Y-132673222D01*
X123721741Y-132554194D01*
X123556269Y-132465748D01*
X123376723Y-132411283D01*
X123236785Y-132397500D01*
X123190000Y-132392892D01*
X123143215Y-132397500D01*
X120409538Y-132397500D01*
X118072038Y-130060000D01*
X119956928Y-130060000D01*
X119956928Y-131560000D01*
X119969188Y-131684482D01*
X120005498Y-131804180D01*
X120064463Y-131914494D01*
X120143815Y-132011185D01*
X120240506Y-132090537D01*
X120350820Y-132149502D01*
X120470518Y-132185812D01*
X120595000Y-132198072D01*
X122895000Y-132198072D01*
X123019482Y-132185812D01*
X123139180Y-132149502D01*
X123249494Y-132090537D01*
X123346185Y-132011185D01*
X123425537Y-131914494D01*
X123484502Y-131804180D01*
X123520812Y-131684482D01*
X123533072Y-131560000D01*
X123533072Y-130060000D01*
X123520812Y-129935518D01*
X123484502Y-129815820D01*
X123425537Y-129705506D01*
X123346185Y-129608815D01*
X123249494Y-129529463D01*
X123139180Y-129470498D01*
X123019482Y-129434188D01*
X122895000Y-129421928D01*
X122697500Y-129421928D01*
X122697500Y-128215047D01*
X122740226Y-128111898D01*
X122780000Y-127911939D01*
X122780000Y-127708061D01*
X122740226Y-127508102D01*
X122662205Y-127319744D01*
X122548937Y-127150226D01*
X122404774Y-127006063D01*
X122235256Y-126892795D01*
X122046898Y-126814774D01*
X121846939Y-126775000D01*
X121643061Y-126775000D01*
X121443102Y-126814774D01*
X121254744Y-126892795D01*
X121085226Y-127006063D01*
X120941063Y-127150226D01*
X120827795Y-127319744D01*
X120749774Y-127508102D01*
X120710000Y-127708061D01*
X120710000Y-127911939D01*
X120749774Y-128111898D01*
X120792501Y-128215049D01*
X120792500Y-129421928D01*
X120595000Y-129421928D01*
X120470518Y-129434188D01*
X120350820Y-129470498D01*
X120240506Y-129529463D01*
X120143815Y-129608815D01*
X120064463Y-129705506D01*
X120005498Y-129815820D01*
X119969188Y-129935518D01*
X119956928Y-130060000D01*
X118072038Y-130060000D01*
X117411500Y-129399462D01*
X117411500Y-126658765D01*
X117692491Y-126471013D01*
X117962013Y-126201491D01*
X118173775Y-125884566D01*
X118319639Y-125532419D01*
X118343989Y-125410000D01*
X122041928Y-125410000D01*
X122054188Y-125534482D01*
X122090498Y-125654180D01*
X122149463Y-125764494D01*
X122228815Y-125861185D01*
X122325506Y-125940537D01*
X122435820Y-125999502D01*
X122555518Y-126035812D01*
X122680000Y-126048072D01*
X123144250Y-126045000D01*
X123303000Y-125886250D01*
X123303000Y-124537000D01*
X122203750Y-124537000D01*
X122045000Y-124695750D01*
X122041928Y-125410000D01*
X118343989Y-125410000D01*
X118394000Y-125158581D01*
X118394000Y-124777419D01*
X118319639Y-124403581D01*
X118173775Y-124051434D01*
X117962013Y-123734509D01*
X117692491Y-123464987D01*
X117610197Y-123410000D01*
X122041928Y-123410000D01*
X122045000Y-124124250D01*
X122203750Y-124283000D01*
X123303000Y-124283000D01*
X123303000Y-122933750D01*
X123144250Y-122775000D01*
X122680000Y-122771928D01*
X122555518Y-122784188D01*
X122435820Y-122820498D01*
X122325506Y-122879463D01*
X122228815Y-122958815D01*
X122149463Y-123055506D01*
X122090498Y-123165820D01*
X122054188Y-123285518D01*
X122041928Y-123410000D01*
X117610197Y-123410000D01*
X117375566Y-123253225D01*
X117023419Y-123107361D01*
X116649581Y-123033000D01*
X116268419Y-123033000D01*
X115894581Y-123107361D01*
X115542434Y-123253225D01*
X115225509Y-123464987D01*
X114955987Y-123734509D01*
X114744225Y-124051434D01*
X114598361Y-124403581D01*
X114524000Y-124777419D01*
X114524000Y-125158581D01*
X114598361Y-125532419D01*
X114744225Y-125884566D01*
X114955987Y-126201491D01*
X115225509Y-126471013D01*
X115506501Y-126658765D01*
X115506500Y-129747215D01*
X115501892Y-129794000D01*
X115506500Y-129840784D01*
X115520283Y-129980722D01*
X115574748Y-130160268D01*
X115663194Y-130325741D01*
X115782222Y-130470778D01*
X115818569Y-130500607D01*
X119308393Y-133990431D01*
X119338222Y-134026778D01*
X119483259Y-134145806D01*
X119648731Y-134234252D01*
X119828277Y-134288717D01*
X120014999Y-134307108D01*
X120061784Y-134302500D01*
X122795462Y-134302500D01*
X123066278Y-134573317D01*
X123066278Y-134705828D01*
X122152410Y-134705828D01*
X122027928Y-134718088D01*
X121908230Y-134754398D01*
X121797916Y-134813363D01*
X121701225Y-134892715D01*
X121621873Y-134989406D01*
X121562908Y-135099720D01*
X121526598Y-135219418D01*
X121514338Y-135343900D01*
X121514338Y-136141460D01*
X121526598Y-136265942D01*
X121562908Y-136385640D01*
X121621873Y-136495954D01*
X121701225Y-136592645D01*
X121797916Y-136671997D01*
X121908230Y-136730962D01*
X122027928Y-136767272D01*
X122152410Y-136779532D01*
X123150630Y-136779532D01*
X123275112Y-136767272D01*
X123394810Y-136730962D01*
X123505124Y-136671997D01*
X123601815Y-136592645D01*
X123681167Y-136495954D01*
X123689233Y-136480863D01*
X123704350Y-136482352D01*
X123778138Y-136482352D01*
X123760000Y-136526140D01*
X123718320Y-136735678D01*
X123718320Y-136949322D01*
X123760000Y-137158860D01*
X123841758Y-137356241D01*
X123960452Y-137533880D01*
X124111520Y-137684948D01*
X124238810Y-137770000D01*
X123788702Y-137770000D01*
X123788702Y-137541000D01*
X123776442Y-137416518D01*
X123740132Y-137296820D01*
X123681167Y-137186506D01*
X123601815Y-137089815D01*
X123505124Y-137010463D01*
X123394810Y-136951498D01*
X123275112Y-136915188D01*
X123150630Y-136902928D01*
X122152410Y-136902928D01*
X122027928Y-136915188D01*
X121908230Y-136951498D01*
X121797916Y-137010463D01*
X121701225Y-137089815D01*
X121621873Y-137186506D01*
X121562908Y-137296820D01*
X121526598Y-137416518D01*
X121514338Y-137541000D01*
X121514338Y-137770000D01*
X111150000Y-137770000D01*
X111150000Y-135724042D01*
X111345000Y-135724042D01*
X111345000Y-136055958D01*
X111409754Y-136381496D01*
X111536772Y-136688147D01*
X111721175Y-136964125D01*
X111955875Y-137198825D01*
X112231853Y-137383228D01*
X112538504Y-137510246D01*
X112864042Y-137575000D01*
X113195958Y-137575000D01*
X113521496Y-137510246D01*
X113828147Y-137383228D01*
X114104125Y-137198825D01*
X114338825Y-136964125D01*
X114523228Y-136688147D01*
X114650246Y-136381496D01*
X114715000Y-136055958D01*
X114715000Y-135724042D01*
X114650246Y-135398504D01*
X114523228Y-135091853D01*
X114338825Y-134815875D01*
X114104125Y-134581175D01*
X113828147Y-134396772D01*
X113521496Y-134269754D01*
X113195958Y-134205000D01*
X112864042Y-134205000D01*
X112538504Y-134269754D01*
X112231853Y-134396772D01*
X111955875Y-134581175D01*
X111721175Y-134815875D01*
X111536772Y-135091853D01*
X111409754Y-135398504D01*
X111345000Y-135724042D01*
X111150000Y-135724042D01*
X111150000Y-121188000D01*
X114520928Y-121188000D01*
X114533188Y-121312482D01*
X114569498Y-121432180D01*
X114628463Y-121542494D01*
X114707815Y-121639185D01*
X114804506Y-121718537D01*
X114914820Y-121777502D01*
X115034518Y-121813812D01*
X115159000Y-121826072D01*
X116173250Y-121823000D01*
X116332000Y-121664250D01*
X116332000Y-120015000D01*
X116586000Y-120015000D01*
X116586000Y-121664250D01*
X116744750Y-121823000D01*
X117759000Y-121826072D01*
X117883482Y-121813812D01*
X118003180Y-121777502D01*
X118113494Y-121718537D01*
X118210185Y-121639185D01*
X118289537Y-121542494D01*
X118348502Y-121432180D01*
X118384812Y-121312482D01*
X118397072Y-121188000D01*
X118394000Y-120173750D01*
X118235250Y-120015000D01*
X116586000Y-120015000D01*
X116332000Y-120015000D01*
X114682750Y-120015000D01*
X114524000Y-120173750D01*
X114520928Y-121188000D01*
X111150000Y-121188000D01*
X111150000Y-118588000D01*
X114520928Y-118588000D01*
X114524000Y-119602250D01*
X114682750Y-119761000D01*
X116332000Y-119761000D01*
X116332000Y-118111750D01*
X116586000Y-118111750D01*
X116586000Y-119761000D01*
X118235250Y-119761000D01*
X118394000Y-119602250D01*
X118397072Y-118588000D01*
X118384812Y-118463518D01*
X118348502Y-118343820D01*
X118289537Y-118233506D01*
X118210185Y-118136815D01*
X118113494Y-118057463D01*
X118003180Y-117998498D01*
X117883482Y-117962188D01*
X117759000Y-117949928D01*
X116744750Y-117953000D01*
X116586000Y-118111750D01*
X116332000Y-118111750D01*
X116173250Y-117953000D01*
X115159000Y-117949928D01*
X115034518Y-117962188D01*
X114914820Y-117998498D01*
X114804506Y-118057463D01*
X114707815Y-118136815D01*
X114628463Y-118233506D01*
X114569498Y-118343820D01*
X114533188Y-118463518D01*
X114520928Y-118588000D01*
X111150000Y-118588000D01*
X111150000Y-109765000D01*
X122831928Y-109765000D01*
X122835000Y-110204250D01*
X122993750Y-110363000D01*
X123930500Y-110363000D01*
X123930500Y-109288750D01*
X123771750Y-109130000D01*
X123470000Y-109126928D01*
X123345518Y-109139188D01*
X123225820Y-109175498D01*
X123115506Y-109234463D01*
X123018815Y-109313815D01*
X122939463Y-109410506D01*
X122880498Y-109520820D01*
X122844188Y-109640518D01*
X122831928Y-109765000D01*
X111150000Y-109765000D01*
X111150000Y-107149042D01*
X111345000Y-107149042D01*
X111345000Y-107480958D01*
X111409754Y-107806496D01*
X111536772Y-108113147D01*
X111721175Y-108389125D01*
X111955875Y-108623825D01*
X112231853Y-108808228D01*
X112538504Y-108935246D01*
X112864042Y-109000000D01*
X113195958Y-109000000D01*
X113521496Y-108935246D01*
X113828147Y-108808228D01*
X114104125Y-108623825D01*
X114338825Y-108389125D01*
X114523228Y-108113147D01*
X114650246Y-107806496D01*
X114715000Y-107480958D01*
X114715000Y-107149042D01*
X114650246Y-106823504D01*
X114523228Y-106516853D01*
X114338825Y-106240875D01*
X114104125Y-106006175D01*
X113828147Y-105821772D01*
X113521496Y-105694754D01*
X113195958Y-105630000D01*
X112864042Y-105630000D01*
X112538504Y-105694754D01*
X112231853Y-105821772D01*
X111955875Y-106006175D01*
X111721175Y-106240875D01*
X111536772Y-106516853D01*
X111409754Y-106823504D01*
X111345000Y-107149042D01*
X111150000Y-107149042D01*
X111150000Y-105435000D01*
X127161137Y-105435000D01*
X127164000Y-105716250D01*
G37*
G04 #@! TD.AperFunction*
D34*
X134280400Y-136728200D02*
X136026400Y-136728200D01*
X136026400Y-136708200D01*
X136280400Y-136708200D01*
X136280400Y-136728200D01*
X136300400Y-136728200D01*
X136300400Y-136982200D01*
X136280400Y-136982200D01*
X136280400Y-137002200D01*
X136026400Y-137002200D01*
X136026400Y-136982200D01*
X134280400Y-136982200D01*
X134280400Y-137002200D01*
X134026400Y-137002200D01*
X134026400Y-136982200D01*
X134006400Y-136982200D01*
X134006400Y-136728200D01*
X134026400Y-136728200D01*
X134026400Y-136708200D01*
X134280400Y-136708200D01*
X134280400Y-136728200D01*
G04 #@! TA.AperFunction,Conductor*
D36*
G36*
X134280400Y-136728200D02*
G01*
X136026400Y-136728200D01*
X136026400Y-136708200D01*
X136280400Y-136708200D01*
X136280400Y-136728200D01*
X136300400Y-136728200D01*
X136300400Y-136982200D01*
X136280400Y-136982200D01*
X136280400Y-137002200D01*
X136026400Y-137002200D01*
X136026400Y-136982200D01*
X134280400Y-136982200D01*
X134280400Y-137002200D01*
X134026400Y-137002200D01*
X134026400Y-136982200D01*
X134006400Y-136982200D01*
X134006400Y-136728200D01*
X134026400Y-136728200D01*
X134026400Y-136708200D01*
X134280400Y-136708200D01*
X134280400Y-136728200D01*
G37*
G04 #@! TD.AperFunction*
D34*
X131364550Y-133700878D02*
X131300681Y-133961049D01*
X131288796Y-134228682D01*
X131329352Y-134493491D01*
X131420791Y-134745300D01*
X131477950Y-134852235D01*
X131714267Y-134914728D01*
X132473795Y-134155200D01*
X132459653Y-134141058D01*
X132639258Y-133961453D01*
X132653400Y-133975595D01*
X132667543Y-133961453D01*
X132847148Y-134141058D01*
X132833005Y-134155200D01*
X132847148Y-134169343D01*
X132667543Y-134348948D01*
X132653400Y-134334805D01*
X131893872Y-135094333D01*
X131940366Y-135270150D01*
X131653400Y-135270150D01*
X131652890Y-135270200D01*
X131645677Y-135270200D01*
X131645642Y-135270197D01*
X131645486Y-135270200D01*
X131526398Y-135270200D01*
X131526398Y-135277495D01*
X131520856Y-135278185D01*
X131496201Y-135281431D01*
X131484286Y-135284204D01*
X131472092Y-135285078D01*
X131463363Y-135286632D01*
X131438911Y-135291164D01*
X131427164Y-135294555D01*
X131415037Y-135296065D01*
X131406401Y-135298074D01*
X131382220Y-135303879D01*
X131370657Y-135307883D01*
X131358614Y-135310028D01*
X131355468Y-135310936D01*
X131355462Y-135310932D01*
X131355375Y-135310963D01*
X131350095Y-135312487D01*
X131326251Y-135319550D01*
X131314925Y-135324149D01*
X131303017Y-135326920D01*
X131294638Y-135329822D01*
X131271197Y-135338123D01*
X131260119Y-135343312D01*
X131248358Y-135346707D01*
X131240142Y-135350043D01*
X131217167Y-135359560D01*
X131214139Y-135361177D01*
X131142314Y-135386713D01*
X131088662Y-135421353D01*
X131088662Y-135343900D01*
X131076402Y-135219418D01*
X131040092Y-135099720D01*
X130981127Y-134989406D01*
X130901775Y-134892715D01*
X130805084Y-134813363D01*
X130694770Y-134754398D01*
X130575072Y-134718088D01*
X130450590Y-134705828D01*
X129536722Y-134705828D01*
X129536722Y-134534146D01*
X130520869Y-133550000D01*
X131435043Y-133550000D01*
X131364550Y-133700878D01*
G04 #@! TA.AperFunction,Conductor*
D36*
G36*
X131364550Y-133700878D02*
G01*
X131300681Y-133961049D01*
X131288796Y-134228682D01*
X131329352Y-134493491D01*
X131420791Y-134745300D01*
X131477950Y-134852235D01*
X131714267Y-134914728D01*
X132473795Y-134155200D01*
X132459653Y-134141058D01*
X132639258Y-133961453D01*
X132653400Y-133975595D01*
X132667543Y-133961453D01*
X132847148Y-134141058D01*
X132833005Y-134155200D01*
X132847148Y-134169343D01*
X132667543Y-134348948D01*
X132653400Y-134334805D01*
X131893872Y-135094333D01*
X131940366Y-135270150D01*
X131653400Y-135270150D01*
X131652890Y-135270200D01*
X131645677Y-135270200D01*
X131645642Y-135270197D01*
X131645486Y-135270200D01*
X131526398Y-135270200D01*
X131526398Y-135277495D01*
X131520856Y-135278185D01*
X131496201Y-135281431D01*
X131484286Y-135284204D01*
X131472092Y-135285078D01*
X131463363Y-135286632D01*
X131438911Y-135291164D01*
X131427164Y-135294555D01*
X131415037Y-135296065D01*
X131406401Y-135298074D01*
X131382220Y-135303879D01*
X131370657Y-135307883D01*
X131358614Y-135310028D01*
X131355468Y-135310936D01*
X131355462Y-135310932D01*
X131355375Y-135310963D01*
X131350095Y-135312487D01*
X131326251Y-135319550D01*
X131314925Y-135324149D01*
X131303017Y-135326920D01*
X131294638Y-135329822D01*
X131271197Y-135338123D01*
X131260119Y-135343312D01*
X131248358Y-135346707D01*
X131240142Y-135350043D01*
X131217167Y-135359560D01*
X131214139Y-135361177D01*
X131142314Y-135386713D01*
X131088662Y-135421353D01*
X131088662Y-135343900D01*
X131076402Y-135219418D01*
X131040092Y-135099720D01*
X130981127Y-134989406D01*
X130901775Y-134892715D01*
X130805084Y-134813363D01*
X130694770Y-134754398D01*
X130575072Y-134718088D01*
X130450590Y-134705828D01*
X129536722Y-134705828D01*
X129536722Y-134534146D01*
X130520869Y-133550000D01*
X131435043Y-133550000D01*
X131364550Y-133700878D01*
G37*
G04 #@! TD.AperFunction*
M02*
