G04 #@! TF.GenerationSoftware,KiCad,Pcbnew,(5.1.9)-1*
G04 #@! TF.CreationDate,2021-04-12T15:06:02+02:00*
G04 #@! TF.ProjectId,eerste_versie,65657273-7465-45f7-9665-727369652e6b,rev?*
G04 #@! TF.SameCoordinates,Original*
G04 #@! TF.FileFunction,Legend,Top*
G04 #@! TF.FilePolarity,Positive*
%FSLAX46Y46*%
G04 Gerber Fmt 4.6, Leading zero omitted, Abs format (unit mm)*
G04 Created by KiCad (PCBNEW (5.1.9)-1) date 2021-04-12 15:06:02*
%MOMM*%
%LPD*%
G01*
G04 APERTURE LIST*
%ADD10C,0.150000*%
%ADD11C,0.203200*%
%ADD12C,0.120000*%
%ADD13C,0.127000*%
%ADD14C,0.300000*%
%ADD15C,0.200000*%
%ADD16C,0.015000*%
G04 APERTURE END LIST*
D10*
X115824047Y-116911428D02*
X116585952Y-116911428D01*
X115824047Y-128341428D02*
X116585952Y-128341428D01*
X116205000Y-128722380D02*
X116205000Y-127960476D01*
X153924047Y-107386428D02*
X154685952Y-107386428D01*
X154178095Y-109307380D02*
X154749523Y-109307380D01*
X154463809Y-110307380D02*
X154463809Y-109307380D01*
X154987619Y-109307380D02*
X155654285Y-110307380D01*
X155654285Y-109307380D02*
X154987619Y-110307380D01*
X154773333Y-112847380D02*
X154440000Y-112371190D01*
X154201904Y-112847380D02*
X154201904Y-111847380D01*
X154582857Y-111847380D01*
X154678095Y-111895000D01*
X154725714Y-111942619D01*
X154773333Y-112037857D01*
X154773333Y-112180714D01*
X154725714Y-112275952D01*
X154678095Y-112323571D01*
X154582857Y-112371190D01*
X154201904Y-112371190D01*
X155106666Y-111847380D02*
X155773333Y-112847380D01*
X155773333Y-111847380D02*
X155106666Y-112847380D01*
X153924047Y-115006428D02*
X154685952Y-115006428D01*
X154305000Y-115387380D02*
X154305000Y-114625476D01*
D11*
X124675900Y-135417560D02*
X126428500Y-135417560D01*
X123604020Y-138267440D02*
X128998980Y-138267440D01*
X122826780Y-137269220D02*
X122826780Y-136415780D01*
X129776220Y-137269220D02*
X129776220Y-136415780D01*
D12*
X153659064Y-117375000D02*
X153204936Y-117375000D01*
X153659064Y-118845000D02*
X153204936Y-118845000D01*
X121359000Y-127808000D02*
X121359000Y-127308000D01*
X120619000Y-127808000D02*
X121359000Y-127808000D01*
X117482000Y-121115000D02*
X117528000Y-121162000D01*
X115184000Y-118818000D02*
X115220000Y-118853000D01*
X117698000Y-120922000D02*
X117733000Y-120957000D01*
X115390000Y-118613000D02*
X115436000Y-118660000D01*
X111198000Y-117288000D02*
X121119000Y-117288000D01*
X111198000Y-127568000D02*
X121119000Y-127568000D01*
X121119000Y-127568000D02*
X121119000Y-117288000D01*
X111198000Y-127568000D02*
X111198000Y-117288000D01*
X114158000Y-127568000D02*
X114158000Y-117288000D01*
X119059000Y-127568000D02*
X119059000Y-117288000D01*
X120559000Y-127568000D02*
X120559000Y-117288000D01*
X118139000Y-119888000D02*
G75*
G03*
X118139000Y-119888000I-1680000J0D01*
G01*
X118139253Y-124939195D02*
G75*
G02*
X117994000Y-125652000I-1680253J-28805D01*
G01*
X117142042Y-126503426D02*
G75*
G02*
X115775000Y-126503000I-683042J1535426D01*
G01*
X114923574Y-125651042D02*
G75*
G02*
X114924000Y-124284000I1535426J683042D01*
G01*
X115775958Y-123432574D02*
G75*
G02*
X117143000Y-123433000I683042J-1535426D01*
G01*
X117993756Y-124284682D02*
G75*
G02*
X118139000Y-124968000I-1534756J-683318D01*
G01*
X152400000Y-116360000D02*
X151070000Y-116360000D01*
X151070000Y-116360000D02*
X151070000Y-115030000D01*
X151070000Y-113760000D02*
X151070000Y-106080000D01*
X153730000Y-106080000D02*
X151070000Y-106080000D01*
X153730000Y-113760000D02*
X153730000Y-106080000D01*
X153730000Y-113760000D02*
X151070000Y-113760000D01*
X126465000Y-113403748D02*
X126465000Y-113926252D01*
X124995000Y-113403748D02*
X124995000Y-113926252D01*
X122328000Y-113926252D02*
X122328000Y-113403748D01*
X123798000Y-113926252D02*
X123798000Y-113403748D01*
D13*
X131403400Y-135585200D02*
X131403400Y-134005200D01*
X131403400Y-134005200D02*
X131674400Y-134005200D01*
X138903400Y-135585200D02*
X138903400Y-134005200D01*
X138903400Y-134005200D02*
X138632400Y-134005200D01*
D14*
X133953400Y-132955200D02*
G75*
G03*
X133953400Y-132955200I-100000J0D01*
G01*
D13*
X131403400Y-138125200D02*
X131403400Y-138305200D01*
X131403400Y-138305200D02*
X138903400Y-138305200D01*
X138903400Y-138305200D02*
X138903400Y-138125200D01*
D15*
X121995000Y-129710000D02*
X121995000Y-128960000D01*
X121995000Y-128960000D02*
X128195000Y-128960000D01*
X128195000Y-128960000D02*
X128195000Y-129710000D01*
X121995000Y-132010000D02*
X121995000Y-132660000D01*
X121995000Y-132660000D02*
X128195000Y-132660000D01*
X128195000Y-132660000D02*
X128195000Y-131910000D01*
X123495000Y-129810000D02*
G75*
G03*
X123495000Y-129810000I-100000J0D01*
G01*
X155659000Y-125046000D02*
G75*
G03*
X155659000Y-125046000I-100000J0D01*
G01*
X152709000Y-129846000D02*
X153459000Y-129846000D01*
X152709000Y-123646000D02*
X152709000Y-129846000D01*
X153359000Y-123646000D02*
X152709000Y-123646000D01*
X156409000Y-129846000D02*
X155659000Y-129846000D01*
X156409000Y-123646000D02*
X156409000Y-129846000D01*
X155659000Y-123646000D02*
X156409000Y-123646000D01*
D12*
X137133064Y-128370000D02*
X136678936Y-128370000D01*
X137133064Y-126900000D02*
X136678936Y-126900000D01*
X137906000Y-129215000D02*
X135046000Y-129215000D01*
X135046000Y-129215000D02*
X135046000Y-131135000D01*
X135046000Y-131135000D02*
X137906000Y-131135000D01*
D13*
X152050000Y-132080000D02*
G75*
G03*
X152050000Y-132080000I-6000000J0D01*
G01*
D12*
X125356252Y-109755000D02*
X124833748Y-109755000D01*
X125356252Y-111225000D02*
X124833748Y-111225000D01*
X153627064Y-121385000D02*
X153172936Y-121385000D01*
X153627064Y-119915000D02*
X153172936Y-119915000D01*
X127789000Y-106778248D02*
X127789000Y-107300752D01*
X129259000Y-106778248D02*
X129259000Y-107300752D01*
X131818748Y-126900000D02*
X132341252Y-126900000D01*
X131818748Y-128370000D02*
X132341252Y-128370000D01*
X129140000Y-119350000D02*
X127880000Y-119350000D01*
X122320000Y-119350000D02*
X123580000Y-119350000D01*
X129140000Y-123110000D02*
X129140000Y-119350000D01*
X122320000Y-125360000D02*
X122320000Y-119350000D01*
D13*
X131090000Y-105790000D02*
X131090000Y-105490000D01*
X131090000Y-105490000D02*
X149090000Y-105490000D01*
X149090000Y-105490000D02*
X149090000Y-105790000D01*
X131090000Y-124390000D02*
X131090000Y-124690000D01*
X131090000Y-124690000D02*
X133600000Y-124690000D01*
X146580000Y-124690000D02*
X149090000Y-124690000D01*
X149090000Y-124690000D02*
X149090000Y-124390000D01*
D15*
X129540000Y-106550000D02*
G75*
G03*
X129540000Y-106550000I-100000J0D01*
G01*
D12*
X129386000Y-113892064D02*
X129386000Y-113437936D01*
X127916000Y-113892064D02*
X127916000Y-113437936D01*
D10*
X117696342Y-135846457D02*
X117783428Y-135875485D01*
X117812457Y-135904514D01*
X117841485Y-135962571D01*
X117841485Y-136049657D01*
X117812457Y-136107714D01*
X117783428Y-136136742D01*
X117725371Y-136165771D01*
X117493142Y-136165771D01*
X117493142Y-135556171D01*
X117696342Y-135556171D01*
X117754400Y-135585200D01*
X117783428Y-135614228D01*
X117812457Y-135672285D01*
X117812457Y-135730342D01*
X117783428Y-135788400D01*
X117754400Y-135817428D01*
X117696342Y-135846457D01*
X117493142Y-135846457D01*
X118073714Y-135991600D02*
X118364000Y-135991600D01*
X118015657Y-136165771D02*
X118218857Y-135556171D01*
X118422057Y-136165771D01*
X118538171Y-135556171D02*
X118886514Y-135556171D01*
X118712342Y-136165771D02*
X118712342Y-135556171D01*
X119525142Y-135527142D02*
X119002628Y-136310914D01*
X119728342Y-135556171D02*
X119728342Y-136049657D01*
X119757371Y-136107714D01*
X119786400Y-136136742D01*
X119844457Y-136165771D01*
X119960571Y-136165771D01*
X120018628Y-136136742D01*
X120047657Y-136107714D01*
X120076685Y-136049657D01*
X120076685Y-135556171D01*
X120337942Y-136136742D02*
X120425028Y-136165771D01*
X120570171Y-136165771D01*
X120628228Y-136136742D01*
X120657257Y-136107714D01*
X120686285Y-136049657D01*
X120686285Y-135991600D01*
X120657257Y-135933542D01*
X120628228Y-135904514D01*
X120570171Y-135875485D01*
X120454057Y-135846457D01*
X120396000Y-135817428D01*
X120366971Y-135788400D01*
X120337942Y-135730342D01*
X120337942Y-135672285D01*
X120366971Y-135614228D01*
X120396000Y-135585200D01*
X120454057Y-135556171D01*
X120599200Y-135556171D01*
X120686285Y-135585200D01*
X121150742Y-135846457D02*
X121237828Y-135875485D01*
X121266857Y-135904514D01*
X121295885Y-135962571D01*
X121295885Y-136049657D01*
X121266857Y-136107714D01*
X121237828Y-136136742D01*
X121179771Y-136165771D01*
X120947542Y-136165771D01*
X120947542Y-135556171D01*
X121150742Y-135556171D01*
X121208800Y-135585200D01*
X121237828Y-135614228D01*
X121266857Y-135672285D01*
X121266857Y-135730342D01*
X121237828Y-135788400D01*
X121208800Y-135817428D01*
X121150742Y-135846457D01*
X120947542Y-135846457D01*
X156043333Y-118562380D02*
X155710000Y-118086190D01*
X155471904Y-118562380D02*
X155471904Y-117562380D01*
X155852857Y-117562380D01*
X155948095Y-117610000D01*
X155995714Y-117657619D01*
X156043333Y-117752857D01*
X156043333Y-117895714D01*
X155995714Y-117990952D01*
X155948095Y-118038571D01*
X155852857Y-118086190D01*
X155471904Y-118086190D01*
X156900476Y-117895714D02*
X156900476Y-118562380D01*
X156662380Y-117514761D02*
X156424285Y-118229047D01*
X157043333Y-118229047D01*
X112157380Y-115498571D02*
X112300238Y-115546190D01*
X112347857Y-115593809D01*
X112395476Y-115689047D01*
X112395476Y-115831904D01*
X112347857Y-115927142D01*
X112300238Y-115974761D01*
X112205000Y-116022380D01*
X111824047Y-116022380D01*
X111824047Y-115022380D01*
X112157380Y-115022380D01*
X112252619Y-115070000D01*
X112300238Y-115117619D01*
X112347857Y-115212857D01*
X112347857Y-115308095D01*
X112300238Y-115403333D01*
X112252619Y-115450952D01*
X112157380Y-115498571D01*
X111824047Y-115498571D01*
X113252619Y-116022380D02*
X113252619Y-115498571D01*
X113205000Y-115403333D01*
X113109761Y-115355714D01*
X112919285Y-115355714D01*
X112824047Y-115403333D01*
X113252619Y-115974761D02*
X113157380Y-116022380D01*
X112919285Y-116022380D01*
X112824047Y-115974761D01*
X112776428Y-115879523D01*
X112776428Y-115784285D01*
X112824047Y-115689047D01*
X112919285Y-115641428D01*
X113157380Y-115641428D01*
X113252619Y-115593809D01*
X113585952Y-115355714D02*
X113966904Y-115355714D01*
X113728809Y-115022380D02*
X113728809Y-115879523D01*
X113776428Y-115974761D01*
X113871666Y-116022380D01*
X113966904Y-116022380D01*
X115633571Y-115927142D02*
X115585952Y-115974761D01*
X115443095Y-116022380D01*
X115347857Y-116022380D01*
X115205000Y-115974761D01*
X115109761Y-115879523D01*
X115062142Y-115784285D01*
X115014523Y-115593809D01*
X115014523Y-115450952D01*
X115062142Y-115260476D01*
X115109761Y-115165238D01*
X115205000Y-115070000D01*
X115347857Y-115022380D01*
X115443095Y-115022380D01*
X115585952Y-115070000D01*
X115633571Y-115117619D01*
X116205000Y-116022380D02*
X116109761Y-115974761D01*
X116062142Y-115927142D01*
X116014523Y-115831904D01*
X116014523Y-115546190D01*
X116062142Y-115450952D01*
X116109761Y-115403333D01*
X116205000Y-115355714D01*
X116347857Y-115355714D01*
X116443095Y-115403333D01*
X116490714Y-115450952D01*
X116538333Y-115546190D01*
X116538333Y-115831904D01*
X116490714Y-115927142D01*
X116443095Y-115974761D01*
X116347857Y-116022380D01*
X116205000Y-116022380D01*
X116966904Y-115355714D02*
X116966904Y-116022380D01*
X116966904Y-115450952D02*
X117014523Y-115403333D01*
X117109761Y-115355714D01*
X117252619Y-115355714D01*
X117347857Y-115403333D01*
X117395476Y-115498571D01*
X117395476Y-116022380D01*
X117871666Y-115355714D02*
X117871666Y-116022380D01*
X117871666Y-115450952D02*
X117919285Y-115403333D01*
X118014523Y-115355714D01*
X118157380Y-115355714D01*
X118252619Y-115403333D01*
X118300238Y-115498571D01*
X118300238Y-116022380D01*
X119157380Y-115974761D02*
X119062142Y-116022380D01*
X118871666Y-116022380D01*
X118776428Y-115974761D01*
X118728809Y-115879523D01*
X118728809Y-115498571D01*
X118776428Y-115403333D01*
X118871666Y-115355714D01*
X119062142Y-115355714D01*
X119157380Y-115403333D01*
X119205000Y-115498571D01*
X119205000Y-115593809D01*
X118728809Y-115689047D01*
X120062142Y-115974761D02*
X119966904Y-116022380D01*
X119776428Y-116022380D01*
X119681190Y-115974761D01*
X119633571Y-115927142D01*
X119585952Y-115831904D01*
X119585952Y-115546190D01*
X119633571Y-115450952D01*
X119681190Y-115403333D01*
X119776428Y-115355714D01*
X119966904Y-115355714D01*
X120062142Y-115403333D01*
X120347857Y-115355714D02*
X120728809Y-115355714D01*
X120490714Y-115022380D02*
X120490714Y-115879523D01*
X120538333Y-115974761D01*
X120633571Y-116022380D01*
X120728809Y-116022380D01*
X157297380Y-116672857D02*
X156297380Y-116672857D01*
X156297380Y-116291904D01*
X156345000Y-116196666D01*
X156392619Y-116149047D01*
X156487857Y-116101428D01*
X156630714Y-116101428D01*
X156725952Y-116149047D01*
X156773571Y-116196666D01*
X156821190Y-116291904D01*
X156821190Y-116672857D01*
X157297380Y-115672857D02*
X156630714Y-115672857D01*
X156821190Y-115672857D02*
X156725952Y-115625238D01*
X156678333Y-115577619D01*
X156630714Y-115482380D01*
X156630714Y-115387142D01*
X157297380Y-114910952D02*
X157249761Y-115006190D01*
X157202142Y-115053809D01*
X157106904Y-115101428D01*
X156821190Y-115101428D01*
X156725952Y-115053809D01*
X156678333Y-115006190D01*
X156630714Y-114910952D01*
X156630714Y-114768095D01*
X156678333Y-114672857D01*
X156725952Y-114625238D01*
X156821190Y-114577619D01*
X157106904Y-114577619D01*
X157202142Y-114625238D01*
X157249761Y-114672857D01*
X157297380Y-114768095D01*
X157297380Y-114910952D01*
X156630714Y-113720476D02*
X157440238Y-113720476D01*
X157535476Y-113768095D01*
X157583095Y-113815714D01*
X157630714Y-113910952D01*
X157630714Y-114053809D01*
X157583095Y-114149047D01*
X157249761Y-113720476D02*
X157297380Y-113815714D01*
X157297380Y-114006190D01*
X157249761Y-114101428D01*
X157202142Y-114149047D01*
X157106904Y-114196666D01*
X156821190Y-114196666D01*
X156725952Y-114149047D01*
X156678333Y-114101428D01*
X156630714Y-114006190D01*
X156630714Y-113815714D01*
X156678333Y-113720476D01*
X157297380Y-112482380D02*
X156297380Y-112482380D01*
X157297380Y-112053809D02*
X156773571Y-112053809D01*
X156678333Y-112101428D01*
X156630714Y-112196666D01*
X156630714Y-112339523D01*
X156678333Y-112434761D01*
X156725952Y-112482380D01*
X157249761Y-111196666D02*
X157297380Y-111291904D01*
X157297380Y-111482380D01*
X157249761Y-111577619D01*
X157154523Y-111625238D01*
X156773571Y-111625238D01*
X156678333Y-111577619D01*
X156630714Y-111482380D01*
X156630714Y-111291904D01*
X156678333Y-111196666D01*
X156773571Y-111149047D01*
X156868809Y-111149047D01*
X156964047Y-111625238D01*
X157297380Y-110291904D02*
X156773571Y-110291904D01*
X156678333Y-110339523D01*
X156630714Y-110434761D01*
X156630714Y-110625238D01*
X156678333Y-110720476D01*
X157249761Y-110291904D02*
X157297380Y-110387142D01*
X157297380Y-110625238D01*
X157249761Y-110720476D01*
X157154523Y-110768095D01*
X157059285Y-110768095D01*
X156964047Y-110720476D01*
X156916428Y-110625238D01*
X156916428Y-110387142D01*
X156868809Y-110291904D01*
X157297380Y-109387142D02*
X156297380Y-109387142D01*
X157249761Y-109387142D02*
X157297380Y-109482380D01*
X157297380Y-109672857D01*
X157249761Y-109768095D01*
X157202142Y-109815714D01*
X157106904Y-109863333D01*
X156821190Y-109863333D01*
X156725952Y-109815714D01*
X156678333Y-109768095D01*
X156630714Y-109672857D01*
X156630714Y-109482380D01*
X156678333Y-109387142D01*
X125563333Y-116562142D02*
X125515714Y-116609761D01*
X125372857Y-116657380D01*
X125277619Y-116657380D01*
X125134761Y-116609761D01*
X125039523Y-116514523D01*
X124991904Y-116419285D01*
X124944285Y-116228809D01*
X124944285Y-116085952D01*
X124991904Y-115895476D01*
X125039523Y-115800238D01*
X125134761Y-115705000D01*
X125277619Y-115657380D01*
X125372857Y-115657380D01*
X125515714Y-115705000D01*
X125563333Y-115752619D01*
X126468095Y-115657380D02*
X125991904Y-115657380D01*
X125944285Y-116133571D01*
X125991904Y-116085952D01*
X126087142Y-116038333D01*
X126325238Y-116038333D01*
X126420476Y-116085952D01*
X126468095Y-116133571D01*
X126515714Y-116228809D01*
X126515714Y-116466904D01*
X126468095Y-116562142D01*
X126420476Y-116609761D01*
X126325238Y-116657380D01*
X126087142Y-116657380D01*
X125991904Y-116609761D01*
X125944285Y-116562142D01*
X123023333Y-116562142D02*
X122975714Y-116609761D01*
X122832857Y-116657380D01*
X122737619Y-116657380D01*
X122594761Y-116609761D01*
X122499523Y-116514523D01*
X122451904Y-116419285D01*
X122404285Y-116228809D01*
X122404285Y-116085952D01*
X122451904Y-115895476D01*
X122499523Y-115800238D01*
X122594761Y-115705000D01*
X122737619Y-115657380D01*
X122832857Y-115657380D01*
X122975714Y-115705000D01*
X123023333Y-115752619D01*
X123356666Y-115657380D02*
X123975714Y-115657380D01*
X123642380Y-116038333D01*
X123785238Y-116038333D01*
X123880476Y-116085952D01*
X123928095Y-116133571D01*
X123975714Y-116228809D01*
X123975714Y-116466904D01*
X123928095Y-116562142D01*
X123880476Y-116609761D01*
X123785238Y-116657380D01*
X123499523Y-116657380D01*
X123404285Y-116609761D01*
X123356666Y-116562142D01*
X132037779Y-131531880D02*
X132037779Y-132342143D01*
X132085442Y-132437468D01*
X132133104Y-132485131D01*
X132228429Y-132532793D01*
X132419079Y-132532793D01*
X132514404Y-132485131D01*
X132562067Y-132437468D01*
X132609729Y-132342143D01*
X132609729Y-131531880D01*
X133038692Y-132485131D02*
X133181680Y-132532793D01*
X133419992Y-132532793D01*
X133515317Y-132485131D01*
X133562980Y-132437468D01*
X133610642Y-132342143D01*
X133610642Y-132246818D01*
X133562980Y-132151493D01*
X133515317Y-132103831D01*
X133419992Y-132056168D01*
X133229342Y-132008506D01*
X133134017Y-131960843D01*
X133086355Y-131913181D01*
X133038692Y-131817856D01*
X133038692Y-131722531D01*
X133086355Y-131627206D01*
X133134017Y-131579543D01*
X133229342Y-131531880D01*
X133467655Y-131531880D01*
X133610642Y-131579543D01*
X134373243Y-132008506D02*
X134516230Y-132056168D01*
X134563893Y-132103831D01*
X134611555Y-132199156D01*
X134611555Y-132342143D01*
X134563893Y-132437468D01*
X134516230Y-132485131D01*
X134420905Y-132532793D01*
X134039605Y-132532793D01*
X134039605Y-131531880D01*
X134373243Y-131531880D01*
X134468568Y-131579543D01*
X134516230Y-131627206D01*
X134563893Y-131722531D01*
X134563893Y-131817856D01*
X134516230Y-131913181D01*
X134468568Y-131960843D01*
X134373243Y-132008506D01*
X134039605Y-132008506D01*
X135803119Y-132532793D02*
X135803119Y-131531880D01*
X136184419Y-131531880D01*
X136279744Y-131579543D01*
X136327406Y-131627206D01*
X136375069Y-131722531D01*
X136375069Y-131865518D01*
X136327406Y-131960843D01*
X136279744Y-132008506D01*
X136184419Y-132056168D01*
X135803119Y-132056168D01*
X136708706Y-131531880D02*
X136947019Y-132532793D01*
X137137669Y-131817856D01*
X137328319Y-132532793D01*
X137566632Y-131531880D01*
X138519882Y-132532793D02*
X138186245Y-132056168D01*
X137947932Y-132532793D02*
X137947932Y-131531880D01*
X138329232Y-131531880D01*
X138424557Y-131579543D01*
X138472220Y-131627206D01*
X138519882Y-131722531D01*
X138519882Y-131865518D01*
X138472220Y-131960843D01*
X138424557Y-132008506D01*
X138329232Y-132056168D01*
X137947932Y-132056168D01*
X124504523Y-128212857D02*
X124771190Y-128212857D01*
X124885476Y-128631904D02*
X124504523Y-128631904D01*
X124504523Y-127831904D01*
X124885476Y-127831904D01*
X125228333Y-128631904D02*
X125228333Y-127831904D01*
X125685476Y-128631904D01*
X125685476Y-127831904D01*
X157678757Y-127676114D02*
X157716852Y-127561828D01*
X157754947Y-127523733D01*
X157831138Y-127485638D01*
X157945423Y-127485638D01*
X158021614Y-127523733D01*
X158059709Y-127561828D01*
X158097804Y-127638019D01*
X158097804Y-127942780D01*
X157297804Y-127942780D01*
X157297804Y-127676114D01*
X157335900Y-127599923D01*
X157373995Y-127561828D01*
X157450185Y-127523733D01*
X157526376Y-127523733D01*
X157602566Y-127561828D01*
X157640661Y-127599923D01*
X157678757Y-127676114D01*
X157678757Y-127942780D01*
X157297804Y-126990400D02*
X157297804Y-126838019D01*
X157335900Y-126761828D01*
X157412090Y-126685638D01*
X157564471Y-126647542D01*
X157831138Y-126647542D01*
X157983519Y-126685638D01*
X158059709Y-126761828D01*
X158097804Y-126838019D01*
X158097804Y-126990400D01*
X158059709Y-127066590D01*
X157983519Y-127142780D01*
X157831138Y-127180876D01*
X157564471Y-127180876D01*
X157412090Y-127142780D01*
X157335900Y-127066590D01*
X157297804Y-126990400D01*
X157297804Y-126152304D02*
X157297804Y-125999923D01*
X157335900Y-125923733D01*
X157412090Y-125847542D01*
X157564471Y-125809447D01*
X157831138Y-125809447D01*
X157983519Y-125847542D01*
X158059709Y-125923733D01*
X158097804Y-125999923D01*
X158097804Y-126152304D01*
X158059709Y-126228495D01*
X157983519Y-126304685D01*
X157831138Y-126342780D01*
X157564471Y-126342780D01*
X157412090Y-126304685D01*
X157335900Y-126228495D01*
X157297804Y-126152304D01*
X157297804Y-125580876D02*
X157297804Y-125123733D01*
X158097804Y-125352304D02*
X157297804Y-125352304D01*
X139533333Y-128087380D02*
X139200000Y-127611190D01*
X138961904Y-128087380D02*
X138961904Y-127087380D01*
X139342857Y-127087380D01*
X139438095Y-127135000D01*
X139485714Y-127182619D01*
X139533333Y-127277857D01*
X139533333Y-127420714D01*
X139485714Y-127515952D01*
X139438095Y-127563571D01*
X139342857Y-127611190D01*
X138961904Y-127611190D01*
X139866666Y-127087380D02*
X140485714Y-127087380D01*
X140152380Y-127468333D01*
X140295238Y-127468333D01*
X140390476Y-127515952D01*
X140438095Y-127563571D01*
X140485714Y-127658809D01*
X140485714Y-127896904D01*
X140438095Y-127992142D01*
X140390476Y-128039761D01*
X140295238Y-128087380D01*
X140009523Y-128087380D01*
X139914285Y-128039761D01*
X139866666Y-127992142D01*
X132992904Y-130500380D02*
X132992904Y-129500380D01*
X133231000Y-129500380D01*
X133373857Y-129548000D01*
X133469095Y-129643238D01*
X133516714Y-129738476D01*
X133564333Y-129928952D01*
X133564333Y-130071809D01*
X133516714Y-130262285D01*
X133469095Y-130357523D01*
X133373857Y-130452761D01*
X133231000Y-130500380D01*
X132992904Y-130500380D01*
X134516714Y-130500380D02*
X133945285Y-130500380D01*
X134231000Y-130500380D02*
X134231000Y-129500380D01*
X134135761Y-129643238D01*
X134040523Y-129738476D01*
X133945285Y-129786095D01*
X150089699Y-126293476D02*
X150232746Y-126341158D01*
X150280429Y-126388841D01*
X150328111Y-126484206D01*
X150328111Y-126627253D01*
X150280429Y-126722618D01*
X150232746Y-126770300D01*
X150137381Y-126817983D01*
X149755922Y-126817983D01*
X149755922Y-125816652D01*
X150089699Y-125816652D01*
X150185064Y-125864334D01*
X150232746Y-125912016D01*
X150280429Y-126007381D01*
X150280429Y-126102746D01*
X150232746Y-126198111D01*
X150185064Y-126245793D01*
X150089699Y-126293476D01*
X149755922Y-126293476D01*
X150661888Y-125816652D02*
X151329442Y-125816652D01*
X150661888Y-126817983D01*
X151329442Y-126817983D01*
X152653147Y-132786597D02*
X153416852Y-132786597D01*
D16*
X138143365Y-132723519D02*
X138907754Y-132723519D01*
X138525560Y-133105713D02*
X138525560Y-132341325D01*
D10*
X121753333Y-110847142D02*
X121705714Y-110894761D01*
X121562857Y-110942380D01*
X121467619Y-110942380D01*
X121324761Y-110894761D01*
X121229523Y-110799523D01*
X121181904Y-110704285D01*
X121134285Y-110513809D01*
X121134285Y-110370952D01*
X121181904Y-110180476D01*
X121229523Y-110085238D01*
X121324761Y-109990000D01*
X121467619Y-109942380D01*
X121562857Y-109942380D01*
X121705714Y-109990000D01*
X121753333Y-110037619D01*
X122610476Y-110275714D02*
X122610476Y-110942380D01*
X122372380Y-109894761D02*
X122134285Y-110609047D01*
X122753333Y-110609047D01*
X156043333Y-121102380D02*
X155710000Y-120626190D01*
X155471904Y-121102380D02*
X155471904Y-120102380D01*
X155852857Y-120102380D01*
X155948095Y-120150000D01*
X155995714Y-120197619D01*
X156043333Y-120292857D01*
X156043333Y-120435714D01*
X155995714Y-120530952D01*
X155948095Y-120578571D01*
X155852857Y-120626190D01*
X155471904Y-120626190D01*
X156424285Y-120197619D02*
X156471904Y-120150000D01*
X156567142Y-120102380D01*
X156805238Y-120102380D01*
X156900476Y-120150000D01*
X156948095Y-120197619D01*
X156995714Y-120292857D01*
X156995714Y-120388095D01*
X156948095Y-120530952D01*
X156376666Y-121102380D01*
X156995714Y-121102380D01*
X126198333Y-106402142D02*
X126150714Y-106449761D01*
X126007857Y-106497380D01*
X125912619Y-106497380D01*
X125769761Y-106449761D01*
X125674523Y-106354523D01*
X125626904Y-106259285D01*
X125579285Y-106068809D01*
X125579285Y-105925952D01*
X125626904Y-105735476D01*
X125674523Y-105640238D01*
X125769761Y-105545000D01*
X125912619Y-105497380D01*
X126007857Y-105497380D01*
X126150714Y-105545000D01*
X126198333Y-105592619D01*
X127150714Y-106497380D02*
X126579285Y-106497380D01*
X126865000Y-106497380D02*
X126865000Y-105497380D01*
X126769761Y-105640238D01*
X126674523Y-105735476D01*
X126579285Y-105783095D01*
X130643333Y-129897142D02*
X130595714Y-129944761D01*
X130452857Y-129992380D01*
X130357619Y-129992380D01*
X130214761Y-129944761D01*
X130119523Y-129849523D01*
X130071904Y-129754285D01*
X130024285Y-129563809D01*
X130024285Y-129420952D01*
X130071904Y-129230476D01*
X130119523Y-129135238D01*
X130214761Y-129040000D01*
X130357619Y-128992380D01*
X130452857Y-128992380D01*
X130595714Y-129040000D01*
X130643333Y-129087619D01*
X131024285Y-129087619D02*
X131071904Y-129040000D01*
X131167142Y-128992380D01*
X131405238Y-128992380D01*
X131500476Y-129040000D01*
X131548095Y-129087619D01*
X131595714Y-129182857D01*
X131595714Y-129278095D01*
X131548095Y-129420952D01*
X130976666Y-129992380D01*
X131595714Y-129992380D01*
X124968095Y-125817380D02*
X124968095Y-126626904D01*
X125015714Y-126722142D01*
X125063333Y-126769761D01*
X125158571Y-126817380D01*
X125349047Y-126817380D01*
X125444285Y-126769761D01*
X125491904Y-126722142D01*
X125539523Y-126626904D01*
X125539523Y-125817380D01*
X125968095Y-125912619D02*
X126015714Y-125865000D01*
X126110952Y-125817380D01*
X126349047Y-125817380D01*
X126444285Y-125865000D01*
X126491904Y-125912619D01*
X126539523Y-126007857D01*
X126539523Y-126103095D01*
X126491904Y-126245952D01*
X125920476Y-126817380D01*
X126539523Y-126817380D01*
X140842225Y-125816755D02*
X140842225Y-126627203D01*
X140889898Y-126722550D01*
X140937572Y-126770224D01*
X141032918Y-126817897D01*
X141223612Y-126817897D01*
X141318959Y-126770224D01*
X141366632Y-126722550D01*
X141414306Y-126627203D01*
X141414306Y-125816755D01*
X142415448Y-126817897D02*
X141843367Y-126817897D01*
X142129407Y-126817897D02*
X142129407Y-125816755D01*
X142034060Y-125959775D01*
X141938714Y-126055122D01*
X141843367Y-126102796D01*
X128484333Y-116657380D02*
X128151000Y-116181190D01*
X127912904Y-116657380D02*
X127912904Y-115657380D01*
X128293857Y-115657380D01*
X128389095Y-115705000D01*
X128436714Y-115752619D01*
X128484333Y-115847857D01*
X128484333Y-115990714D01*
X128436714Y-116085952D01*
X128389095Y-116133571D01*
X128293857Y-116181190D01*
X127912904Y-116181190D01*
X129436714Y-116657380D02*
X128865285Y-116657380D01*
X129151000Y-116657380D02*
X129151000Y-115657380D01*
X129055761Y-115800238D01*
X128960523Y-115895476D01*
X128865285Y-115943095D01*
M02*
