G04 #@! TF.GenerationSoftware,KiCad,Pcbnew,(5.1.9)-1*
G04 #@! TF.CreationDate,2021-04-10T16:29:16+02:00*
G04 #@! TF.ProjectId,eerste_versie,65657273-7465-45f7-9665-727369652e6b,rev?*
G04 #@! TF.SameCoordinates,Original*
G04 #@! TF.FileFunction,Soldermask,Top*
G04 #@! TF.FilePolarity,Negative*
%FSLAX46Y46*%
G04 Gerber Fmt 4.6, Leading zero omitted, Abs format (unit mm)*
G04 Created by KiCad (PCBNEW (5.1.9)-1) date 2021-04-10 16:29:16*
%MOMM*%
%LPD*%
G01*
G04 APERTURE LIST*
%ADD10C,0.000100*%
%ADD11C,1.102360*%
%ADD12R,2.600000X2.600000*%
%ADD13C,2.600000*%
%ADD14R,1.700000X1.700000*%
%ADD15O,1.700000X1.700000*%
%ADD16C,1.700000*%
%ADD17R,0.400000X1.350000*%
%ADD18C,1.450000*%
%ADD19R,1.500000X1.900000*%
%ADD20R,2.300000X1.500000*%
%ADD21R,1.500000X2.300000*%
%ADD22C,2.100000*%
%ADD23C,1.408000*%
%ADD24R,3.800000X2.000000*%
%ADD25R,1.500000X2.000000*%
%ADD26C,0.762000*%
%ADD27R,1.330000X1.330000*%
%ADD28R,0.900000X2.000000*%
%ADD29R,2.000000X0.900000*%
G04 APERTURE END LIST*
D10*
G36*
X138628000Y-134840000D02*
G01*
X137328000Y-134840000D01*
X137328000Y-136940000D01*
X138628000Y-136940000D01*
X138658093Y-136939212D01*
X138688104Y-136936850D01*
X138717950Y-136932921D01*
X138747549Y-136927435D01*
X138776821Y-136920407D01*
X138805685Y-136911857D01*
X138834062Y-136901809D01*
X138861874Y-136890289D01*
X138889045Y-136877329D01*
X138915500Y-136862965D01*
X138941167Y-136847236D01*
X138965977Y-136830185D01*
X138989859Y-136811859D01*
X139012750Y-136792308D01*
X139034586Y-136771586D01*
X139055308Y-136749750D01*
X139074859Y-136726859D01*
X139093185Y-136702977D01*
X139110236Y-136678167D01*
X139125965Y-136652500D01*
X139140329Y-136626045D01*
X139153289Y-136598874D01*
X139164809Y-136571062D01*
X139174857Y-136542685D01*
X139183407Y-136513821D01*
X139190435Y-136484549D01*
X139195921Y-136454950D01*
X139199850Y-136425104D01*
X139202212Y-136395093D01*
X139203000Y-136365000D01*
X139203000Y-135415000D01*
X139202212Y-135384907D01*
X139199850Y-135354896D01*
X139195921Y-135325050D01*
X139190435Y-135295451D01*
X139183407Y-135266179D01*
X139174857Y-135237315D01*
X139164809Y-135208938D01*
X139153289Y-135181126D01*
X139140329Y-135153955D01*
X139125965Y-135127500D01*
X139110236Y-135101833D01*
X139093185Y-135077023D01*
X139074859Y-135053141D01*
X139055308Y-135030250D01*
X139034586Y-135008414D01*
X139012750Y-134987692D01*
X138989859Y-134968141D01*
X138965977Y-134949815D01*
X138941167Y-134932764D01*
X138915500Y-134917035D01*
X138889045Y-134902671D01*
X138861874Y-134889711D01*
X138834062Y-134878191D01*
X138805685Y-134868143D01*
X138776821Y-134859593D01*
X138747549Y-134852565D01*
X138717950Y-134847079D01*
X138688104Y-134843150D01*
X138658093Y-134840788D01*
X138628000Y-134840000D01*
G37*
X138628000Y-134840000D02*
X137328000Y-134840000D01*
X137328000Y-136940000D01*
X138628000Y-136940000D01*
X138658093Y-136939212D01*
X138688104Y-136936850D01*
X138717950Y-136932921D01*
X138747549Y-136927435D01*
X138776821Y-136920407D01*
X138805685Y-136911857D01*
X138834062Y-136901809D01*
X138861874Y-136890289D01*
X138889045Y-136877329D01*
X138915500Y-136862965D01*
X138941167Y-136847236D01*
X138965977Y-136830185D01*
X138989859Y-136811859D01*
X139012750Y-136792308D01*
X139034586Y-136771586D01*
X139055308Y-136749750D01*
X139074859Y-136726859D01*
X139093185Y-136702977D01*
X139110236Y-136678167D01*
X139125965Y-136652500D01*
X139140329Y-136626045D01*
X139153289Y-136598874D01*
X139164809Y-136571062D01*
X139174857Y-136542685D01*
X139183407Y-136513821D01*
X139190435Y-136484549D01*
X139195921Y-136454950D01*
X139199850Y-136425104D01*
X139202212Y-136395093D01*
X139203000Y-136365000D01*
X139203000Y-135415000D01*
X139202212Y-135384907D01*
X139199850Y-135354896D01*
X139195921Y-135325050D01*
X139190435Y-135295451D01*
X139183407Y-135266179D01*
X139174857Y-135237315D01*
X139164809Y-135208938D01*
X139153289Y-135181126D01*
X139140329Y-135153955D01*
X139125965Y-135127500D01*
X139110236Y-135101833D01*
X139093185Y-135077023D01*
X139074859Y-135053141D01*
X139055308Y-135030250D01*
X139034586Y-135008414D01*
X139012750Y-134987692D01*
X138989859Y-134968141D01*
X138965977Y-134949815D01*
X138941167Y-134932764D01*
X138915500Y-134917035D01*
X138889045Y-134902671D01*
X138861874Y-134889711D01*
X138834062Y-134878191D01*
X138805685Y-134868143D01*
X138776821Y-134859593D01*
X138747549Y-134852565D01*
X138717950Y-134847079D01*
X138688104Y-134843150D01*
X138658093Y-134840788D01*
X138628000Y-134840000D01*
G36*
X131628000Y-134840000D02*
G01*
X132928000Y-134840000D01*
X132928000Y-136940000D01*
X131628000Y-136940000D01*
X131597907Y-136939212D01*
X131567896Y-136936850D01*
X131538050Y-136932921D01*
X131508451Y-136927435D01*
X131479179Y-136920407D01*
X131450315Y-136911857D01*
X131421938Y-136901809D01*
X131394126Y-136890289D01*
X131366955Y-136877329D01*
X131340500Y-136862965D01*
X131314833Y-136847236D01*
X131290023Y-136830185D01*
X131266141Y-136811859D01*
X131243250Y-136792308D01*
X131221414Y-136771586D01*
X131200692Y-136749750D01*
X131181141Y-136726859D01*
X131162815Y-136702977D01*
X131145764Y-136678167D01*
X131130035Y-136652500D01*
X131115671Y-136626045D01*
X131102711Y-136598874D01*
X131091191Y-136571062D01*
X131081143Y-136542685D01*
X131072593Y-136513821D01*
X131065565Y-136484549D01*
X131060079Y-136454950D01*
X131056150Y-136425104D01*
X131053788Y-136395093D01*
X131053000Y-136365000D01*
X131053000Y-135415000D01*
X131053788Y-135384907D01*
X131056150Y-135354896D01*
X131060079Y-135325050D01*
X131065565Y-135295451D01*
X131072593Y-135266179D01*
X131081143Y-135237315D01*
X131091191Y-135208938D01*
X131102711Y-135181126D01*
X131115671Y-135153955D01*
X131130035Y-135127500D01*
X131145764Y-135101833D01*
X131162815Y-135077023D01*
X131181141Y-135053141D01*
X131200692Y-135030250D01*
X131221414Y-135008414D01*
X131243250Y-134987692D01*
X131266141Y-134968141D01*
X131290023Y-134949815D01*
X131314833Y-134932764D01*
X131340500Y-134917035D01*
X131366955Y-134902671D01*
X131394126Y-134889711D01*
X131421938Y-134878191D01*
X131450315Y-134868143D01*
X131479179Y-134859593D01*
X131508451Y-134852565D01*
X131538050Y-134847079D01*
X131567896Y-134843150D01*
X131597907Y-134840788D01*
X131628000Y-134840000D01*
G37*
X131628000Y-134840000D02*
X132928000Y-134840000D01*
X132928000Y-136940000D01*
X131628000Y-136940000D01*
X131597907Y-136939212D01*
X131567896Y-136936850D01*
X131538050Y-136932921D01*
X131508451Y-136927435D01*
X131479179Y-136920407D01*
X131450315Y-136911857D01*
X131421938Y-136901809D01*
X131394126Y-136890289D01*
X131366955Y-136877329D01*
X131340500Y-136862965D01*
X131314833Y-136847236D01*
X131290023Y-136830185D01*
X131266141Y-136811859D01*
X131243250Y-136792308D01*
X131221414Y-136771586D01*
X131200692Y-136749750D01*
X131181141Y-136726859D01*
X131162815Y-136702977D01*
X131145764Y-136678167D01*
X131130035Y-136652500D01*
X131115671Y-136626045D01*
X131102711Y-136598874D01*
X131091191Y-136571062D01*
X131081143Y-136542685D01*
X131072593Y-136513821D01*
X131065565Y-136484549D01*
X131060079Y-136454950D01*
X131056150Y-136425104D01*
X131053788Y-136395093D01*
X131053000Y-136365000D01*
X131053000Y-135415000D01*
X131053788Y-135384907D01*
X131056150Y-135354896D01*
X131060079Y-135325050D01*
X131065565Y-135295451D01*
X131072593Y-135266179D01*
X131081143Y-135237315D01*
X131091191Y-135208938D01*
X131102711Y-135181126D01*
X131115671Y-135153955D01*
X131130035Y-135127500D01*
X131145764Y-135101833D01*
X131162815Y-135077023D01*
X131181141Y-135053141D01*
X131200692Y-135030250D01*
X131221414Y-135008414D01*
X131243250Y-134987692D01*
X131266141Y-134968141D01*
X131290023Y-134949815D01*
X131314833Y-134932764D01*
X131340500Y-134917035D01*
X131366955Y-134902671D01*
X131394126Y-134889711D01*
X131421938Y-134878191D01*
X131450315Y-134868143D01*
X131479179Y-134859593D01*
X131508451Y-134852565D01*
X131538050Y-134847079D01*
X131567896Y-134843150D01*
X131597907Y-134840788D01*
X131628000Y-134840000D01*
D11*
X124802900Y-136842500D03*
X127800100Y-136842500D03*
G36*
G01*
X123252230Y-135343900D02*
X123252230Y-136141460D01*
G75*
G02*
X123150630Y-136243060I-101600J0D01*
G01*
X122152410Y-136243060D01*
G75*
G02*
X122050810Y-136141460I0J101600D01*
G01*
X122050810Y-135343900D01*
G75*
G02*
X122152410Y-135242300I101600J0D01*
G01*
X123150630Y-135242300D01*
G75*
G02*
X123252230Y-135343900I0J-101600D01*
G01*
G37*
G36*
G01*
X123252230Y-137541000D02*
X123252230Y-138140440D01*
G75*
G02*
X123150630Y-138242040I-101600J0D01*
G01*
X122152410Y-138242040D01*
G75*
G02*
X122050810Y-138140440I0J101600D01*
G01*
X122050810Y-137541000D01*
G75*
G02*
X122152410Y-137439400I101600J0D01*
G01*
X123150630Y-137439400D01*
G75*
G02*
X123252230Y-137541000I0J-101600D01*
G01*
G37*
G36*
G01*
X130552190Y-135343900D02*
X130552190Y-136141460D01*
G75*
G02*
X130450590Y-136243060I-101600J0D01*
G01*
X129452370Y-136243060D01*
G75*
G02*
X129350770Y-136141460I0J101600D01*
G01*
X129350770Y-135343900D01*
G75*
G02*
X129452370Y-135242300I101600J0D01*
G01*
X130450590Y-135242300D01*
G75*
G02*
X130552190Y-135343900I0J-101600D01*
G01*
G37*
G36*
G01*
X130552190Y-137541000D02*
X130552190Y-138140440D01*
G75*
G02*
X130450590Y-138242040I-101600J0D01*
G01*
X129452370Y-138242040D01*
G75*
G02*
X129350770Y-138140440I0J101600D01*
G01*
X129350770Y-137541000D01*
G75*
G02*
X129452370Y-137439400I101600J0D01*
G01*
X130450590Y-137439400D01*
G75*
G02*
X130552190Y-137541000I0J-101600D01*
G01*
G37*
G36*
G01*
X123602750Y-135844280D02*
X123602750Y-134345680D01*
G75*
G02*
X123704350Y-134244080I101600J0D01*
G01*
X124402850Y-134244080D01*
G75*
G02*
X124504450Y-134345680I0J-101600D01*
G01*
X124504450Y-135844280D01*
G75*
G02*
X124402850Y-135945880I-101600J0D01*
G01*
X123704350Y-135945880D01*
G75*
G02*
X123602750Y-135844280I0J101600D01*
G01*
G37*
G36*
G01*
X126599950Y-135844280D02*
X126599950Y-134345680D01*
G75*
G02*
X126701550Y-134244080I101600J0D01*
G01*
X127400050Y-134244080D01*
G75*
G02*
X127501650Y-134345680I0J-101600D01*
G01*
X127501650Y-135844280D01*
G75*
G02*
X127400050Y-135945880I-101600J0D01*
G01*
X126701550Y-135945880D01*
G75*
G02*
X126599950Y-135844280I0J101600D01*
G01*
G37*
G36*
G01*
X128098550Y-135844280D02*
X128098550Y-134345680D01*
G75*
G02*
X128200150Y-134244080I101600J0D01*
G01*
X128898650Y-134244080D01*
G75*
G02*
X129000250Y-134345680I0J-101600D01*
G01*
X129000250Y-135844280D01*
G75*
G02*
X128898650Y-135945880I-101600J0D01*
G01*
X128200150Y-135945880D01*
G75*
G02*
X128098550Y-135844280I0J101600D01*
G01*
G37*
G36*
G01*
X153032000Y-117659999D02*
X153032000Y-118560001D01*
G75*
G02*
X152782001Y-118810000I-249999J0D01*
G01*
X152081999Y-118810000D01*
G75*
G02*
X151832000Y-118560001I0J249999D01*
G01*
X151832000Y-117659999D01*
G75*
G02*
X152081999Y-117410000I249999J0D01*
G01*
X152782001Y-117410000D01*
G75*
G02*
X153032000Y-117659999I0J-249999D01*
G01*
G37*
G36*
G01*
X155032000Y-117659999D02*
X155032000Y-118560001D01*
G75*
G02*
X154782001Y-118810000I-249999J0D01*
G01*
X154081999Y-118810000D01*
G75*
G02*
X153832000Y-118560001I0J249999D01*
G01*
X153832000Y-117659999D01*
G75*
G02*
X154081999Y-117410000I249999J0D01*
G01*
X154782001Y-117410000D01*
G75*
G02*
X155032000Y-117659999I0J-249999D01*
G01*
G37*
D12*
X116459000Y-119888000D03*
D13*
X116459000Y-124968000D03*
D14*
X152400000Y-107410000D03*
D15*
X152400000Y-109950000D03*
X152400000Y-112490000D03*
D16*
X152400000Y-115030000D03*
G36*
G01*
X125255000Y-114115000D02*
X126205000Y-114115000D01*
G75*
G02*
X126455000Y-114365000I0J-250000D01*
G01*
X126455000Y-115040000D01*
G75*
G02*
X126205000Y-115290000I-250000J0D01*
G01*
X125255000Y-115290000D01*
G75*
G02*
X125005000Y-115040000I0J250000D01*
G01*
X125005000Y-114365000D01*
G75*
G02*
X125255000Y-114115000I250000J0D01*
G01*
G37*
G36*
G01*
X125255000Y-112040000D02*
X126205000Y-112040000D01*
G75*
G02*
X126455000Y-112290000I0J-250000D01*
G01*
X126455000Y-112965000D01*
G75*
G02*
X126205000Y-113215000I-250000J0D01*
G01*
X125255000Y-113215000D01*
G75*
G02*
X125005000Y-112965000I0J250000D01*
G01*
X125005000Y-112290000D01*
G75*
G02*
X125255000Y-112040000I250000J0D01*
G01*
G37*
G36*
G01*
X123538000Y-113215000D02*
X122588000Y-113215000D01*
G75*
G02*
X122338000Y-112965000I0J250000D01*
G01*
X122338000Y-112290000D01*
G75*
G02*
X122588000Y-112040000I250000J0D01*
G01*
X123538000Y-112040000D01*
G75*
G02*
X123788000Y-112290000I0J-250000D01*
G01*
X123788000Y-112965000D01*
G75*
G02*
X123538000Y-113215000I-250000J0D01*
G01*
G37*
G36*
G01*
X123538000Y-115290000D02*
X122588000Y-115290000D01*
G75*
G02*
X122338000Y-115040000I0J250000D01*
G01*
X122338000Y-114365000D01*
G75*
G02*
X122588000Y-114115000I250000J0D01*
G01*
X123538000Y-114115000D01*
G75*
G02*
X123788000Y-114365000I0J-250000D01*
G01*
X123788000Y-115040000D01*
G75*
G02*
X123538000Y-115290000I-250000J0D01*
G01*
G37*
D17*
X136428000Y-133215000D03*
X135778000Y-133215000D03*
X135128000Y-133215000D03*
X134478000Y-133215000D03*
X133828000Y-133215000D03*
D18*
X137628000Y-133190000D03*
X132628000Y-133190000D03*
D19*
X136128000Y-135890000D03*
X134128000Y-135890000D03*
D20*
X128445000Y-130810000D03*
X121745000Y-130810000D03*
D21*
X154559000Y-123396000D03*
X154559000Y-130096000D03*
D22*
X156845000Y-135890000D03*
X113030000Y-107315000D03*
X156845000Y-107315000D03*
X113030000Y-135890000D03*
G36*
G01*
X136506000Y-127184999D02*
X136506000Y-128085001D01*
G75*
G02*
X136256001Y-128335000I-249999J0D01*
G01*
X135555999Y-128335000D01*
G75*
G02*
X135306000Y-128085001I0J249999D01*
G01*
X135306000Y-127184999D01*
G75*
G02*
X135555999Y-126935000I249999J0D01*
G01*
X136256001Y-126935000D01*
G75*
G02*
X136506000Y-127184999I0J-249999D01*
G01*
G37*
G36*
G01*
X138506000Y-127184999D02*
X138506000Y-128085001D01*
G75*
G02*
X138256001Y-128335000I-249999J0D01*
G01*
X137555999Y-128335000D01*
G75*
G02*
X137306000Y-128085001I0J249999D01*
G01*
X137306000Y-127184999D01*
G75*
G02*
X137555999Y-126935000I249999J0D01*
G01*
X138256001Y-126935000D01*
G75*
G02*
X138506000Y-127184999I0J-249999D01*
G01*
G37*
G36*
G01*
X137356000Y-130625001D02*
X137356000Y-129724999D01*
G75*
G02*
X137605999Y-129475000I249999J0D01*
G01*
X138256001Y-129475000D01*
G75*
G02*
X138506000Y-129724999I0J-249999D01*
G01*
X138506000Y-130625001D01*
G75*
G02*
X138256001Y-130875000I-249999J0D01*
G01*
X137605999Y-130875000D01*
G75*
G02*
X137356000Y-130625001I0J249999D01*
G01*
G37*
G36*
G01*
X135306000Y-130625001D02*
X135306000Y-129724999D01*
G75*
G02*
X135555999Y-129475000I249999J0D01*
G01*
X136206001Y-129475000D01*
G75*
G02*
X136456000Y-129724999I0J-249999D01*
G01*
X136456000Y-130625001D01*
G75*
G02*
X136206001Y-130875000I-249999J0D01*
G01*
X135555999Y-130875000D01*
G75*
G02*
X135306000Y-130625001I0J249999D01*
G01*
G37*
D23*
X148550000Y-132080000D03*
X143550000Y-132080000D03*
G36*
G01*
X126720000Y-110015000D02*
X126720000Y-110965000D01*
G75*
G02*
X126470000Y-111215000I-250000J0D01*
G01*
X125795000Y-111215000D01*
G75*
G02*
X125545000Y-110965000I0J250000D01*
G01*
X125545000Y-110015000D01*
G75*
G02*
X125795000Y-109765000I250000J0D01*
G01*
X126470000Y-109765000D01*
G75*
G02*
X126720000Y-110015000I0J-250000D01*
G01*
G37*
G36*
G01*
X124645000Y-110015000D02*
X124645000Y-110965000D01*
G75*
G02*
X124395000Y-111215000I-250000J0D01*
G01*
X123720000Y-111215000D01*
G75*
G02*
X123470000Y-110965000I0J250000D01*
G01*
X123470000Y-110015000D01*
G75*
G02*
X123720000Y-109765000I250000J0D01*
G01*
X124395000Y-109765000D01*
G75*
G02*
X124645000Y-110015000I0J-250000D01*
G01*
G37*
G36*
G01*
X153000000Y-120199999D02*
X153000000Y-121100001D01*
G75*
G02*
X152750001Y-121350000I-249999J0D01*
G01*
X152049999Y-121350000D01*
G75*
G02*
X151800000Y-121100001I0J249999D01*
G01*
X151800000Y-120199999D01*
G75*
G02*
X152049999Y-119950000I249999J0D01*
G01*
X152750001Y-119950000D01*
G75*
G02*
X153000000Y-120199999I0J-249999D01*
G01*
G37*
G36*
G01*
X155000000Y-120199999D02*
X155000000Y-121100001D01*
G75*
G02*
X154750001Y-121350000I-249999J0D01*
G01*
X154049999Y-121350000D01*
G75*
G02*
X153800000Y-121100001I0J249999D01*
G01*
X153800000Y-120199999D01*
G75*
G02*
X154049999Y-119950000I249999J0D01*
G01*
X154750001Y-119950000D01*
G75*
G02*
X155000000Y-120199999I0J-249999D01*
G01*
G37*
G36*
G01*
X128049000Y-107489500D02*
X128999000Y-107489500D01*
G75*
G02*
X129249000Y-107739500I0J-250000D01*
G01*
X129249000Y-108414500D01*
G75*
G02*
X128999000Y-108664500I-250000J0D01*
G01*
X128049000Y-108664500D01*
G75*
G02*
X127799000Y-108414500I0J250000D01*
G01*
X127799000Y-107739500D01*
G75*
G02*
X128049000Y-107489500I250000J0D01*
G01*
G37*
G36*
G01*
X128049000Y-105414500D02*
X128999000Y-105414500D01*
G75*
G02*
X129249000Y-105664500I0J-250000D01*
G01*
X129249000Y-106339500D01*
G75*
G02*
X128999000Y-106589500I-250000J0D01*
G01*
X128049000Y-106589500D01*
G75*
G02*
X127799000Y-106339500I0J250000D01*
G01*
X127799000Y-105664500D01*
G75*
G02*
X128049000Y-105414500I250000J0D01*
G01*
G37*
G36*
G01*
X130455000Y-128110000D02*
X130455000Y-127160000D01*
G75*
G02*
X130705000Y-126910000I250000J0D01*
G01*
X131380000Y-126910000D01*
G75*
G02*
X131630000Y-127160000I0J-250000D01*
G01*
X131630000Y-128110000D01*
G75*
G02*
X131380000Y-128360000I-250000J0D01*
G01*
X130705000Y-128360000D01*
G75*
G02*
X130455000Y-128110000I0J250000D01*
G01*
G37*
G36*
G01*
X132530000Y-128110000D02*
X132530000Y-127160000D01*
G75*
G02*
X132780000Y-126910000I250000J0D01*
G01*
X133455000Y-126910000D01*
G75*
G02*
X133705000Y-127160000I0J-250000D01*
G01*
X133705000Y-128110000D01*
G75*
G02*
X133455000Y-128360000I-250000J0D01*
G01*
X132780000Y-128360000D01*
G75*
G02*
X132530000Y-128110000I0J250000D01*
G01*
G37*
D24*
X125730000Y-118110000D03*
D25*
X125730000Y-124410000D03*
X128030000Y-124410000D03*
X123430000Y-124410000D03*
D26*
X140007500Y-116015000D03*
X138172500Y-116015000D03*
X140007500Y-112345000D03*
X138172500Y-112345000D03*
X140007500Y-114180000D03*
X138172500Y-114180000D03*
X140925000Y-115097500D03*
X139090000Y-115097500D03*
X137255000Y-115097500D03*
X140925000Y-113262500D03*
X137255000Y-113262500D03*
X139090000Y-113262500D03*
D27*
X140925000Y-116015000D03*
X137255000Y-116015000D03*
X139090000Y-116015000D03*
X140925000Y-112345000D03*
X137255000Y-112345000D03*
X139090000Y-112345000D03*
X140925000Y-114180000D03*
X137255000Y-114180000D03*
X139090000Y-114180000D03*
D28*
X134375000Y-124190000D03*
X135645000Y-124190000D03*
X136915000Y-124190000D03*
X138185000Y-124190000D03*
X139455000Y-124190000D03*
X145805000Y-124190000D03*
X144535000Y-124190000D03*
X143265000Y-124190000D03*
X141995000Y-124190000D03*
X140725000Y-124190000D03*
D29*
X148590000Y-106680000D03*
X148590000Y-107950000D03*
X148590000Y-109220000D03*
X148590000Y-110490000D03*
X148590000Y-111760000D03*
X148590000Y-113030000D03*
X148590000Y-114300000D03*
X148590000Y-115570000D03*
X148590000Y-116840000D03*
X148590000Y-118110000D03*
X148590000Y-119380000D03*
X148590000Y-120650000D03*
X148590000Y-121920000D03*
X148590000Y-123190000D03*
X131590000Y-106680000D03*
X131590000Y-107950000D03*
X131590000Y-109220000D03*
X131590000Y-110490000D03*
X131590000Y-111760000D03*
X131590000Y-113030000D03*
X131590000Y-114300000D03*
X131590000Y-115570000D03*
X131590000Y-116840000D03*
X131590000Y-118110000D03*
X131590000Y-119380000D03*
X131590000Y-120650000D03*
X131590000Y-121920000D03*
X131590000Y-123190000D03*
G36*
G01*
X129101001Y-113265000D02*
X128200999Y-113265000D01*
G75*
G02*
X127951000Y-113015001I0J249999D01*
G01*
X127951000Y-112314999D01*
G75*
G02*
X128200999Y-112065000I249999J0D01*
G01*
X129101001Y-112065000D01*
G75*
G02*
X129351000Y-112314999I0J-249999D01*
G01*
X129351000Y-113015001D01*
G75*
G02*
X129101001Y-113265000I-249999J0D01*
G01*
G37*
G36*
G01*
X129101001Y-115265000D02*
X128200999Y-115265000D01*
G75*
G02*
X127951000Y-115015001I0J249999D01*
G01*
X127951000Y-114314999D01*
G75*
G02*
X128200999Y-114065000I249999J0D01*
G01*
X129101001Y-114065000D01*
G75*
G02*
X129351000Y-114314999I0J-249999D01*
G01*
X129351000Y-115015001D01*
G75*
G02*
X129101001Y-115265000I-249999J0D01*
G01*
G37*
M02*
