G04 #@! TF.GenerationSoftware,KiCad,Pcbnew,(5.1.9)-1*
G04 #@! TF.CreationDate,2021-04-10T16:29:17+02:00*
G04 #@! TF.ProjectId,eerste_versie,65657273-7465-45f7-9665-727369652e6b,rev?*
G04 #@! TF.SameCoordinates,Original*
G04 #@! TF.FileFunction,Other,User*
%FSLAX46Y46*%
G04 Gerber Fmt 4.6, Leading zero omitted, Abs format (unit mm)*
G04 Created by KiCad (PCBNEW (5.1.9)-1) date 2021-04-10 16:29:17*
%MOMM*%
%LPD*%
G01*
G04 APERTURE LIST*
%ADD10C,0.050000*%
%ADD11C,0.100000*%
G04 APERTURE END LIST*
D10*
X155282000Y-117160000D02*
X155282000Y-119060000D01*
X155282000Y-119060000D02*
X151582000Y-119060000D01*
X151582000Y-119060000D02*
X151582000Y-117160000D01*
X151582000Y-117160000D02*
X155282000Y-117160000D01*
X110749000Y-128008000D02*
X121559000Y-128008000D01*
X121559000Y-128008000D02*
X121559000Y-116838000D01*
X121559000Y-116838000D02*
X110749000Y-116838000D01*
X110749000Y-116838000D02*
X110749000Y-128008000D01*
X154200000Y-116830000D02*
X150650000Y-116830000D01*
X150650000Y-116830000D02*
X150650000Y-105630000D01*
X150650000Y-105630000D02*
X154200000Y-105630000D01*
X154200000Y-105630000D02*
X154200000Y-116830000D01*
X124750000Y-115545000D02*
X124750000Y-111785000D01*
X126710000Y-115545000D02*
X124750000Y-115545000D01*
X126710000Y-111785000D02*
X126710000Y-115545000D01*
X124750000Y-111785000D02*
X126710000Y-111785000D01*
X124043000Y-111785000D02*
X124043000Y-115545000D01*
X122083000Y-111785000D02*
X124043000Y-111785000D01*
X122083000Y-115545000D02*
X122083000Y-111785000D01*
X124043000Y-115545000D02*
X122083000Y-115545000D01*
X139353000Y-132215000D02*
X130903000Y-132215000D01*
X139353000Y-138290000D02*
X139353000Y-132215000D01*
X130903000Y-138290000D02*
X139353000Y-138290000D01*
X130903000Y-132215000D02*
X130903000Y-138290000D01*
D11*
G36*
X120395000Y-128760000D02*
G01*
X129795000Y-128760000D01*
X129795000Y-132860000D01*
X120395000Y-132860000D01*
X120395000Y-128760000D01*
G37*
X120395000Y-128760000D02*
X129795000Y-128760000D01*
X129795000Y-132860000D01*
X120395000Y-132860000D01*
X120395000Y-128760000D01*
G36*
X156609000Y-122046000D02*
G01*
X156609000Y-131446000D01*
X152509000Y-131446000D01*
X152509000Y-122046000D01*
X156609000Y-122046000D01*
G37*
X156609000Y-122046000D02*
X156609000Y-131446000D01*
X152509000Y-131446000D01*
X152509000Y-122046000D01*
X156609000Y-122046000D01*
D10*
X159195000Y-135890000D02*
G75*
G03*
X159195000Y-135890000I-2350000J0D01*
G01*
X115380000Y-107315000D02*
G75*
G03*
X115380000Y-107315000I-2350000J0D01*
G01*
X159195000Y-107315000D02*
G75*
G03*
X159195000Y-107315000I-2350000J0D01*
G01*
X115380000Y-135890000D02*
G75*
G03*
X115380000Y-135890000I-2350000J0D01*
G01*
X135056000Y-126685000D02*
X138756000Y-126685000D01*
X135056000Y-128585000D02*
X135056000Y-126685000D01*
X138756000Y-128585000D02*
X135056000Y-128585000D01*
X138756000Y-126685000D02*
X138756000Y-128585000D01*
X138756000Y-131125000D02*
X135056000Y-131125000D01*
X138756000Y-129225000D02*
X138756000Y-131125000D01*
X135056000Y-129225000D02*
X138756000Y-129225000D01*
X135056000Y-131125000D02*
X135056000Y-129225000D01*
X152300000Y-132080000D02*
G75*
G03*
X152300000Y-132080000I-6250000J0D01*
G01*
X126975000Y-109510000D02*
X126975000Y-111470000D01*
X126975000Y-111470000D02*
X123215000Y-111470000D01*
X123215000Y-111470000D02*
X123215000Y-109510000D01*
X123215000Y-109510000D02*
X126975000Y-109510000D01*
X151550000Y-119700000D02*
X155250000Y-119700000D01*
X151550000Y-121600000D02*
X151550000Y-119700000D01*
X155250000Y-121600000D02*
X151550000Y-121600000D01*
X155250000Y-119700000D02*
X155250000Y-121600000D01*
X127544000Y-105159500D02*
X129504000Y-105159500D01*
X129504000Y-105159500D02*
X129504000Y-108919500D01*
X129504000Y-108919500D02*
X127544000Y-108919500D01*
X127544000Y-108919500D02*
X127544000Y-105159500D01*
X133960000Y-128615000D02*
X130200000Y-128615000D01*
X133960000Y-126655000D02*
X133960000Y-128615000D01*
X130200000Y-126655000D02*
X133960000Y-126655000D01*
X130200000Y-128615000D02*
X130200000Y-126655000D01*
X122130000Y-125660000D02*
X129330000Y-125660000D01*
X129330000Y-125660000D02*
X129330000Y-116860000D01*
X129330000Y-116860000D02*
X122130000Y-116860000D01*
X122130000Y-116860000D02*
X122130000Y-125660000D01*
X130290000Y-105240000D02*
X149890000Y-105240000D01*
X149890000Y-105240000D02*
X149890000Y-125490000D01*
X149890000Y-125490000D02*
X130290000Y-125490000D01*
X130290000Y-125490000D02*
X130290000Y-105240000D01*
X129601000Y-115515000D02*
X127701000Y-115515000D01*
X127701000Y-115515000D02*
X127701000Y-111815000D01*
X127701000Y-111815000D02*
X129601000Y-111815000D01*
X129601000Y-111815000D02*
X129601000Y-115515000D01*
M02*
