G04 #@! TF.GenerationSoftware,KiCad,Pcbnew,(5.1.9)-1*
G04 #@! TF.CreationDate,2021-04-10T16:29:16+02:00*
G04 #@! TF.ProjectId,eerste_versie,65657273-7465-45f7-9665-727369652e6b,rev?*
G04 #@! TF.SameCoordinates,Original*
G04 #@! TF.FileFunction,Legend,Bot*
G04 #@! TF.FilePolarity,Positive*
%FSLAX46Y46*%
G04 Gerber Fmt 4.6, Leading zero omitted, Abs format (unit mm)*
G04 Created by KiCad (PCBNEW (5.1.9)-1) date 2021-04-10 16:29:16*
%MOMM*%
%LPD*%
G01*
G04 APERTURE LIST*
%ADD10C,0.150000*%
%ADD11C,0.120000*%
%ADD12C,0.010000*%
G04 APERTURE END LIST*
D10*
X121348333Y-124547380D02*
X121015000Y-125547380D01*
X120681666Y-124547380D01*
X120348333Y-125547380D02*
X120348333Y-124547380D01*
X120110238Y-124547380D01*
X119967380Y-124595000D01*
X119872142Y-124690238D01*
X119824523Y-124785476D01*
X119776904Y-124975952D01*
X119776904Y-125118809D01*
X119824523Y-125309285D01*
X119872142Y-125404523D01*
X119967380Y-125499761D01*
X120110238Y-125547380D01*
X120348333Y-125547380D01*
X119348333Y-125547380D02*
X119348333Y-124547380D01*
X119110238Y-124547380D01*
X118967380Y-124595000D01*
X118872142Y-124690238D01*
X118824523Y-124785476D01*
X118776904Y-124975952D01*
X118776904Y-125118809D01*
X118824523Y-125309285D01*
X118872142Y-125404523D01*
X118967380Y-125499761D01*
X119110238Y-125547380D01*
X119348333Y-125547380D01*
X120776904Y-119515000D02*
X120872142Y-119467380D01*
X121015000Y-119467380D01*
X121157857Y-119515000D01*
X121253095Y-119610238D01*
X121300714Y-119705476D01*
X121348333Y-119895952D01*
X121348333Y-120038809D01*
X121300714Y-120229285D01*
X121253095Y-120324523D01*
X121157857Y-120419761D01*
X121015000Y-120467380D01*
X120919761Y-120467380D01*
X120776904Y-120419761D01*
X120729285Y-120372142D01*
X120729285Y-120038809D01*
X120919761Y-120038809D01*
X120300714Y-120467380D02*
X120300714Y-119467380D01*
X119729285Y-120467380D01*
X119729285Y-119467380D01*
X119253095Y-120467380D02*
X119253095Y-119467380D01*
X119015000Y-119467380D01*
X118872142Y-119515000D01*
X118776904Y-119610238D01*
X118729285Y-119705476D01*
X118681666Y-119895952D01*
X118681666Y-120038809D01*
X118729285Y-120229285D01*
X118776904Y-120324523D01*
X118872142Y-120419761D01*
X119015000Y-120467380D01*
X119253095Y-120467380D01*
D11*
X124460000Y-132080000D02*
X120650000Y-129540000D01*
X124460000Y-134620000D02*
X124460000Y-132080000D01*
X135890000Y-124460000D02*
X136525000Y-125095000D01*
X136525000Y-123825000D02*
X135890000Y-124460000D01*
X140970000Y-124460000D02*
X140335000Y-125095000D01*
X140970000Y-124460000D02*
X140335000Y-123825000D01*
X135890000Y-124460000D02*
X140970000Y-124460000D01*
X128270000Y-132715000D02*
X128270000Y-134620000D01*
X130810000Y-130810000D02*
X128270000Y-132715000D01*
D10*
X149986904Y-106815000D02*
X150082142Y-106767380D01*
X150225000Y-106767380D01*
X150367857Y-106815000D01*
X150463095Y-106910238D01*
X150510714Y-107005476D01*
X150558333Y-107195952D01*
X150558333Y-107338809D01*
X150510714Y-107529285D01*
X150463095Y-107624523D01*
X150367857Y-107719761D01*
X150225000Y-107767380D01*
X150129761Y-107767380D01*
X149986904Y-107719761D01*
X149939285Y-107672142D01*
X149939285Y-107338809D01*
X150129761Y-107338809D01*
X149510714Y-107767380D02*
X149510714Y-106767380D01*
X148939285Y-107767380D01*
X148939285Y-106767380D01*
X148463095Y-107767380D02*
X148463095Y-106767380D01*
X148225000Y-106767380D01*
X148082142Y-106815000D01*
X147986904Y-106910238D01*
X147939285Y-107005476D01*
X147891666Y-107195952D01*
X147891666Y-107338809D01*
X147939285Y-107529285D01*
X147986904Y-107624523D01*
X148082142Y-107719761D01*
X148225000Y-107767380D01*
X148463095Y-107767380D01*
X150621904Y-109307380D02*
X150050476Y-109307380D01*
X150336190Y-110307380D02*
X150336190Y-109307380D01*
X149812380Y-109307380D02*
X149145714Y-110307380D01*
X149145714Y-109307380D02*
X149812380Y-110307380D01*
X150026666Y-112847380D02*
X150360000Y-112371190D01*
X150598095Y-112847380D02*
X150598095Y-111847380D01*
X150217142Y-111847380D01*
X150121904Y-111895000D01*
X150074285Y-111942619D01*
X150026666Y-112037857D01*
X150026666Y-112180714D01*
X150074285Y-112275952D01*
X150121904Y-112323571D01*
X150217142Y-112371190D01*
X150598095Y-112371190D01*
X149693333Y-111847380D02*
X149026666Y-112847380D01*
X149026666Y-111847380D02*
X149693333Y-112847380D01*
X150558333Y-114387380D02*
X150225000Y-115387380D01*
X149891666Y-114387380D01*
X149558333Y-115387380D02*
X149558333Y-114387380D01*
X149320238Y-114387380D01*
X149177380Y-114435000D01*
X149082142Y-114530238D01*
X149034523Y-114625476D01*
X148986904Y-114815952D01*
X148986904Y-114958809D01*
X149034523Y-115149285D01*
X149082142Y-115244523D01*
X149177380Y-115339761D01*
X149320238Y-115387380D01*
X149558333Y-115387380D01*
X148558333Y-115387380D02*
X148558333Y-114387380D01*
X148320238Y-114387380D01*
X148177380Y-114435000D01*
X148082142Y-114530238D01*
X148034523Y-114625476D01*
X147986904Y-114815952D01*
X147986904Y-114958809D01*
X148034523Y-115149285D01*
X148082142Y-115244523D01*
X148177380Y-115339761D01*
X148320238Y-115387380D01*
X148558333Y-115387380D01*
X138469285Y-130262380D02*
X138469285Y-131071904D01*
X138421666Y-131167142D01*
X138374047Y-131214761D01*
X138278809Y-131262380D01*
X138088333Y-131262380D01*
X137993095Y-131214761D01*
X137945476Y-131167142D01*
X137897857Y-131071904D01*
X137897857Y-130262380D01*
X137469285Y-131214761D02*
X137326428Y-131262380D01*
X137088333Y-131262380D01*
X136993095Y-131214761D01*
X136945476Y-131167142D01*
X136897857Y-131071904D01*
X136897857Y-130976666D01*
X136945476Y-130881428D01*
X136993095Y-130833809D01*
X137088333Y-130786190D01*
X137278809Y-130738571D01*
X137374047Y-130690952D01*
X137421666Y-130643333D01*
X137469285Y-130548095D01*
X137469285Y-130452857D01*
X137421666Y-130357619D01*
X137374047Y-130310000D01*
X137278809Y-130262380D01*
X137040714Y-130262380D01*
X136897857Y-130310000D01*
X136135952Y-130738571D02*
X135993095Y-130786190D01*
X135945476Y-130833809D01*
X135897857Y-130929047D01*
X135897857Y-131071904D01*
X135945476Y-131167142D01*
X135993095Y-131214761D01*
X136088333Y-131262380D01*
X136469285Y-131262380D01*
X136469285Y-130262380D01*
X136135952Y-130262380D01*
X136040714Y-130310000D01*
X135993095Y-130357619D01*
X135945476Y-130452857D01*
X135945476Y-130548095D01*
X135993095Y-130643333D01*
X136040714Y-130690952D01*
X136135952Y-130738571D01*
X136469285Y-130738571D01*
X134707380Y-131262380D02*
X134707380Y-130262380D01*
X134326428Y-130262380D01*
X134231190Y-130310000D01*
X134183571Y-130357619D01*
X134135952Y-130452857D01*
X134135952Y-130595714D01*
X134183571Y-130690952D01*
X134231190Y-130738571D01*
X134326428Y-130786190D01*
X134707380Y-130786190D01*
X133802619Y-130262380D02*
X133564523Y-131262380D01*
X133374047Y-130548095D01*
X133183571Y-131262380D01*
X132945476Y-130262380D01*
X131993095Y-131262380D02*
X132326428Y-130786190D01*
X132564523Y-131262380D02*
X132564523Y-130262380D01*
X132183571Y-130262380D01*
X132088333Y-130310000D01*
X132040714Y-130357619D01*
X131993095Y-130452857D01*
X131993095Y-130595714D01*
X132040714Y-130690952D01*
X132088333Y-130738571D01*
X132183571Y-130786190D01*
X132564523Y-130786190D01*
X118895476Y-129468571D02*
X118752619Y-129516190D01*
X118705000Y-129563809D01*
X118657380Y-129659047D01*
X118657380Y-129801904D01*
X118705000Y-129897142D01*
X118752619Y-129944761D01*
X118847857Y-129992380D01*
X119228809Y-129992380D01*
X119228809Y-128992380D01*
X118895476Y-128992380D01*
X118800238Y-129040000D01*
X118752619Y-129087619D01*
X118705000Y-129182857D01*
X118705000Y-129278095D01*
X118752619Y-129373333D01*
X118800238Y-129420952D01*
X118895476Y-129468571D01*
X119228809Y-129468571D01*
X118276428Y-129706666D02*
X117800238Y-129706666D01*
X118371666Y-129992380D02*
X118038333Y-128992380D01*
X117705000Y-129992380D01*
X117514523Y-128992380D02*
X116943095Y-128992380D01*
X117228809Y-129992380D02*
X117228809Y-128992380D01*
X115847857Y-129992380D02*
X115847857Y-128992380D01*
X115466904Y-128992380D01*
X115371666Y-129040000D01*
X115324047Y-129087619D01*
X115276428Y-129182857D01*
X115276428Y-129325714D01*
X115324047Y-129420952D01*
X115371666Y-129468571D01*
X115466904Y-129516190D01*
X115847857Y-129516190D01*
X114943095Y-128992380D02*
X114705000Y-129992380D01*
X114514523Y-129278095D01*
X114324047Y-129992380D01*
X114085952Y-128992380D01*
X113133571Y-129992380D02*
X113466904Y-129516190D01*
X113705000Y-129992380D02*
X113705000Y-128992380D01*
X113324047Y-128992380D01*
X113228809Y-129040000D01*
X113181190Y-129087619D01*
X113133571Y-129182857D01*
X113133571Y-129325714D01*
X113181190Y-129420952D01*
X113228809Y-129468571D01*
X113324047Y-129516190D01*
X113705000Y-129516190D01*
X139525238Y-126182380D02*
X140096666Y-126182380D01*
X139810952Y-126182380D02*
X139810952Y-125182380D01*
X139906190Y-125325238D01*
X140001428Y-125420476D01*
X140096666Y-125468095D01*
X139096666Y-126087142D02*
X139049047Y-126134761D01*
X139096666Y-126182380D01*
X139144285Y-126134761D01*
X139096666Y-126087142D01*
X139096666Y-126182380D01*
X138144285Y-125182380D02*
X138620476Y-125182380D01*
X138668095Y-125658571D01*
X138620476Y-125610952D01*
X138525238Y-125563333D01*
X138287142Y-125563333D01*
X138191904Y-125610952D01*
X138144285Y-125658571D01*
X138096666Y-125753809D01*
X138096666Y-125991904D01*
X138144285Y-126087142D01*
X138191904Y-126134761D01*
X138287142Y-126182380D01*
X138525238Y-126182380D01*
X138620476Y-126134761D01*
X138668095Y-126087142D01*
X137668095Y-126182380D02*
X137668095Y-125515714D01*
X137668095Y-125610952D02*
X137620476Y-125563333D01*
X137525238Y-125515714D01*
X137382380Y-125515714D01*
X137287142Y-125563333D01*
X137239523Y-125658571D01*
X137239523Y-126182380D01*
X137239523Y-125658571D02*
X137191904Y-125563333D01*
X137096666Y-125515714D01*
X136953809Y-125515714D01*
X136858571Y-125563333D01*
X136810952Y-125658571D01*
X136810952Y-126182380D01*
X156233095Y-122817380D02*
X156233095Y-121817380D01*
X155995000Y-121817380D01*
X155852142Y-121865000D01*
X155756904Y-121960238D01*
X155709285Y-122055476D01*
X155661666Y-122245952D01*
X155661666Y-122388809D01*
X155709285Y-122579285D01*
X155756904Y-122674523D01*
X155852142Y-122769761D01*
X155995000Y-122817380D01*
X156233095Y-122817380D01*
X154804523Y-122817380D02*
X154804523Y-122293571D01*
X154852142Y-122198333D01*
X154947380Y-122150714D01*
X155137857Y-122150714D01*
X155233095Y-122198333D01*
X154804523Y-122769761D02*
X154899761Y-122817380D01*
X155137857Y-122817380D01*
X155233095Y-122769761D01*
X155280714Y-122674523D01*
X155280714Y-122579285D01*
X155233095Y-122484047D01*
X155137857Y-122436428D01*
X154899761Y-122436428D01*
X154804523Y-122388809D01*
X154423571Y-122150714D02*
X154185476Y-122817380D01*
X153947380Y-122150714D01*
X153566428Y-122817380D02*
X153566428Y-122150714D01*
X153566428Y-121817380D02*
X153614047Y-121865000D01*
X153566428Y-121912619D01*
X153518809Y-121865000D01*
X153566428Y-121817380D01*
X153566428Y-121912619D01*
X152661666Y-122817380D02*
X152661666Y-121817380D01*
X152661666Y-122769761D02*
X152756904Y-122817380D01*
X152947380Y-122817380D01*
X153042619Y-122769761D01*
X153090238Y-122722142D01*
X153137857Y-122626904D01*
X153137857Y-122341190D01*
X153090238Y-122245952D01*
X153042619Y-122198333D01*
X152947380Y-122150714D01*
X152756904Y-122150714D01*
X152661666Y-122198333D01*
X151423571Y-122817380D02*
X151423571Y-121817380D01*
X151423571Y-122293571D02*
X150852142Y-122293571D01*
X150852142Y-122817380D02*
X150852142Y-121817380D01*
X149995000Y-122769761D02*
X150090238Y-122817380D01*
X150280714Y-122817380D01*
X150375952Y-122769761D01*
X150423571Y-122674523D01*
X150423571Y-122293571D01*
X150375952Y-122198333D01*
X150280714Y-122150714D01*
X150090238Y-122150714D01*
X149995000Y-122198333D01*
X149947380Y-122293571D01*
X149947380Y-122388809D01*
X150423571Y-122484047D01*
X149518809Y-122817380D02*
X149518809Y-122150714D01*
X149518809Y-122245952D02*
X149471190Y-122198333D01*
X149375952Y-122150714D01*
X149233095Y-122150714D01*
X149137857Y-122198333D01*
X149090238Y-122293571D01*
X149090238Y-122817380D01*
X149090238Y-122293571D02*
X149042619Y-122198333D01*
X148947380Y-122150714D01*
X148804523Y-122150714D01*
X148709285Y-122198333D01*
X148661666Y-122293571D01*
X148661666Y-122817380D01*
X147804523Y-122769761D02*
X147899761Y-122817380D01*
X148090238Y-122817380D01*
X148185476Y-122769761D01*
X148233095Y-122674523D01*
X148233095Y-122293571D01*
X148185476Y-122198333D01*
X148090238Y-122150714D01*
X147899761Y-122150714D01*
X147804523Y-122198333D01*
X147756904Y-122293571D01*
X147756904Y-122388809D01*
X148233095Y-122484047D01*
X147328333Y-122817380D02*
X147328333Y-122150714D01*
X147328333Y-122341190D02*
X147280714Y-122245952D01*
X147233095Y-122198333D01*
X147137857Y-122150714D01*
X147042619Y-122150714D01*
X146804523Y-122150714D02*
X146566428Y-122817380D01*
X146328333Y-122150714D02*
X146566428Y-122817380D01*
X146661666Y-123055476D01*
X146709285Y-123103095D01*
X146804523Y-123150714D01*
X145518809Y-122769761D02*
X145614047Y-122817380D01*
X145804523Y-122817380D01*
X145899761Y-122769761D01*
X145947380Y-122722142D01*
X145995000Y-122626904D01*
X145995000Y-122341190D01*
X145947380Y-122245952D01*
X145899761Y-122198333D01*
X145804523Y-122150714D01*
X145614047Y-122150714D01*
X145518809Y-122198333D01*
X145090238Y-122817380D02*
X145090238Y-121817380D01*
X144995000Y-122436428D02*
X144709285Y-122817380D01*
X144709285Y-122150714D02*
X145090238Y-122531666D01*
X157590238Y-124467380D02*
X157590238Y-123467380D01*
X157018809Y-124467380D01*
X157018809Y-123467380D01*
X156114047Y-124467380D02*
X156114047Y-123943571D01*
X156161666Y-123848333D01*
X156256904Y-123800714D01*
X156447380Y-123800714D01*
X156542619Y-123848333D01*
X156114047Y-124419761D02*
X156209285Y-124467380D01*
X156447380Y-124467380D01*
X156542619Y-124419761D01*
X156590238Y-124324523D01*
X156590238Y-124229285D01*
X156542619Y-124134047D01*
X156447380Y-124086428D01*
X156209285Y-124086428D01*
X156114047Y-124038809D01*
X155780714Y-123800714D02*
X155399761Y-123800714D01*
X155637857Y-123467380D02*
X155637857Y-124324523D01*
X155590238Y-124419761D01*
X155495000Y-124467380D01*
X155399761Y-124467380D01*
X155066428Y-124467380D02*
X155066428Y-123467380D01*
X154637857Y-124467380D02*
X154637857Y-123943571D01*
X154685476Y-123848333D01*
X154780714Y-123800714D01*
X154923571Y-123800714D01*
X155018809Y-123848333D01*
X155066428Y-123895952D01*
X153733095Y-124467380D02*
X153733095Y-123943571D01*
X153780714Y-123848333D01*
X153875952Y-123800714D01*
X154066428Y-123800714D01*
X154161666Y-123848333D01*
X153733095Y-124419761D02*
X153828333Y-124467380D01*
X154066428Y-124467380D01*
X154161666Y-124419761D01*
X154209285Y-124324523D01*
X154209285Y-124229285D01*
X154161666Y-124134047D01*
X154066428Y-124086428D01*
X153828333Y-124086428D01*
X153733095Y-124038809D01*
X153256904Y-123800714D02*
X153256904Y-124467380D01*
X153256904Y-123895952D02*
X153209285Y-123848333D01*
X153114047Y-123800714D01*
X152971190Y-123800714D01*
X152875952Y-123848333D01*
X152828333Y-123943571D01*
X152828333Y-124467380D01*
X151637857Y-124419761D02*
X151495000Y-124467380D01*
X151256904Y-124467380D01*
X151161666Y-124419761D01*
X151114047Y-124372142D01*
X151066428Y-124276904D01*
X151066428Y-124181666D01*
X151114047Y-124086428D01*
X151161666Y-124038809D01*
X151256904Y-123991190D01*
X151447380Y-123943571D01*
X151542619Y-123895952D01*
X151590238Y-123848333D01*
X151637857Y-123753095D01*
X151637857Y-123657857D01*
X151590238Y-123562619D01*
X151542619Y-123515000D01*
X151447380Y-123467380D01*
X151209285Y-123467380D01*
X151066428Y-123515000D01*
X150495000Y-124467380D02*
X150590238Y-124419761D01*
X150637857Y-124324523D01*
X150637857Y-123467380D01*
X149733095Y-124419761D02*
X149828333Y-124467380D01*
X150018809Y-124467380D01*
X150114047Y-124419761D01*
X150161666Y-124324523D01*
X150161666Y-123943571D01*
X150114047Y-123848333D01*
X150018809Y-123800714D01*
X149828333Y-123800714D01*
X149733095Y-123848333D01*
X149685476Y-123943571D01*
X149685476Y-124038809D01*
X150161666Y-124134047D01*
X149256904Y-124467380D02*
X149256904Y-123800714D01*
X149256904Y-123895952D02*
X149209285Y-123848333D01*
X149114047Y-123800714D01*
X148971190Y-123800714D01*
X148875952Y-123848333D01*
X148828333Y-123943571D01*
X148828333Y-124467380D01*
X148828333Y-123943571D02*
X148780714Y-123848333D01*
X148685476Y-123800714D01*
X148542619Y-123800714D01*
X148447380Y-123848333D01*
X148399761Y-123943571D01*
X148399761Y-124467380D01*
X147923571Y-124467380D02*
X147923571Y-123467380D01*
X147923571Y-123848333D02*
X147828333Y-123800714D01*
X147637857Y-123800714D01*
X147542619Y-123848333D01*
X147495000Y-123895952D01*
X147447380Y-123991190D01*
X147447380Y-124276904D01*
X147495000Y-124372142D01*
X147542619Y-124419761D01*
X147637857Y-124467380D01*
X147828333Y-124467380D01*
X147923571Y-124419761D01*
X147018809Y-124467380D02*
X147018809Y-123800714D01*
X147018809Y-123991190D02*
X146971190Y-123895952D01*
X146923571Y-123848333D01*
X146828333Y-123800714D01*
X146733095Y-123800714D01*
X146256904Y-124467380D02*
X146352142Y-124419761D01*
X146399761Y-124372142D01*
X146447380Y-124276904D01*
X146447380Y-123991190D01*
X146399761Y-123895952D01*
X146352142Y-123848333D01*
X146256904Y-123800714D01*
X146114047Y-123800714D01*
X146018809Y-123848333D01*
X145971190Y-123895952D01*
X145923571Y-123991190D01*
X145923571Y-124276904D01*
X145971190Y-124372142D01*
X146018809Y-124419761D01*
X146114047Y-124467380D01*
X146256904Y-124467380D01*
X145066428Y-123800714D02*
X145066428Y-124467380D01*
X145495000Y-123800714D02*
X145495000Y-124324523D01*
X145447380Y-124419761D01*
X145352142Y-124467380D01*
X145209285Y-124467380D01*
X145114047Y-124419761D01*
X145066428Y-124372142D01*
X144161666Y-124419761D02*
X144256904Y-124467380D01*
X144447380Y-124467380D01*
X144542619Y-124419761D01*
X144590238Y-124372142D01*
X144637857Y-124276904D01*
X144637857Y-123991190D01*
X144590238Y-123895952D01*
X144542619Y-123848333D01*
X144447380Y-123800714D01*
X144256904Y-123800714D01*
X144161666Y-123848333D01*
X143733095Y-124467380D02*
X143733095Y-123467380D01*
X143637857Y-124086428D02*
X143352142Y-124467380D01*
X143352142Y-123800714D02*
X143733095Y-124181666D01*
D12*
G36*
X138016583Y-120044155D02*
G01*
X137933752Y-120132525D01*
X137942804Y-120251992D01*
X138026356Y-120373533D01*
X138092462Y-120454748D01*
X138087256Y-120496794D01*
X138051756Y-120514913D01*
X137984233Y-120509468D01*
X137972800Y-120470605D01*
X137932101Y-120404647D01*
X137896600Y-120396000D01*
X137829251Y-120436663D01*
X137820400Y-120472200D01*
X137851114Y-120539749D01*
X137877421Y-120548400D01*
X137901660Y-120576118D01*
X137867494Y-120629066D01*
X137812354Y-120679408D01*
X137776672Y-120642415D01*
X137761311Y-120603666D01*
X137699481Y-120512702D01*
X137629374Y-120512140D01*
X137582358Y-120580088D01*
X137593084Y-120672540D01*
X137634752Y-120709612D01*
X137686979Y-120750498D01*
X137686386Y-120808989D01*
X137638640Y-120911658D01*
X137558481Y-121066669D01*
X137494982Y-121007015D01*
X137300050Y-121007015D01*
X137282787Y-121063218D01*
X137243830Y-121101682D01*
X137221608Y-121063422D01*
X137221228Y-120984117D01*
X137230909Y-120968558D01*
X137279765Y-120956721D01*
X137300050Y-121007015D01*
X137494982Y-121007015D01*
X137444866Y-120959934D01*
X137311426Y-120869968D01*
X137204143Y-120867642D01*
X137135322Y-120952935D01*
X137132803Y-120960464D01*
X137131144Y-121087596D01*
X137204127Y-121165365D01*
X137329802Y-121175921D01*
X137379802Y-121161345D01*
X137470507Y-121133843D01*
X137507905Y-121161113D01*
X137515561Y-121264999D01*
X137515600Y-121287225D01*
X137508789Y-121404214D01*
X137473955Y-121444577D01*
X137389497Y-121433085D01*
X137388600Y-121432860D01*
X137294643Y-121423268D01*
X137263282Y-121474620D01*
X137261600Y-121511728D01*
X137280824Y-121591618D01*
X137357817Y-121609603D01*
X137395307Y-121606135D01*
X137509174Y-121618291D01*
X137571471Y-121704100D01*
X137589580Y-121785471D01*
X137543209Y-121815087D01*
X137469384Y-121818400D01*
X137332365Y-121850042D01*
X137249345Y-121927180D01*
X137230383Y-122023130D01*
X137285540Y-122111210D01*
X137346313Y-122144837D01*
X137449616Y-122151348D01*
X137529810Y-122072467D01*
X137565013Y-121996200D01*
X137432371Y-121996200D01*
X137424566Y-122061736D01*
X137387006Y-122072400D01*
X137321048Y-122031700D01*
X137312400Y-121996200D01*
X137336944Y-121928555D01*
X137357765Y-121920000D01*
X137413299Y-121960427D01*
X137432371Y-121996200D01*
X137565013Y-121996200D01*
X137572881Y-121979155D01*
X137623894Y-121844979D01*
X137721018Y-121971389D01*
X137801594Y-122091880D01*
X137809094Y-122155374D01*
X137744906Y-122173999D01*
X137744200Y-122174000D01*
X137682144Y-122216351D01*
X137668000Y-122275600D01*
X137703922Y-122360502D01*
X137769600Y-122377200D01*
X137854503Y-122341278D01*
X137864742Y-122301000D01*
X137769600Y-122301000D01*
X137744200Y-122326400D01*
X137718800Y-122301000D01*
X137744200Y-122275600D01*
X137769600Y-122301000D01*
X137864742Y-122301000D01*
X137871200Y-122275600D01*
X137877215Y-122198655D01*
X137913258Y-122180561D01*
X138006326Y-122214754D01*
X138046610Y-122232954D01*
X138152393Y-122296140D01*
X138163955Y-122358140D01*
X138097349Y-122430034D01*
X138037121Y-122529125D01*
X138046515Y-122636723D01*
X138117414Y-122711675D01*
X138155046Y-122722551D01*
X138269921Y-122702098D01*
X138323671Y-122662298D01*
X138343432Y-122610125D01*
X138252434Y-122610125D01*
X138248399Y-122637351D01*
X138192618Y-122660035D01*
X138136916Y-122620206D01*
X138125200Y-122578996D01*
X138162535Y-122553569D01*
X138201109Y-122561917D01*
X138252434Y-122610125D01*
X138343432Y-122610125D01*
X138359726Y-122567106D01*
X138331926Y-122485386D01*
X138286636Y-122385473D01*
X138304845Y-122339544D01*
X138402802Y-122326840D01*
X138456368Y-122326400D01*
X138573968Y-122333428D01*
X138614991Y-122367850D01*
X138604989Y-122446514D01*
X138611199Y-122552363D01*
X138671773Y-122605287D01*
X138755031Y-122585263D01*
X138782513Y-122558720D01*
X138805743Y-122484905D01*
X138758422Y-122426524D01*
X138708340Y-122365627D01*
X138744932Y-122319066D01*
X138745096Y-122318962D01*
X138858379Y-122275847D01*
X138920031Y-122317368D01*
X138927223Y-122408437D01*
X138950633Y-122538380D01*
X139035429Y-122616051D01*
X139154567Y-122617367D01*
X139159696Y-122615479D01*
X139232555Y-122545847D01*
X139233068Y-122505794D01*
X139141200Y-122505794D01*
X139109306Y-122572848D01*
X139044752Y-122565459D01*
X139017490Y-122534923D01*
X139031015Y-122481122D01*
X139065292Y-122460317D01*
X139130620Y-122468381D01*
X139141200Y-122505794D01*
X139233068Y-122505794D01*
X139233840Y-122445553D01*
X139168818Y-122350400D01*
X139115800Y-122317156D01*
X139012018Y-122257622D01*
X139003590Y-122204248D01*
X139087809Y-122136616D01*
X139091553Y-122134269D01*
X139174303Y-122096539D01*
X139216281Y-122129353D01*
X139223988Y-122147449D01*
X139284615Y-122208993D01*
X139370156Y-122221413D01*
X139435267Y-122184807D01*
X139446000Y-122146963D01*
X139403940Y-122068679D01*
X139343325Y-122031143D01*
X139314685Y-122015542D01*
X138938000Y-122015542D01*
X138897824Y-122079225D01*
X138808558Y-122142710D01*
X138718376Y-122172455D01*
X138691052Y-122133205D01*
X138691259Y-122129124D01*
X138277600Y-122129124D01*
X138239506Y-122169422D01*
X138153128Y-122168014D01*
X138060331Y-122130063D01*
X138023600Y-122097800D01*
X137989867Y-122039851D01*
X138029581Y-122025309D01*
X138153087Y-122050901D01*
X138163300Y-122053618D01*
X138252160Y-122094162D01*
X138277600Y-122129124D01*
X138691259Y-122129124D01*
X138693495Y-122085100D01*
X138737316Y-122024598D01*
X138531600Y-122024598D01*
X138512045Y-122094840D01*
X138480800Y-122097800D01*
X138434058Y-122024298D01*
X138430000Y-121993201D01*
X138458404Y-121927545D01*
X138480800Y-121920000D01*
X138521676Y-121962675D01*
X138531600Y-122024598D01*
X138737316Y-122024598D01*
X138738903Y-122022408D01*
X138821604Y-121982077D01*
X138901374Y-121975549D01*
X138937985Y-122014269D01*
X138938000Y-122015542D01*
X139314685Y-122015542D01*
X139273690Y-121993212D01*
X139284194Y-121936793D01*
X139314365Y-121893080D01*
X139363407Y-121835502D01*
X137816351Y-121835502D01*
X137775036Y-121869200D01*
X137720072Y-121828600D01*
X137698836Y-121788845D01*
X137671614Y-121664940D01*
X137669616Y-121623745D01*
X137679162Y-121572114D01*
X137717002Y-121600852D01*
X137745816Y-121637609D01*
X137806329Y-121748054D01*
X137816351Y-121835502D01*
X139363407Y-121835502D01*
X139369975Y-121827792D01*
X139417142Y-121831204D01*
X139494317Y-121906337D01*
X139495220Y-121907300D01*
X139581265Y-121987612D01*
X139638301Y-122020824D01*
X139638479Y-122020822D01*
X139742557Y-121975089D01*
X139793827Y-121867035D01*
X139793334Y-121812655D01*
X139792455Y-121809933D01*
X139750800Y-121809933D01*
X139710348Y-121890901D01*
X139642328Y-121920000D01*
X139621667Y-121882426D01*
X139630830Y-121843800D01*
X139679734Y-121780422D01*
X139732768Y-121771315D01*
X139750800Y-121809933D01*
X139792455Y-121809933D01*
X139767198Y-121731765D01*
X139699047Y-121701502D01*
X139593191Y-121701712D01*
X139473311Y-121702064D01*
X139428509Y-121672041D01*
X139432950Y-121593093D01*
X139434024Y-121587412D01*
X139448893Y-121549639D01*
X139288879Y-121549639D01*
X139281328Y-121630291D01*
X139232640Y-121706640D01*
X139154136Y-121760063D01*
X139098269Y-121759848D01*
X139090400Y-121738860D01*
X139091779Y-121734654D01*
X138835375Y-121734654D01*
X138802534Y-121784533D01*
X138720194Y-121818614D01*
X138618168Y-121812299D01*
X138543722Y-121772972D01*
X138531600Y-121742200D01*
X138577037Y-121681704D01*
X138649978Y-121670995D01*
X138217938Y-121670995D01*
X138217010Y-121762444D01*
X138174578Y-121810281D01*
X138147774Y-121810157D01*
X138052371Y-121756385D01*
X137993608Y-121691100D01*
X137953974Y-121580251D01*
X137978024Y-121497662D01*
X138049666Y-121470435D01*
X138111054Y-121493323D01*
X138181305Y-121569949D01*
X138217938Y-121670995D01*
X138649978Y-121670995D01*
X138684000Y-121666000D01*
X138804340Y-121684129D01*
X138835375Y-121734654D01*
X139091779Y-121734654D01*
X139117326Y-121656765D01*
X139176663Y-121566520D01*
X139236255Y-121515105D01*
X139244588Y-121513600D01*
X139288879Y-121549639D01*
X139448893Y-121549639D01*
X139474698Y-121484087D01*
X139531983Y-121469511D01*
X139571629Y-121511381D01*
X139634757Y-121539806D01*
X139710856Y-121508956D01*
X139750644Y-121439850D01*
X139750722Y-121437400D01*
X139700000Y-121437400D01*
X139674600Y-121462800D01*
X139649200Y-121437400D01*
X139674600Y-121412000D01*
X139700000Y-121437400D01*
X139750722Y-121437400D01*
X139750800Y-121434963D01*
X139714824Y-121348295D01*
X139621190Y-121333274D01*
X139548650Y-121360638D01*
X139478018Y-121387661D01*
X139450335Y-121349857D01*
X139448512Y-121310155D01*
X139023367Y-121310155D01*
X139017213Y-121356325D01*
X138937538Y-121407778D01*
X138843302Y-121392023D01*
X138809625Y-121358974D01*
X138809961Y-121332218D01*
X138563417Y-121332218D01*
X138513554Y-121405319D01*
X138445854Y-121450446D01*
X138418566Y-121450521D01*
X138372194Y-121394123D01*
X138371468Y-121385329D01*
X138408109Y-121319104D01*
X138485742Y-121270333D01*
X138555482Y-121267898D01*
X138561803Y-121272869D01*
X138563417Y-121332218D01*
X138809961Y-121332218D01*
X138810604Y-121281034D01*
X138840363Y-121229425D01*
X138900895Y-121179183D01*
X138962687Y-121212121D01*
X138977748Y-121226775D01*
X139023367Y-121310155D01*
X139448512Y-121310155D01*
X139446000Y-121255465D01*
X139451054Y-121196100D01*
X139343623Y-121196100D01*
X139320666Y-121255748D01*
X139269411Y-121242141D01*
X139219942Y-121165179D01*
X139216185Y-121154171D01*
X139205807Y-121079376D01*
X138165110Y-121079376D01*
X138159025Y-121131884D01*
X138105585Y-121204085D01*
X138038667Y-121254650D01*
X138017380Y-121259600D01*
X137977007Y-121218755D01*
X137972800Y-121188835D01*
X138001076Y-121136833D01*
X137717256Y-121136833D01*
X137702924Y-121234137D01*
X137668986Y-121290464D01*
X137633801Y-121279699D01*
X137627363Y-121264688D01*
X137636151Y-121181996D01*
X137662860Y-121121813D01*
X137703757Y-121062044D01*
X137716162Y-121096763D01*
X137717256Y-121136833D01*
X138001076Y-121136833D01*
X138010013Y-121120399D01*
X138088812Y-121073116D01*
X138159936Y-121075024D01*
X138165110Y-121079376D01*
X139205807Y-121079376D01*
X139202614Y-121056368D01*
X139215524Y-121015942D01*
X139262273Y-121022398D01*
X139313297Y-121089361D01*
X139342648Y-121180338D01*
X139343623Y-121196100D01*
X139451054Y-121196100D01*
X139455296Y-121146286D01*
X139499593Y-121111829D01*
X139572941Y-121119621D01*
X139708719Y-121114945D01*
X139808347Y-121058605D01*
X139838694Y-120983198D01*
X139750800Y-120983198D01*
X139722397Y-121048854D01*
X139700000Y-121056400D01*
X139659125Y-121013724D01*
X139649200Y-120951801D01*
X139668756Y-120881559D01*
X139700000Y-120878600D01*
X139746743Y-120952101D01*
X139750800Y-120983198D01*
X139838694Y-120983198D01*
X139843987Y-120970047D01*
X139836407Y-120935593D01*
X139758459Y-120836709D01*
X139646277Y-120826862D01*
X139524975Y-120901393D01*
X139424501Y-120971827D01*
X139371285Y-120957201D01*
X139375106Y-120929400D01*
X138734800Y-120929400D01*
X138715641Y-121034900D01*
X138658240Y-121046285D01*
X138592560Y-120995440D01*
X138535355Y-120898752D01*
X138557953Y-120825456D01*
X138633200Y-120802400D01*
X138712871Y-120832165D01*
X138734800Y-120929400D01*
X139375106Y-120929400D01*
X139380694Y-120888750D01*
X139447341Y-120811529D01*
X139470664Y-120788857D01*
X139037426Y-120788857D01*
X138972602Y-120790322D01*
X138971713Y-120789843D01*
X138043071Y-120789843D01*
X138035488Y-120894273D01*
X138034583Y-120897048D01*
X138006736Y-120940864D01*
X137967429Y-120897048D01*
X137927642Y-120785223D01*
X137922778Y-120738900D01*
X137943298Y-120663495D01*
X137966876Y-120650000D01*
X138015914Y-120692780D01*
X138043071Y-120789843D01*
X138971713Y-120789843D01*
X138846000Y-120722119D01*
X138843423Y-120720320D01*
X138766237Y-120644184D01*
X138780119Y-120584361D01*
X138850318Y-120566443D01*
X138936800Y-120623513D01*
X139029236Y-120729372D01*
X139037426Y-120788857D01*
X139470664Y-120788857D01*
X139519971Y-120740927D01*
X139514950Y-120690496D01*
X139481193Y-120658127D01*
X139413133Y-120625409D01*
X139350979Y-120672183D01*
X139328881Y-120702109D01*
X139263704Y-120770888D01*
X139217595Y-120751572D01*
X139213710Y-120745628D01*
X139206463Y-120679874D01*
X139226602Y-120663866D01*
X139351550Y-120594497D01*
X139420206Y-120503754D01*
X139426844Y-120421400D01*
X139344400Y-120421400D01*
X139319000Y-120446800D01*
X139293600Y-120421400D01*
X139319000Y-120396000D01*
X139344400Y-120421400D01*
X139426844Y-120421400D01*
X139427251Y-120416360D01*
X139369084Y-120358745D01*
X139177012Y-120358745D01*
X139172036Y-120425554D01*
X139144624Y-120522336D01*
X139141200Y-120552554D01*
X139108658Y-120596036D01*
X139017427Y-120564658D01*
X138988800Y-120546656D01*
X138986380Y-120544166D01*
X138480800Y-120544166D01*
X138435544Y-120605094D01*
X138321479Y-120642266D01*
X138284080Y-120645989D01*
X138240696Y-120634820D01*
X138274488Y-120577570D01*
X138277600Y-120573800D01*
X138358237Y-120513757D01*
X138439081Y-120499632D01*
X138480377Y-120537220D01*
X138480800Y-120544166D01*
X138986380Y-120544166D01*
X138943163Y-120499705D01*
X138976989Y-120447886D01*
X139011210Y-120420434D01*
X139120000Y-120355248D01*
X139177012Y-120358745D01*
X139369084Y-120358745D01*
X139367361Y-120357039D01*
X139295195Y-120345200D01*
X139214863Y-120316638D01*
X139192000Y-120216605D01*
X139184473Y-120192800D01*
X139115800Y-120192800D01*
X139104854Y-120236752D01*
X139070997Y-120243600D01*
X138983227Y-120213793D01*
X138963400Y-120192800D01*
X138974347Y-120148847D01*
X139008204Y-120142000D01*
X139095974Y-120171806D01*
X139115800Y-120192800D01*
X139184473Y-120192800D01*
X139154138Y-120096874D01*
X139060494Y-120045551D01*
X138943796Y-120077539D01*
X138881591Y-120175724D01*
X138874694Y-120288824D01*
X138870646Y-120402271D01*
X138824010Y-120444234D01*
X138794261Y-120446800D01*
X138684610Y-120423867D01*
X138661134Y-120361970D01*
X138688815Y-120313999D01*
X138717445Y-120222053D01*
X138664351Y-120154634D01*
X138604802Y-120142000D01*
X138546741Y-120186253D01*
X138531600Y-120269000D01*
X138506995Y-120369425D01*
X138434155Y-120396000D01*
X138307187Y-120411913D01*
X138257219Y-120426503D01*
X138208343Y-120434382D01*
X138205290Y-120387807D01*
X138235341Y-120291735D01*
X138267033Y-120171515D01*
X138258859Y-120142000D01*
X138176000Y-120142000D01*
X138134855Y-120187068D01*
X138099800Y-120192800D01*
X138032197Y-120165369D01*
X138023600Y-120142000D01*
X138064746Y-120096931D01*
X138099800Y-120091200D01*
X138167404Y-120118630D01*
X138176000Y-120142000D01*
X138258859Y-120142000D01*
X138247441Y-120100780D01*
X138202060Y-120060000D01*
X138087918Y-120021031D01*
X138016583Y-120044155D01*
G37*
X138016583Y-120044155D02*
X137933752Y-120132525D01*
X137942804Y-120251992D01*
X138026356Y-120373533D01*
X138092462Y-120454748D01*
X138087256Y-120496794D01*
X138051756Y-120514913D01*
X137984233Y-120509468D01*
X137972800Y-120470605D01*
X137932101Y-120404647D01*
X137896600Y-120396000D01*
X137829251Y-120436663D01*
X137820400Y-120472200D01*
X137851114Y-120539749D01*
X137877421Y-120548400D01*
X137901660Y-120576118D01*
X137867494Y-120629066D01*
X137812354Y-120679408D01*
X137776672Y-120642415D01*
X137761311Y-120603666D01*
X137699481Y-120512702D01*
X137629374Y-120512140D01*
X137582358Y-120580088D01*
X137593084Y-120672540D01*
X137634752Y-120709612D01*
X137686979Y-120750498D01*
X137686386Y-120808989D01*
X137638640Y-120911658D01*
X137558481Y-121066669D01*
X137494982Y-121007015D01*
X137300050Y-121007015D01*
X137282787Y-121063218D01*
X137243830Y-121101682D01*
X137221608Y-121063422D01*
X137221228Y-120984117D01*
X137230909Y-120968558D01*
X137279765Y-120956721D01*
X137300050Y-121007015D01*
X137494982Y-121007015D01*
X137444866Y-120959934D01*
X137311426Y-120869968D01*
X137204143Y-120867642D01*
X137135322Y-120952935D01*
X137132803Y-120960464D01*
X137131144Y-121087596D01*
X137204127Y-121165365D01*
X137329802Y-121175921D01*
X137379802Y-121161345D01*
X137470507Y-121133843D01*
X137507905Y-121161113D01*
X137515561Y-121264999D01*
X137515600Y-121287225D01*
X137508789Y-121404214D01*
X137473955Y-121444577D01*
X137389497Y-121433085D01*
X137388600Y-121432860D01*
X137294643Y-121423268D01*
X137263282Y-121474620D01*
X137261600Y-121511728D01*
X137280824Y-121591618D01*
X137357817Y-121609603D01*
X137395307Y-121606135D01*
X137509174Y-121618291D01*
X137571471Y-121704100D01*
X137589580Y-121785471D01*
X137543209Y-121815087D01*
X137469384Y-121818400D01*
X137332365Y-121850042D01*
X137249345Y-121927180D01*
X137230383Y-122023130D01*
X137285540Y-122111210D01*
X137346313Y-122144837D01*
X137449616Y-122151348D01*
X137529810Y-122072467D01*
X137565013Y-121996200D01*
X137432371Y-121996200D01*
X137424566Y-122061736D01*
X137387006Y-122072400D01*
X137321048Y-122031700D01*
X137312400Y-121996200D01*
X137336944Y-121928555D01*
X137357765Y-121920000D01*
X137413299Y-121960427D01*
X137432371Y-121996200D01*
X137565013Y-121996200D01*
X137572881Y-121979155D01*
X137623894Y-121844979D01*
X137721018Y-121971389D01*
X137801594Y-122091880D01*
X137809094Y-122155374D01*
X137744906Y-122173999D01*
X137744200Y-122174000D01*
X137682144Y-122216351D01*
X137668000Y-122275600D01*
X137703922Y-122360502D01*
X137769600Y-122377200D01*
X137854503Y-122341278D01*
X137864742Y-122301000D01*
X137769600Y-122301000D01*
X137744200Y-122326400D01*
X137718800Y-122301000D01*
X137744200Y-122275600D01*
X137769600Y-122301000D01*
X137864742Y-122301000D01*
X137871200Y-122275600D01*
X137877215Y-122198655D01*
X137913258Y-122180561D01*
X138006326Y-122214754D01*
X138046610Y-122232954D01*
X138152393Y-122296140D01*
X138163955Y-122358140D01*
X138097349Y-122430034D01*
X138037121Y-122529125D01*
X138046515Y-122636723D01*
X138117414Y-122711675D01*
X138155046Y-122722551D01*
X138269921Y-122702098D01*
X138323671Y-122662298D01*
X138343432Y-122610125D01*
X138252434Y-122610125D01*
X138248399Y-122637351D01*
X138192618Y-122660035D01*
X138136916Y-122620206D01*
X138125200Y-122578996D01*
X138162535Y-122553569D01*
X138201109Y-122561917D01*
X138252434Y-122610125D01*
X138343432Y-122610125D01*
X138359726Y-122567106D01*
X138331926Y-122485386D01*
X138286636Y-122385473D01*
X138304845Y-122339544D01*
X138402802Y-122326840D01*
X138456368Y-122326400D01*
X138573968Y-122333428D01*
X138614991Y-122367850D01*
X138604989Y-122446514D01*
X138611199Y-122552363D01*
X138671773Y-122605287D01*
X138755031Y-122585263D01*
X138782513Y-122558720D01*
X138805743Y-122484905D01*
X138758422Y-122426524D01*
X138708340Y-122365627D01*
X138744932Y-122319066D01*
X138745096Y-122318962D01*
X138858379Y-122275847D01*
X138920031Y-122317368D01*
X138927223Y-122408437D01*
X138950633Y-122538380D01*
X139035429Y-122616051D01*
X139154567Y-122617367D01*
X139159696Y-122615479D01*
X139232555Y-122545847D01*
X139233068Y-122505794D01*
X139141200Y-122505794D01*
X139109306Y-122572848D01*
X139044752Y-122565459D01*
X139017490Y-122534923D01*
X139031015Y-122481122D01*
X139065292Y-122460317D01*
X139130620Y-122468381D01*
X139141200Y-122505794D01*
X139233068Y-122505794D01*
X139233840Y-122445553D01*
X139168818Y-122350400D01*
X139115800Y-122317156D01*
X139012018Y-122257622D01*
X139003590Y-122204248D01*
X139087809Y-122136616D01*
X139091553Y-122134269D01*
X139174303Y-122096539D01*
X139216281Y-122129353D01*
X139223988Y-122147449D01*
X139284615Y-122208993D01*
X139370156Y-122221413D01*
X139435267Y-122184807D01*
X139446000Y-122146963D01*
X139403940Y-122068679D01*
X139343325Y-122031143D01*
X139314685Y-122015542D01*
X138938000Y-122015542D01*
X138897824Y-122079225D01*
X138808558Y-122142710D01*
X138718376Y-122172455D01*
X138691052Y-122133205D01*
X138691259Y-122129124D01*
X138277600Y-122129124D01*
X138239506Y-122169422D01*
X138153128Y-122168014D01*
X138060331Y-122130063D01*
X138023600Y-122097800D01*
X137989867Y-122039851D01*
X138029581Y-122025309D01*
X138153087Y-122050901D01*
X138163300Y-122053618D01*
X138252160Y-122094162D01*
X138277600Y-122129124D01*
X138691259Y-122129124D01*
X138693495Y-122085100D01*
X138737316Y-122024598D01*
X138531600Y-122024598D01*
X138512045Y-122094840D01*
X138480800Y-122097800D01*
X138434058Y-122024298D01*
X138430000Y-121993201D01*
X138458404Y-121927545D01*
X138480800Y-121920000D01*
X138521676Y-121962675D01*
X138531600Y-122024598D01*
X138737316Y-122024598D01*
X138738903Y-122022408D01*
X138821604Y-121982077D01*
X138901374Y-121975549D01*
X138937985Y-122014269D01*
X138938000Y-122015542D01*
X139314685Y-122015542D01*
X139273690Y-121993212D01*
X139284194Y-121936793D01*
X139314365Y-121893080D01*
X139363407Y-121835502D01*
X137816351Y-121835502D01*
X137775036Y-121869200D01*
X137720072Y-121828600D01*
X137698836Y-121788845D01*
X137671614Y-121664940D01*
X137669616Y-121623745D01*
X137679162Y-121572114D01*
X137717002Y-121600852D01*
X137745816Y-121637609D01*
X137806329Y-121748054D01*
X137816351Y-121835502D01*
X139363407Y-121835502D01*
X139369975Y-121827792D01*
X139417142Y-121831204D01*
X139494317Y-121906337D01*
X139495220Y-121907300D01*
X139581265Y-121987612D01*
X139638301Y-122020824D01*
X139638479Y-122020822D01*
X139742557Y-121975089D01*
X139793827Y-121867035D01*
X139793334Y-121812655D01*
X139792455Y-121809933D01*
X139750800Y-121809933D01*
X139710348Y-121890901D01*
X139642328Y-121920000D01*
X139621667Y-121882426D01*
X139630830Y-121843800D01*
X139679734Y-121780422D01*
X139732768Y-121771315D01*
X139750800Y-121809933D01*
X139792455Y-121809933D01*
X139767198Y-121731765D01*
X139699047Y-121701502D01*
X139593191Y-121701712D01*
X139473311Y-121702064D01*
X139428509Y-121672041D01*
X139432950Y-121593093D01*
X139434024Y-121587412D01*
X139448893Y-121549639D01*
X139288879Y-121549639D01*
X139281328Y-121630291D01*
X139232640Y-121706640D01*
X139154136Y-121760063D01*
X139098269Y-121759848D01*
X139090400Y-121738860D01*
X139091779Y-121734654D01*
X138835375Y-121734654D01*
X138802534Y-121784533D01*
X138720194Y-121818614D01*
X138618168Y-121812299D01*
X138543722Y-121772972D01*
X138531600Y-121742200D01*
X138577037Y-121681704D01*
X138649978Y-121670995D01*
X138217938Y-121670995D01*
X138217010Y-121762444D01*
X138174578Y-121810281D01*
X138147774Y-121810157D01*
X138052371Y-121756385D01*
X137993608Y-121691100D01*
X137953974Y-121580251D01*
X137978024Y-121497662D01*
X138049666Y-121470435D01*
X138111054Y-121493323D01*
X138181305Y-121569949D01*
X138217938Y-121670995D01*
X138649978Y-121670995D01*
X138684000Y-121666000D01*
X138804340Y-121684129D01*
X138835375Y-121734654D01*
X139091779Y-121734654D01*
X139117326Y-121656765D01*
X139176663Y-121566520D01*
X139236255Y-121515105D01*
X139244588Y-121513600D01*
X139288879Y-121549639D01*
X139448893Y-121549639D01*
X139474698Y-121484087D01*
X139531983Y-121469511D01*
X139571629Y-121511381D01*
X139634757Y-121539806D01*
X139710856Y-121508956D01*
X139750644Y-121439850D01*
X139750722Y-121437400D01*
X139700000Y-121437400D01*
X139674600Y-121462800D01*
X139649200Y-121437400D01*
X139674600Y-121412000D01*
X139700000Y-121437400D01*
X139750722Y-121437400D01*
X139750800Y-121434963D01*
X139714824Y-121348295D01*
X139621190Y-121333274D01*
X139548650Y-121360638D01*
X139478018Y-121387661D01*
X139450335Y-121349857D01*
X139448512Y-121310155D01*
X139023367Y-121310155D01*
X139017213Y-121356325D01*
X138937538Y-121407778D01*
X138843302Y-121392023D01*
X138809625Y-121358974D01*
X138809961Y-121332218D01*
X138563417Y-121332218D01*
X138513554Y-121405319D01*
X138445854Y-121450446D01*
X138418566Y-121450521D01*
X138372194Y-121394123D01*
X138371468Y-121385329D01*
X138408109Y-121319104D01*
X138485742Y-121270333D01*
X138555482Y-121267898D01*
X138561803Y-121272869D01*
X138563417Y-121332218D01*
X138809961Y-121332218D01*
X138810604Y-121281034D01*
X138840363Y-121229425D01*
X138900895Y-121179183D01*
X138962687Y-121212121D01*
X138977748Y-121226775D01*
X139023367Y-121310155D01*
X139448512Y-121310155D01*
X139446000Y-121255465D01*
X139451054Y-121196100D01*
X139343623Y-121196100D01*
X139320666Y-121255748D01*
X139269411Y-121242141D01*
X139219942Y-121165179D01*
X139216185Y-121154171D01*
X139205807Y-121079376D01*
X138165110Y-121079376D01*
X138159025Y-121131884D01*
X138105585Y-121204085D01*
X138038667Y-121254650D01*
X138017380Y-121259600D01*
X137977007Y-121218755D01*
X137972800Y-121188835D01*
X138001076Y-121136833D01*
X137717256Y-121136833D01*
X137702924Y-121234137D01*
X137668986Y-121290464D01*
X137633801Y-121279699D01*
X137627363Y-121264688D01*
X137636151Y-121181996D01*
X137662860Y-121121813D01*
X137703757Y-121062044D01*
X137716162Y-121096763D01*
X137717256Y-121136833D01*
X138001076Y-121136833D01*
X138010013Y-121120399D01*
X138088812Y-121073116D01*
X138159936Y-121075024D01*
X138165110Y-121079376D01*
X139205807Y-121079376D01*
X139202614Y-121056368D01*
X139215524Y-121015942D01*
X139262273Y-121022398D01*
X139313297Y-121089361D01*
X139342648Y-121180338D01*
X139343623Y-121196100D01*
X139451054Y-121196100D01*
X139455296Y-121146286D01*
X139499593Y-121111829D01*
X139572941Y-121119621D01*
X139708719Y-121114945D01*
X139808347Y-121058605D01*
X139838694Y-120983198D01*
X139750800Y-120983198D01*
X139722397Y-121048854D01*
X139700000Y-121056400D01*
X139659125Y-121013724D01*
X139649200Y-120951801D01*
X139668756Y-120881559D01*
X139700000Y-120878600D01*
X139746743Y-120952101D01*
X139750800Y-120983198D01*
X139838694Y-120983198D01*
X139843987Y-120970047D01*
X139836407Y-120935593D01*
X139758459Y-120836709D01*
X139646277Y-120826862D01*
X139524975Y-120901393D01*
X139424501Y-120971827D01*
X139371285Y-120957201D01*
X139375106Y-120929400D01*
X138734800Y-120929400D01*
X138715641Y-121034900D01*
X138658240Y-121046285D01*
X138592560Y-120995440D01*
X138535355Y-120898752D01*
X138557953Y-120825456D01*
X138633200Y-120802400D01*
X138712871Y-120832165D01*
X138734800Y-120929400D01*
X139375106Y-120929400D01*
X139380694Y-120888750D01*
X139447341Y-120811529D01*
X139470664Y-120788857D01*
X139037426Y-120788857D01*
X138972602Y-120790322D01*
X138971713Y-120789843D01*
X138043071Y-120789843D01*
X138035488Y-120894273D01*
X138034583Y-120897048D01*
X138006736Y-120940864D01*
X137967429Y-120897048D01*
X137927642Y-120785223D01*
X137922778Y-120738900D01*
X137943298Y-120663495D01*
X137966876Y-120650000D01*
X138015914Y-120692780D01*
X138043071Y-120789843D01*
X138971713Y-120789843D01*
X138846000Y-120722119D01*
X138843423Y-120720320D01*
X138766237Y-120644184D01*
X138780119Y-120584361D01*
X138850318Y-120566443D01*
X138936800Y-120623513D01*
X139029236Y-120729372D01*
X139037426Y-120788857D01*
X139470664Y-120788857D01*
X139519971Y-120740927D01*
X139514950Y-120690496D01*
X139481193Y-120658127D01*
X139413133Y-120625409D01*
X139350979Y-120672183D01*
X139328881Y-120702109D01*
X139263704Y-120770888D01*
X139217595Y-120751572D01*
X139213710Y-120745628D01*
X139206463Y-120679874D01*
X139226602Y-120663866D01*
X139351550Y-120594497D01*
X139420206Y-120503754D01*
X139426844Y-120421400D01*
X139344400Y-120421400D01*
X139319000Y-120446800D01*
X139293600Y-120421400D01*
X139319000Y-120396000D01*
X139344400Y-120421400D01*
X139426844Y-120421400D01*
X139427251Y-120416360D01*
X139369084Y-120358745D01*
X139177012Y-120358745D01*
X139172036Y-120425554D01*
X139144624Y-120522336D01*
X139141200Y-120552554D01*
X139108658Y-120596036D01*
X139017427Y-120564658D01*
X138988800Y-120546656D01*
X138986380Y-120544166D01*
X138480800Y-120544166D01*
X138435544Y-120605094D01*
X138321479Y-120642266D01*
X138284080Y-120645989D01*
X138240696Y-120634820D01*
X138274488Y-120577570D01*
X138277600Y-120573800D01*
X138358237Y-120513757D01*
X138439081Y-120499632D01*
X138480377Y-120537220D01*
X138480800Y-120544166D01*
X138986380Y-120544166D01*
X138943163Y-120499705D01*
X138976989Y-120447886D01*
X139011210Y-120420434D01*
X139120000Y-120355248D01*
X139177012Y-120358745D01*
X139369084Y-120358745D01*
X139367361Y-120357039D01*
X139295195Y-120345200D01*
X139214863Y-120316638D01*
X139192000Y-120216605D01*
X139184473Y-120192800D01*
X139115800Y-120192800D01*
X139104854Y-120236752D01*
X139070997Y-120243600D01*
X138983227Y-120213793D01*
X138963400Y-120192800D01*
X138974347Y-120148847D01*
X139008204Y-120142000D01*
X139095974Y-120171806D01*
X139115800Y-120192800D01*
X139184473Y-120192800D01*
X139154138Y-120096874D01*
X139060494Y-120045551D01*
X138943796Y-120077539D01*
X138881591Y-120175724D01*
X138874694Y-120288824D01*
X138870646Y-120402271D01*
X138824010Y-120444234D01*
X138794261Y-120446800D01*
X138684610Y-120423867D01*
X138661134Y-120361970D01*
X138688815Y-120313999D01*
X138717445Y-120222053D01*
X138664351Y-120154634D01*
X138604802Y-120142000D01*
X138546741Y-120186253D01*
X138531600Y-120269000D01*
X138506995Y-120369425D01*
X138434155Y-120396000D01*
X138307187Y-120411913D01*
X138257219Y-120426503D01*
X138208343Y-120434382D01*
X138205290Y-120387807D01*
X138235341Y-120291735D01*
X138267033Y-120171515D01*
X138258859Y-120142000D01*
X138176000Y-120142000D01*
X138134855Y-120187068D01*
X138099800Y-120192800D01*
X138032197Y-120165369D01*
X138023600Y-120142000D01*
X138064746Y-120096931D01*
X138099800Y-120091200D01*
X138167404Y-120118630D01*
X138176000Y-120142000D01*
X138258859Y-120142000D01*
X138247441Y-120100780D01*
X138202060Y-120060000D01*
X138087918Y-120021031D01*
X138016583Y-120044155D01*
G36*
X138224636Y-118176463D02*
G01*
X138125741Y-118249700D01*
X138049089Y-118339668D01*
X137934281Y-118500062D01*
X137793301Y-118712942D01*
X137638133Y-118960367D01*
X137523430Y-119151400D01*
X137372446Y-119407418D01*
X137182379Y-119729236D01*
X136965989Y-120095276D01*
X136736036Y-120483959D01*
X136505281Y-120873708D01*
X136323813Y-121179975D01*
X136082733Y-121589618D01*
X135891520Y-121923161D01*
X135746150Y-122190632D01*
X135642601Y-122402063D01*
X135576849Y-122567482D01*
X135544872Y-122696919D01*
X135542647Y-122800406D01*
X135566150Y-122887970D01*
X135608007Y-122964570D01*
X135649904Y-123025150D01*
X135695307Y-123076156D01*
X135752805Y-123118413D01*
X135830991Y-123152742D01*
X135938455Y-123179966D01*
X136083790Y-123200908D01*
X136275585Y-123216390D01*
X136522432Y-123227236D01*
X136832923Y-123234267D01*
X137215649Y-123238307D01*
X137679201Y-123240178D01*
X138232171Y-123240703D01*
X138491869Y-123240721D01*
X139059367Y-123240450D01*
X139534275Y-123239474D01*
X139925603Y-123237488D01*
X140242359Y-123234188D01*
X140493554Y-123229270D01*
X140688196Y-123222429D01*
X140835294Y-123213360D01*
X140943860Y-123201759D01*
X141022900Y-123187322D01*
X141081426Y-123169744D01*
X141122342Y-123151821D01*
X141301032Y-123013481D01*
X141399109Y-122826959D01*
X141403286Y-122701704D01*
X141173200Y-122701704D01*
X141171897Y-122763945D01*
X141162647Y-122816397D01*
X141137443Y-122859896D01*
X141088276Y-122895281D01*
X141007138Y-122923388D01*
X140886020Y-122945057D01*
X140716914Y-122961123D01*
X140491812Y-122972426D01*
X140202705Y-122979803D01*
X139841586Y-122984092D01*
X139400445Y-122986130D01*
X138871274Y-122986754D01*
X138447726Y-122986800D01*
X137872775Y-122986504D01*
X137391013Y-122985445D01*
X136994031Y-122983362D01*
X136673418Y-122979994D01*
X136420765Y-122975082D01*
X136227663Y-122968365D01*
X136085701Y-122959582D01*
X135986469Y-122948474D01*
X135921559Y-122934780D01*
X135882561Y-122918241D01*
X135868229Y-122906971D01*
X135833166Y-122871511D01*
X135805533Y-122836377D01*
X135788507Y-122795285D01*
X135785270Y-122741950D01*
X135799000Y-122670087D01*
X135832877Y-122573413D01*
X135890079Y-122445642D01*
X135973787Y-122280489D01*
X136087180Y-122071671D01*
X136233437Y-121812903D01*
X136415737Y-121497901D01*
X136637260Y-121120379D01*
X136901186Y-120674053D01*
X137210693Y-120152639D01*
X137553165Y-119576428D01*
X137781689Y-119194681D01*
X137967059Y-118893735D01*
X138116227Y-118666009D01*
X138236148Y-118503920D01*
X138333775Y-118399886D01*
X138416062Y-118346325D01*
X138489963Y-118335655D01*
X138562431Y-118360294D01*
X138628649Y-118403747D01*
X138692741Y-118475506D01*
X138797783Y-118620728D01*
X138934089Y-118824790D01*
X139091973Y-119073072D01*
X139261749Y-119350952D01*
X139312148Y-119435529D01*
X139509038Y-119767824D01*
X139740302Y-120158049D01*
X139988481Y-120576753D01*
X140236117Y-120994482D01*
X140465753Y-121381784D01*
X140519656Y-121472684D01*
X140706094Y-121792028D01*
X140870112Y-122082611D01*
X141005120Y-122332040D01*
X141104529Y-122527923D01*
X141161747Y-122657867D01*
X141173200Y-122701704D01*
X141403286Y-122701704D01*
X141406284Y-122611831D01*
X141406236Y-122611578D01*
X141370804Y-122515354D01*
X141291613Y-122350134D01*
X141177897Y-122133606D01*
X141038892Y-121883461D01*
X140911178Y-121663399D01*
X140754229Y-121398004D01*
X140558963Y-121067547D01*
X140338646Y-120694497D01*
X140106545Y-120301324D01*
X139875930Y-119910496D01*
X139712849Y-119634000D01*
X139516314Y-119304590D01*
X139329006Y-118997893D01*
X139159074Y-118726700D01*
X139014670Y-118503800D01*
X138903944Y-118341984D01*
X138835048Y-118254042D01*
X138830663Y-118249699D01*
X138639634Y-118131801D01*
X138430425Y-118107388D01*
X138224636Y-118176463D01*
G37*
X138224636Y-118176463D02*
X138125741Y-118249700D01*
X138049089Y-118339668D01*
X137934281Y-118500062D01*
X137793301Y-118712942D01*
X137638133Y-118960367D01*
X137523430Y-119151400D01*
X137372446Y-119407418D01*
X137182379Y-119729236D01*
X136965989Y-120095276D01*
X136736036Y-120483959D01*
X136505281Y-120873708D01*
X136323813Y-121179975D01*
X136082733Y-121589618D01*
X135891520Y-121923161D01*
X135746150Y-122190632D01*
X135642601Y-122402063D01*
X135576849Y-122567482D01*
X135544872Y-122696919D01*
X135542647Y-122800406D01*
X135566150Y-122887970D01*
X135608007Y-122964570D01*
X135649904Y-123025150D01*
X135695307Y-123076156D01*
X135752805Y-123118413D01*
X135830991Y-123152742D01*
X135938455Y-123179966D01*
X136083790Y-123200908D01*
X136275585Y-123216390D01*
X136522432Y-123227236D01*
X136832923Y-123234267D01*
X137215649Y-123238307D01*
X137679201Y-123240178D01*
X138232171Y-123240703D01*
X138491869Y-123240721D01*
X139059367Y-123240450D01*
X139534275Y-123239474D01*
X139925603Y-123237488D01*
X140242359Y-123234188D01*
X140493554Y-123229270D01*
X140688196Y-123222429D01*
X140835294Y-123213360D01*
X140943860Y-123201759D01*
X141022900Y-123187322D01*
X141081426Y-123169744D01*
X141122342Y-123151821D01*
X141301032Y-123013481D01*
X141399109Y-122826959D01*
X141403286Y-122701704D01*
X141173200Y-122701704D01*
X141171897Y-122763945D01*
X141162647Y-122816397D01*
X141137443Y-122859896D01*
X141088276Y-122895281D01*
X141007138Y-122923388D01*
X140886020Y-122945057D01*
X140716914Y-122961123D01*
X140491812Y-122972426D01*
X140202705Y-122979803D01*
X139841586Y-122984092D01*
X139400445Y-122986130D01*
X138871274Y-122986754D01*
X138447726Y-122986800D01*
X137872775Y-122986504D01*
X137391013Y-122985445D01*
X136994031Y-122983362D01*
X136673418Y-122979994D01*
X136420765Y-122975082D01*
X136227663Y-122968365D01*
X136085701Y-122959582D01*
X135986469Y-122948474D01*
X135921559Y-122934780D01*
X135882561Y-122918241D01*
X135868229Y-122906971D01*
X135833166Y-122871511D01*
X135805533Y-122836377D01*
X135788507Y-122795285D01*
X135785270Y-122741950D01*
X135799000Y-122670087D01*
X135832877Y-122573413D01*
X135890079Y-122445642D01*
X135973787Y-122280489D01*
X136087180Y-122071671D01*
X136233437Y-121812903D01*
X136415737Y-121497901D01*
X136637260Y-121120379D01*
X136901186Y-120674053D01*
X137210693Y-120152639D01*
X137553165Y-119576428D01*
X137781689Y-119194681D01*
X137967059Y-118893735D01*
X138116227Y-118666009D01*
X138236148Y-118503920D01*
X138333775Y-118399886D01*
X138416062Y-118346325D01*
X138489963Y-118335655D01*
X138562431Y-118360294D01*
X138628649Y-118403747D01*
X138692741Y-118475506D01*
X138797783Y-118620728D01*
X138934089Y-118824790D01*
X139091973Y-119073072D01*
X139261749Y-119350952D01*
X139312148Y-119435529D01*
X139509038Y-119767824D01*
X139740302Y-120158049D01*
X139988481Y-120576753D01*
X140236117Y-120994482D01*
X140465753Y-121381784D01*
X140519656Y-121472684D01*
X140706094Y-121792028D01*
X140870112Y-122082611D01*
X141005120Y-122332040D01*
X141104529Y-122527923D01*
X141161747Y-122657867D01*
X141173200Y-122701704D01*
X141403286Y-122701704D01*
X141406284Y-122611831D01*
X141406236Y-122611578D01*
X141370804Y-122515354D01*
X141291613Y-122350134D01*
X141177897Y-122133606D01*
X141038892Y-121883461D01*
X140911178Y-121663399D01*
X140754229Y-121398004D01*
X140558963Y-121067547D01*
X140338646Y-120694497D01*
X140106545Y-120301324D01*
X139875930Y-119910496D01*
X139712849Y-119634000D01*
X139516314Y-119304590D01*
X139329006Y-118997893D01*
X139159074Y-118726700D01*
X139014670Y-118503800D01*
X138903944Y-118341984D01*
X138835048Y-118254042D01*
X138830663Y-118249699D01*
X138639634Y-118131801D01*
X138430425Y-118107388D01*
X138224636Y-118176463D01*
M02*
