M48
INCH,TZ
T1C0.0157
T2C0.0236
T3C0.0335
T4C0.0354
T5C0.0394
T6C0.0512
%
G90
G05
T1
X47500Y-44750
X47931Y-50319
X50000Y-42550
X50250Y-43500
X54037Y-44592
X54037Y-45314
X54399Y-44230
X54399Y-44953
X54399Y-45675
X54760Y-44592
X54760Y-45314
X55121Y-44230
X55121Y-44953
X55121Y-45675
X55482Y-44592
X55482Y-45314
T3
X52226Y-52817
X54194Y-52817
T4
X56516Y-52000
X58484Y-52000
T5
X60000Y-42287
X60000Y-43287
X60000Y-44287
X60000Y-45287
T6
X45850Y-47200
X45850Y-49200
T2
G00X51832Y-53742
M15
G01X51832Y-54018
M16
G05
G00X54588Y-53742
M15
G01X54588Y-54018
M16
G05
T0
M30
